{
.appVersion = "983";
classes = (
{
code = "onesuperior twosuperior threesuperior";
name = sups2;
},
{
code = "one two three";
name = sups1;
},
{
code = "zero one two three four five six seven eight nine";
name = ordn1;
}
);
copyright = "Copyright (c) 2012-2017, Sorkin Type Co (www.sorkintype.com)\012with Reserved Font Name \"Fjalla\" and Fjalla \"One\"";
customParameters = (
{
name = macintoshFONDFamilyID;
value = 128;
},
{
name = macintoshFONDName;
value = FjallaOne;
},
{
name = openTypeHeadFlags;
value = (
);
},
{
name = description;
value = "Fjalla is a medium contrast display sans serif. Fjalla has been carefully adjusted to the restrictions of the screen. Despite having display characteristics Fjalla can be used in a wide range of sizes.";
},
{
name = openTypeNameLicense;
value = "This Font Software is licensed under the SIL Open Font License, Version 1.1. This license is available with a FAQ at: http://scripts.sil.org/OFL";
},
{
name = openTypeNameLicenseURL;
value = "http://scripts.sil.org/OFL";
},
{
name = openTypeNameSampleText;
value = "";
},
{
name = openTypeNameUniqueID;
value = "IrinaSmirnova: FjallaOne: 2017";
},
{
name = openTypeNameVersion;
value = "Version 1.001";
},
{
name = openTypeOS2CodePageRanges;
value = (
0
);
},
{
name = openTypeOS2FamilyClass;
value = (
0,
0
);
},
{
name = openTypeOS2Panose;
value = (
2,
0,
5,
6,
4,
0,
0,
2,
0,
4
);
},
{
name = openTypeOS2Selection;
value = (
);
},
{
name = openTypeOS2StrikeoutPosition;
value = 512;
},
{
name = openTypeOS2StrikeoutSize;
value = 102;
},
{
name = openTypeOS2SubscriptXOffset;
value = 0;
},
{
name = openTypeOS2SubscriptXSize;
value = 700;
},
{
name = openTypeOS2SubscriptYOffset;
value = 140;
},
{
name = openTypeOS2SubscriptYSize;
value = 650;
},
{
name = openTypeOS2SuperscriptXOffset;
value = 0;
},
{
name = openTypeOS2SuperscriptXSize;
value = 700;
},
{
name = openTypeOS2SuperscriptYOffset;
value = 477;
},
{
name = openTypeOS2SuperscriptYSize;
value = 650;
},
{
name = fsType;
value = (
);
},

glyphs = (
{
glyphname = A;
lastChange = "2017-07-28 05:08:00 +0000";
layers = (
{
anchors = (
{
name = btm;
position = "{478, -100}";
},
{
name = top;
position = "{478, 500}";
}
);
layerId = "043639A7-E62C-4A4F-99F5-E7AE759848D8";
paths = (
{
closed = 1;
nodes = (
"14 0 LINE",
"275 0 LINE",
"320 306 LINE",
"636 306 LINE",
"683 0 LINE",
"943 0 LINE",
"624 1708 LINE",
"332 1708 LINE"
);
},
{
closed = 1;
nodes = (
"350 501 LINE",
"473 1356 LINE",
"484 1356 LINE",
"606 501 LINE"
);
}
);
width = 957;
}
);
unicode = 0041;
userData = {
com.typemytype.robofont.mark = (
1,
0.6000,
0.6000,
1
);
};
},
{
glyphname = Amacron;
lastChange = "2017-07-28 05:08:00 +0000";
layers = (
{
components = (
{
name = A;
}
);
layerId = "043639A7-E62C-4A4F-99F5-E7AE759848D8";
paths = (
{
closed = 1;
nodes = (
"167 1817 LINE",
"790 1817 LINE",
"790 2009 LINE",
"167 2009 LINE"
);
}
);
width = 957;
}
);
unicode = 0100;
userData = {
com.typemytype.robofont.mark = (
0.6000,
0.986,
1,
1
);
};
},
{
glyphname = Aogonek;
lastChange = "2017-07-28 05:08:00 +0000";
layers = (
{
layerId = "043639A7-E62C-4A4F-99F5-E7AE759848D8";
paths = (
{
closed = 1;
nodes = (
"718 0 LINE",
"696 -20 OFFCURVE",
"613 -90 OFFCURVE",
"613 -194 CURVE SMOOTH",
"613 -382 OFFCURVE",
"743 -419 OFFCURVE",
"806 -419 CURVE SMOOTH",
"861 -419 OFFCURVE",
"902 -410 OFFCURVE",
"957 -389 CURVE",
"950 -238 LINE",
"939 -239 OFFCURVE",
"928 -239 OFFCURVE",
"917 -239 CURVE SMOOTH",
"827 -239 OFFCURVE",
"791 -134 OFFCURVE",
"912 0 CURVE",
"807 13 LINE"
);
},
{
closed = 1;
nodes = (
"14 0 LINE",
"275 0 LINE",
"320 306 LINE",
"636 306 LINE",
"683 0 LINE",
"943 0 LINE",
"624 1708 LINE",
"332 1708 LINE"
);
},
{
closed = 1;
nodes = (
"350 501 LINE",
"473 1356 LINE",
"484 1356 LINE",
"606 501 LINE"
);
}
);
width = 957;
}
);
unicode = 0104;
userData = {
com.typemytype.robofont.mark = (
0.6000,
0.986,
1,
1
);
};
},
{
glyphname = Aring;
lastChange = "2017-07-28 05:08:00 +0000";
layers = (
{
layerId = "043639A7-E62C-4A4F-99F5-E7AE759848D8";
paths = (
{
closed = 1;
nodes = (
"14 0 LINE",
"275 0 LINE",
"320 306 LINE",
"636 306 LINE",
"683 0 LINE",
"943 0 LINE",
"624 1708 LINE",
"570 1607 LINE",
"370 1607 LINE",
"332 1708 LINE"
);
},
{
closed = 1;
nodes = (
"350 501 LINE",
"473 1356 LINE",
"484 1356 LINE",
"606 501 LINE"
);
},
{
closed = 1;
nodes = (
"478 1643 CURVE SMOOTH",
"384 1643 OFFCURVE",
"339 1707 OFFCURVE",
"339 1772 CURVE SMOOTH",
"339 1846 OFFCURVE",
"382 1903 OFFCURVE",
"478 1903 CURVE SMOOTH",
"584 1903 OFFCURVE",
"636 1847 OFFCURVE",
"636 1772 CURVE SMOOTH",
"636 1710 OFFCURVE",
"584 1643 OFFCURVE"
);
},
{
closed = 1;
nodes = (
"479 1480 CURVE SMOOTH",
"697 1480 OFFCURVE",
"803 1633 OFFCURVE",
"803 1776 CURVE SMOOTH",
"803 1935 OFFCURVE",
"697 2065 OFFCURVE",
"479 2065 CURVE SMOOTH",
"262 2065 OFFCURVE",
"165 1931 OFFCURVE",
"165 1776 CURVE SMOOTH",
"165 1625 OFFCURVE",
"266 1480 OFFCURVE"
);
}
);
width = 957;
}
);
unicode = 00C5;
userData = {
com.typemytype.robofont.mark = (
0.6000,
0.986,
1,
1
);
};
},
{
glyphname = Aringacute;
lastChange = "2017-07-28 05:08:00 +0000";
layers = (
{
layerId = "043639A7-E62C-4A4F-99F5-E7AE759848D8";
paths = (
{
closed = 1;
nodes = (
"14 0 LINE",
"275 0 LINE",
"320 306 LINE",
"636 306 LINE",
"683 0 LINE",
"943 0 LINE",
"624 1628 LINE",
"570 1527 LINE",
"370 1527 LINE",
"332 1628 LINE"
);
},
{
closed = 1;
nodes = (
"350 501 LINE",
"473 1276 LINE",
"484 1276 LINE",
"606 501 LINE"
);
},
{
closed = 1;
nodes = (
"478 1563 CURVE SMOOTH",
"384 1563 OFFCURVE",
"339 1627 OFFCURVE",
"339 1692 CURVE SMOOTH",
"339 1766 OFFCURVE",
"382 1823 OFFCURVE",
"478 1823 CURVE SMOOTH",
"584 1823 OFFCURVE",
"636 1767 OFFCURVE",
"636 1692 CURVE SMOOTH",
"636 1630 OFFCURVE",
"584 1563 OFFCURVE"
);
},
{
closed = 1;
nodes = (
"479 1400 CURVE SMOOTH",
"697 1400 OFFCURVE",
"803 1553 OFFCURVE",
"803 1696 CURVE SMOOTH",
"803 1855 OFFCURVE",
"697 1985 OFFCURVE",
"479 1985 CURVE SMOOTH",
"262 1985 OFFCURVE",
"165 1851 OFFCURVE",
"165 1696 CURVE SMOOTH",
"165 1545 OFFCURVE",
"266 1400 OFFCURVE"
);
},
{
closed = 1;
nodes = (
"562 1812 LINE",
"907 1978 LINE",
"778 2145 LINE",
"457 1929 LINE"
);
}
);
width = 957;
}
);
unicode = 01FA;
},
{
glyphname = AE;
lastChange = "2017-07-28 05:08:00 +0000";
layers = (
{
anchors = (
{
name = btm;
position = "{620, -100}";
},
{
name = top;
position = "{620, 500}";
}
);
layerId = "043639A7-E62C-4A4F-99F5-E7AE759848D8";
paths = (
{
closed = 1;
nodes = (
"6 0 LINE",
"267 0 LINE",
"330 306 LINE",
"585 306 LINE",
"585 0 LINE",
"1235 0 LINE",
"1235 205 LINE",
"841 205 LINE",
"841 771 LINE",
"1148 771 LINE",
"1148 995 LINE",
"841 995 LINE",
"841 1503 LINE",
"1235 1503 LINE",
"1235 1708 LINE",
"438 1708 LINE"
);
},
{
closed = 1;
nodes = (
"369 492 LINE",
"548 1356 LINE",
"585 1356 LINE",
"585 492 LINE"
);
}
);
width = 1256;
}
);
unicode = 00C6;
userData = {
com.typemytype.robofont.mark = (
1,
0.6000,
0.6000,
1
);
};
},
{
glyphname = B;
lastChange = "2017-07-28 05:08:00 +0000";
layers = (
{
anchors = (
{
name = btm;
position = "{552, -100}";
},
{
name = top;
position = "{552, 500}";
}
);
layerId = "043639A7-E62C-4A4F-99F5-E7AE759848D8";
paths = (
{
closed = 1;
nodes = (
"141 0 LINE",
"413 0 LINE SMOOTH",
"704 0 OFFCURVE",
"963 65 OFFCURVE",
"963 437 CURVE SMOOTH",
"963 524 LINE SMOOTH",
"963 727 OFFCURVE",
"882 833 OFFCURVE",
"727 894 CURVE",
"727 902 LINE",
"832 940 OFFCURVE",
"935 1056 OFFCURVE",
"935 1238 CURVE SMOOTH",
"935 1321 LINE SMOOTH",
"935 1679 OFFCURVE",
"635 1708 OFFCURVE",
"403 1708 CURVE SMOOTH",
"141 1708 LINE"
);
},
{
closed = 1;
nodes = (
"400 977 LINE",
"400 1519 LINE",
"445 1519 LINE",
"616 1519 OFFCURVE",
"673 1429 OFFCURVE",
"673 1270 CURVE SMOOTH",
"673 1200 LINE SMOOTH",
"673 1040 OFFCURVE",
"584 977 OFFCURVE",
"445 977 CURVE SMOOTH"
);
},
{
closed = 1;
nodes = (
"400 189 LINE",
"400 794 LINE",
"469 794 LINE",
"639 794 OFFCURVE",
"696 705 OFFCURVE",
"696 545 CURVE SMOOTH",
"696 412 LINE SMOOTH",
"696 252 OFFCURVE",
"607 189 OFFCURVE",
"469 189 CURVE SMOOTH"
);
}
);
width = 1039;
}
);
unicode = 0042;
userData = {
com.typemytype.robofont.mark = (
1,
0.6000,
0.6000,
1
);
};
},
{
glyphname = C;
lastChange = "2017-07-28 05:08:00 +0000";
layers = (
{
anchors = (
{
name = btm;
position = "{496, -100}";
},
{
name = top;
position = "{496, 500}";
}
);
layerId = "043639A7-E62C-4A4F-99F5-E7AE759848D8";
paths = (
{
closed = 1;
nodes = (
"532 -15 CURVE SMOOTH",
"761 -14 OFFCURVE",
"886 114 OFFCURVE",
"886 388 CURVE SMOOTH",
"886 546 LINE",
"659 546 LINE",
"659 384 LINE SMOOTH",
"659 247 OFFCURVE",
"605 188 OFFCURVE",
"532 188 CURVE SMOOTH",
"427 188 OFFCURVE",
"378 251 OFFCURVE",
"378 463 CURVE SMOOTH",
"378 1233 LINE SMOOTH",
"378 1452 OFFCURVE",
"429 1520 OFFCURVE",
"524 1520 CURVE SMOOTH",
"610 1520 OFFCURVE",
"656 1426 OFFCURVE",
"656 1239 CURVE SMOOTH",
"656 1157 LINE",
"856 1157 LINE",
"871 1231 OFFCURVE",
"884 1288 OFFCURVE",
"884 1361 CURVE SMOOTH",
"884 1559 OFFCURVE",
"794 1723 OFFCURVE",
"531 1723 CURVE SMOOTH",
"372 1723 OFFCURVE",
"107 1676 OFFCURVE",
"107 1161 CURVE SMOOTH",
"107 556 LINE SMOOTH",
"107 43 OFFCURVE",
"366 -15 OFFCURVE"
);
}
);
width = 928;
}
);
unicode = 0043;
userData = {
com.typemytype.robofont.guides = (
{
angle = 90;
isGlobal = 0;
magnetic = 5;
x = 658;
y = 0;
}
);
com.typemytype.robofont.mark = (
1,
0.6000,
0.6000,
1
);
};
},
{
glyphname = D;
lastChange = "2017-07-28 05:08:00 +0000";
layers = (
{
anchors = (
{
name = btm;
position = "{551, -100}";
},
{
name = top;
position = "{551, 500}";
}
);
layerId = "043639A7-E62C-4A4F-99F5-E7AE759848D8";
paths = (
{
closed = 1;
nodes = (
"400 197 LINE",
"456 197 LINE SMOOTH",
"644 197 OFFCURVE",
"690 280 OFFCURVE",
"690 601 CURVE SMOOTH",
"690 1107 LINE",
"690 1428 OFFCURVE",
"644 1511 OFFCURVE",
"456 1511 CURVE",
"400 1511 LINE"
);
},
{
closed = 1;
nodes = (
"141 0 LINE",
"141 1708 LINE",
"410 1708 LINE SMOOTH",
"652 1708 OFFCURVE",
"961 1695 OFFCURVE",
"961 1102 CURVE SMOOTH",
"961 606 LINE",
"961 12 OFFCURVE",
"652 0 OFFCURVE",
"410 0 CURVE SMOOTH"
);
}
);
width = 1051;
}
);
unicode = 0044;
userData = {
com.typemytype.robofont.mark = (
1,
0.6000,
0.6000,
1
);
};
},
{
glyphname = Eth;
lastChange = "2017-07-28 05:08:00 +0000";
layers = (
{
layerId = "043639A7-E62C-4A4F-99F5-E7AE759848D8";
paths = (
{
closed = 1;
nodes = (
"123 0 LINE",
"401 0 LINE SMOOTH",
"594 0 OFFCURVE",
"936 28 OFFCURVE",
"936 606 CURVE SMOOTH",
"936 1129 LINE SMOOTH",
"936 1696 OFFCURVE",
"594 1725 OFFCURVE",
"401 1725 CURVE SMOOTH",
"123 1725 LINE",
"123 1019 LINE",
"38 1019 LINE",
"38 817 LINE",
"123 817 LINE"
);
},
{
closed = 1;
nodes = (
"375 179 LINE",
"375 817 LINE",
"540 817 LINE",
"540 1019 LINE",
"375 1019 LINE",
"375 1546 LINE",
"413 1546 LINE",
"606 1546 OFFCURVE",
"667 1420 OFFCURVE",
"667 1176 CURVE SMOOTH",
"667 557 LINE SMOOTH",
"667 297 OFFCURVE",
"598 179 OFFCURVE",
"413 179 CURVE SMOOTH"
);
}
);
width = 1027;
}
);
unicode = 00D0;
},
{
glyphname = E;
lastChange = "2017-07-28 05:08:00 +0000";
layers = (
{
anchors = (
{
name = btm;
position = "{467, -100}";
},
{
name = top;
position = "{467, 500}";
}
);
layerId = "043639A7-E62C-4A4F-99F5-E7AE759848D8";
paths = (
{
closed = 1;
nodes = (
"141 0 LINE",
"794 0 LINE",
"794 204 LINE",
"400 204 LINE",
"400 789 LINE",
"709 789 LINE",
"709 993 LINE",
"400 993 LINE",
"400 1504 LINE",
"794 1504 LINE",
"794 1708 LINE",
"141 1708 LINE"
);
}
);
width = 820;
}
);
unicode = 0045;
userData = {
com.typemytype.robofont.mark = (
1,
0.6000,
0.6000,
1
);
};
},
{
glyphname = Eogonek;
lastChange = "2017-07-28 05:08:00 +0000";
layers = (
{
layerId = "043639A7-E62C-4A4F-99F5-E7AE759848D8";
paths = (
{
closed = 1;
nodes = (
"576 0 LINE",
"523 -21 OFFCURVE",
"441 -90 OFFCURVE",
"441 -194 CURVE SMOOTH",
"441 -382 OFFCURVE",
"581 -419 OFFCURVE",
"644 -419 CURVE SMOOTH",
"699 -419 OFFCURVE",
"740 -410 OFFCURVE",
"795 -389 CURVE",
"788 -238 LINE",
"777 -239 OFFCURVE",
"766 -239 OFFCURVE",
"755 -239 CURVE SMOOTH",
"665 -239 OFFCURVE",
"649 -134 OFFCURVE",
"770 0 CURVE",
"665 13 LINE"
);
},
{
closed = 1;
nodes = (
"141 0 LINE",
"794 0 LINE",
"794 204 LINE",
"400 204 LINE",
"400 789 LINE",
"709 789 LINE",
"709 993 LINE",
"400 993 LINE",
"400 1504 LINE",
"794 1504 LINE",
"794 1708 LINE",
"141 1708 LINE"
);
}
);
width = 820;
}
);
unicode = 0118;
userData = {
com.typemytype.robofont.mark = (
0.6000,
0.986,
1,
1
);
};
},
{
glyphname = F;
lastChange = "2017-07-28 05:08:00 +0000";
layers = (
{
anchors = (
{
name = btm;
position = "{467, -100}";
},
{
name = top;
position = "{467, 500}";
}
);
layerId = "043639A7-E62C-4A4F-99F5-E7AE759848D8";
paths = (
{
closed = 1;
nodes = (
"141 0 LINE",
"400 0 LINE",
"400 789 LINE",
"709 789 LINE",
"709 993 LINE",
"400 993 LINE",
"400 1496 LINE",
"794 1496 LINE",
"794 1708 LINE",
"141 1708 LINE"
);
}
);
width = 816;
}
);
unicode = 0046;
userData = {
com.typemytype.robofont.mark = (
1,
0.6000,
0.6000,
1
);
};
},
{
glyphname = G;
lastChange = "2017-07-28 05:08:00 +0000";
layers = (
{
anchors = (
{
name = btm;
position = "{527, -100}";
},
{
name = top;
position = "{527, 500}";
}
);
layerId = "043639A7-E62C-4A4F-99F5-E7AE759848D8";
paths = (
{
closed = 1;
nodes = (
"489 -16 CURVE SMOOTH",
"618 -16 OFFCURVE",
"725 87 OFFCURVE",
"766 193 CURVE",
"749 183 LINE",
"780 0 LINE",
"948 0 LINE",
"948 865 LINE",
"700 821 LINE",
"700 477 LINE SMOOTH",
"700 313 OFFCURVE",
"651 187 OFFCURVE",
"536 187 CURVE SMOOTH",
"427 187 OFFCURVE",
"378 251 OFFCURVE",
"378 463 CURVE SMOOTH",
"378 1233 LINE SMOOTH",
"378 1452 OFFCURVE",
"425 1520 OFFCURVE",
"534 1520 CURVE SMOOTH",
"640 1520 OFFCURVE",
"687 1426 OFFCURVE",
"687 1239 CURVE SMOOTH",
"687 1157 LINE",
"887 1157 LINE",
"901 1231 OFFCURVE",
"914 1288 OFFCURVE",
"914 1361 CURVE SMOOTH",
"914 1559 OFFCURVE",
"818 1723 OFFCURVE",
"541 1723 CURVE SMOOTH",
"378 1723 OFFCURVE",
"107 1676 OFFCURVE",
"107 1161 CURVE SMOOTH",
"107 556 LINE SMOOTH",
"107 43 OFFCURVE",
"368 -16 OFFCURVE"
);
},
{
closed = 1;
nodes = (
"567 695 LINE",
"907 695 LINE",
"948 865 LINE",
"567 865 LINE"
);
}
);
width = 1029;
}
);
unicode = 0047;
userData = {
com.typemytype.robofont.mark = (
1,
0.6000,
0.6000,
1
);
};
},
{
glyphname = H;
lastChange = "2017-07-28 05:08:00 +0000";
layers = (
{
anchors = (
{
name = btm;
position = "{553, -100}";
},
{
name = top;
position = "{553, 500}";
}
);
layerId = "043639A7-E62C-4A4F-99F5-E7AE759848D8";
paths = (
{
closed = 1;
nodes = (
"141 0 LINE",
"400 0 LINE",
"400 789 LINE",
"707 789 LINE",
"707 0 LINE",
"966 0 LINE",
"966 1708 LINE",
"707 1708 LINE",
"707 993 LINE",
"400 993 LINE",
"400 1708 LINE",
"141 1708 LINE"
);
}
);
width = 1107;
}
);
unicode = 0048;
userData = {
com.typemytype.robofont.mark = (
1,
0.6000,
0.6000,
1
);
};
},
{
glyphname = Hbar;
lastChange = "2017-07-28 05:08:00 +0000";
layers = (
{
layerId = "043639A7-E62C-4A4F-99F5-E7AE759848D8";
paths = (
{
closed = 1;
nodes = (
"20 1183 LINE",
"1087 1183 LINE",
"1087 1376 LINE",
"20 1376 LINE"
);
},
{
closed = 1;
nodes = (
"141 0 LINE",
"400 0 LINE",
"400 789 LINE",
"707 789 LINE",
"707 0 LINE",
"966 0 LINE",
"966 1708 LINE",
"707 1708 LINE",
"707 993 LINE",
"400 993 LINE",
"400 1708 LINE",
"141 1708 LINE"
);
}
);
width = 1107;
}
);
unicode = 0126;
userData = {
com.typemytype.robofont.mark = (
0.6000,
0.986,
1,
1
);
};
},
{
glyphname = I;
lastChange = "2017-07-28 05:08:00 +0000";
layers = (
{
anchors = (
{
name = btm;
position = "{270, -100}";
},
{
name = top;
position = "{270, 500}";
}
);
layerId = "043639A7-E62C-4A4F-99F5-E7AE759848D8";
paths = (
{
closed = 1;
nodes = (
"141 0 LINE",
"400 0 LINE",
"400 1708 LINE",
"141 1708 LINE"
);
}
);
width = 541;
}
);
unicode = 0049;
userData = {
com.typemytype.robofont.mark = (
1,
0.6000,
0.6000,
1
);
};
},
{
glyphname = Iogonek;
lastChange = "2017-07-28 05:08:00 +0000";
layers = (
{
layerId = "043639A7-E62C-4A4F-99F5-E7AE759848D8";
paths = (
{
closed = 1;
nodes = (
"187 0 LINE",
"165 -20 OFFCURVE",
"102 -90 OFFCURVE",
"102 -194 CURVE SMOOTH",
"102 -382 OFFCURVE",
"242 -419 OFFCURVE",
"305 -419 CURVE SMOOTH",
"360 -419 OFFCURVE",
"401 -410 OFFCURVE",
"456 -389 CURVE",
"449 -238 LINE",
"438 -239 OFFCURVE",
"427 -239 OFFCURVE",
"416 -239 CURVE SMOOTH",
"326 -239 OFFCURVE",
"260 -134 OFFCURVE",
"381 0 CURVE",
"276 13 LINE"
);
},
{
closed = 1;
nodes = (
"141 0 LINE",
"400 0 LINE",
"400 1708 LINE",
"141 1708 LINE"
);
}
);
width = 541;
}
);
unicode = 012E;
userData = {
com.typemytype.robofont.mark = (
0.6000,
0.986,
1,
1
);
};
},
{
glyphname = J;
lastChange = "2017-07-28 05:08:00 +0000";
layers = (
{
anchors = (
{
name = btm;
position = "{361, -100}";
},
{
name = top;
position = "{586, 500}";
}
);
layerId = "043639A7-E62C-4A4F-99F5-E7AE759848D8";
paths = (
{
closed = 1;
nodes = (
"12 362 CURVE SMOOTH",
"12 156 OFFCURVE",
"94 -16 OFFCURVE",
"351 -16 CURVE SMOOTH",
"535 -16 OFFCURVE",
"710 61 OFFCURVE",
"710 414 CURVE SMOOTH",
"710 1708 LINE",
"451 1708 LINE",
"451 385 LINE SMOOTH",
"451 230 OFFCURVE",
"413 187 OFFCURVE",
"351 187 CURVE SMOOTH",
"277 187 OFFCURVE",
"247 242 OFFCURVE",
"247 418 CURVE SMOOTH",
"247 619 LINE",
"40 619 LINE",
"21 529 OFFCURVE",
"12 434 OFFCURVE"
);
}
);
width = 821;
}
);
unicode = 004A;
userData = {
com.typemytype.robofont.mark = (
1,
0.6000,
0.6000,
1
);
};
},
{
glyphname = K;
lastChange = "2017-07-28 05:08:00 +0000";
layers = (
{
anchors = (
{
name = btm;
position = "{517, -100}";
},
{
name = top;
position = "{570, 500}";
}
);
layerId = "043639A7-E62C-4A4F-99F5-E7AE759848D8";
paths = (
{
closed = 1;
nodes = (
"141 0 LINE",
"400 0 LINE",
"400 813 LINE",
"408 813 LINE",
"722 0 LINE",
"999 0 LINE",
"603 980 LINE",
"601 830 LINE",
"962 1708 LINE",
"704 1708 LINE",
"408 962 LINE",
"400 962 LINE",
"400 1708 LINE",
"141 1708 LINE"
);
}
);
width = 1011;
}
);
unicode = 004B;
userData = {
com.typemytype.robofont.guides = (
{
angle = 90;
isGlobal = 0;
magnetic = 5;
x = 975;
y = 0;
}
);
com.typemytype.robofont.mark = (
1,
0.6000,
0.6000,
1
);
};
},
{
glyphname = L;
lastChange = "2017-07-28 05:08:00 +0000";
layers = (
{
anchors = (
{
name = btm;
position = "{447, -100}";
},
{
name = car;
position = "{492, 600}";
},
{
name = top;
position = "{267, 500}";
}
);
layerId = "043639A7-E62C-4A4F-99F5-E7AE759848D8";
paths = (
{
closed = 1;
nodes = (
"141 0 LINE",
"753 0 LINE",
"753 204 LINE",
"400 204 LINE",
"400 1708 LINE",
"141 1708 LINE"
);
}
);
width = 766;
}
);
unicode = 004C;
userData = {
com.typemytype.robofont.mark = (
1,
0.6000,
0.6000,
1
);
};
},
{
glyphname = Ldot;
lastChange = "2017-07-28 05:08:00 +0000";
layers = (
{
components = (
{
name = L;
}
);
layerId = "043639A7-E62C-4A4F-99F5-E7AE759848D8";
paths = (
{
closed = 1;
nodes = (
"669 601 CURVE SMOOTH",
"770 601 OFFCURVE",
"819 685 OFFCURVE",
"819 765 CURVE SMOOTH",
"819 857 OFFCURVE",
"770 939 OFFCURVE",
"669 939 CURVE SMOOTH",
"571 939 OFFCURVE",
"526 855 OFFCURVE",
"526 765 CURVE SMOOTH",
"526 682 OFFCURVE",
"573 601 OFFCURVE"
);
}
);
width = 784;
}
);
unicode = 013F;
userData = {
com.typemytype.robofont.mark = (
0.6000,
0.986,
1,
1
);
};
},
{
glyphname = Lslash;
lastChange = "2017-07-28 05:08:00 +0000";
layers = (
{
layerId = "043639A7-E62C-4A4F-99F5-E7AE759848D8";
paths = (
{
closed = 1;
nodes = (
"161 0 LINE",
"771 0 LINE",
"771 207 LINE",
"417 207 LINE",
"417 970 LINE",
"744 1223 LINE",
"614 1391 LINE",
"417 1231 LINE",
"417 1725 LINE",
"161 1725 LINE",
"161 1015 LINE",
"-61 837 LINE",
"57 682 LINE",
"161 763 LINE"
);
}
);
width = 791;
}
);
unicode = 0141;
userData = {
com.typemytype.robofont.mark = (
0.6000,
0.986,
1,
1
);
};
},
{
glyphname = M;
lastChange = "2017-07-28 05:08:00 +0000";
layers = (
{
anchors = (
{
name = btm;
position = "{706, -100}";
},
{
name = top;
position = "{706, 500}";
}
);
layerId = "043639A7-E62C-4A4F-99F5-E7AE759848D8";
paths = (
{
closed = 1;
nodes = (
"141 0 LINE",
"373 0 LINE",
"373 565 LINE SMOOTH",
"373 912 OFFCURVE",
"357 1215 OFFCURVE",
"346 1335 CURVE",
"365 1335 LINE",
"625 220 LINE",
"789 220 LINE",
"1047 1335 LINE",
"1066 1335 LINE",
"1055 1215 OFFCURVE",
"1039 912 OFFCURVE",
"1039 565 CURVE SMOOTH",
"1039 0 LINE",
"1271 0 LINE",
"1271 1708 LINE",
"950 1708 LINE",
"781 1017 LINE SMOOTH",
"746 871 OFFCURVE",
"729 736 OFFCURVE",
"711 620 CURVE",
"703 620 LINE",
"685 736 OFFCURVE",
"668 871 OFFCURVE",
"633 1017 CURVE SMOOTH",
"462 1708 LINE",
"141 1708 LINE"
);
}
);
width = 1412;
}
);
unicode = 004D;
userData = {
com.typemytype.robofont.mark = (
1,
0.6000,
0.6000,
1
);
};
},
{
glyphname = N;
lastChange = "2017-07-28 05:08:00 +0000";
layers = (
{
anchors = (
{
name = btm;
position = "{556, -100}";
},
{
name = top;
position = "{556, 500}";
}
);
layerId = "043639A7-E62C-4A4F-99F5-E7AE759848D8";
paths = (
{
closed = 1;
nodes = (
"141 0 LINE",
"369 0 LINE",
"369 502 LINE SMOOTH",
"369 848 OFFCURVE",
"351 972 OFFCURVE",
"342 1093 CURVE",
"350 1093 LINE",
"765 0 LINE",
"972 0 LINE",
"972 1708 LINE",
"742 1708 LINE",
"742 1085 LINE SMOOTH",
"742 820 OFFCURVE",
"760 691 OFFCURVE",
"769 585 CURVE",
"763 585 LINE",
"346 1708 LINE",
"141 1708 LINE"
);
}
);
width = 1113;
}
);
unicode = 004E;
userData = {
com.typemytype.robofont.mark = (
1,
0.6000,
0.6000,
1
);
};
},
{
glyphname = O;
lastChange = "2017-07-28 05:08:00 +0000";
layers = (
{
anchors = (
{
name = btm;
position = "{530, -100}";
},
{
name = top;
position = "{530, 500}";
}
);
layerId = "043639A7-E62C-4A4F-99F5-E7AE759848D8";
paths = (
{
closed = 1;
nodes = (
"532 -15 CURVE SMOOTH",
"681 -15 OFFCURVE",
"953 49 OFFCURVE",
"953 556 CURVE SMOOTH",
"953 1161 LINE SMOOTH",
"953 1684 OFFCURVE",
"686 1723 OFFCURVE",
"532 1723 CURVE SMOOTH",
"372 1723 OFFCURVE",
"107 1676 OFFCURVE",
"107 1161 CURVE SMOOTH",
"107 556 LINE SMOOTH",
"107 43 OFFCURVE",
"366 -15 OFFCURVE"
);
},
{
closed = 1;
nodes = (
"532 188 CURVE SMOOTH",
"427 188 OFFCURVE",
"378 251 OFFCURVE",
"378 463 CURVE SMOOTH",
"378 1233 LINE SMOOTH",
"378 1452 OFFCURVE",
"427 1520 OFFCURVE",
"532 1520 CURVE SMOOTH",
"634 1520 OFFCURVE",
"683 1452 OFFCURVE",
"683 1233 CURVE SMOOTH",
"683 463 LINE SMOOTH",
"683 251 OFFCURVE",
"634 188 OFFCURVE"
);
}
);
width = 1060;
}
);
unicode = 004F;
userData = {
com.typemytype.robofont.mark = (
1,
0.6000,
0.6000,
1
);
};
},
{
glyphname = Oslash;
lastChange = "2017-07-28 05:08:00 +0000";
layers = (
{
anchors = (
{
name = btm;
position = "{514, -100}";
},
{
name = top;
position = "{514, 500}";
}
);
layerId = "043639A7-E62C-4A4F-99F5-E7AE759848D8";
paths = (
{
closed = 1;
nodes = (
"169 -171 LINE",
"294 -171 LINE",
"345 19 LINE",
"404 -8 OFFCURVE",
"465 -15 OFFCURVE",
"517 -15 CURVE SMOOTH",
"666 -15 OFFCURVE",
"933 67 OFFCURVE",
"933 606 CURVE SMOOTH",
"933 1129 LINE SMOOTH",
"933 1400 OFFCURVE",
"871 1551 OFFCURVE",
"789 1636 CURVE",
"855 1878 LINE",
"730 1878 LINE",
"684 1709 LINE",
"625 1734 OFFCURVE",
"566 1740 OFFCURVE",
"517 1740 CURVE SMOOTH",
"357 1740 OFFCURVE",
"96 1676 OFFCURVE",
"96 1129 CURVE SMOOTH",
"96 606 LINE SMOOTH",
"96 335 OFFCURVE",
"158 181 OFFCURVE",
"240 94 CURVE"
);
},
{
closed = 1;
nodes = (
"365 544 LINE",
"365 1236 LINE",
"365 1458 OFFCURVE",
"412 1543 OFFCURVE",
"517 1543 CURVE SMOOTH",
"564 1543 OFFCURVE",
"598 1525 OFFCURVE",
"622 1485 CURVE"
);
},
{
closed = 1;
nodes = (
"408 244 CURVE",
"666 1185 LINE",
"666 482 LINE SMOOTH",
"666 268 OFFCURVE",
"619 188 OFFCURVE",
"517 188 CURVE SMOOTH",
"469 188 OFFCURVE",
"432 205 OFFCURVE"
);
}
);
width = 1029;
}
);
unicode = 00D8;
userData = {
com.typemytype.robofont.mark = (
1,
0.6000,
0.6000,
1
);
};
},
{
glyphname = OE;
lastChange = "2017-07-28 05:08:00 +0000";
layers = (
{
layerId = "043639A7-E62C-4A4F-99F5-E7AE759848D8";
paths = (
{
closed = 1;
nodes = (
"98 631 LINE",
"98 28 OFFCURVE",
"442 0 OFFCURVE",
"639 0 CURVE SMOOTH",
"1293 0 LINE",
"1293 205 LINE",
"899 205 LINE",
"899 771 LINE",
"1206 771 LINE",
"1206 995 LINE",
"899 995 LINE",
"899 1503 LINE",
"1293 1503 LINE",
"1293 1708 LINE",
"639 1708 LINE SMOOTH",
"442 1708 OFFCURVE",
"98 1679 OFFCURVE",
"98 1077 CURVE SMOOTH"
);
},
{
closed = 1;
nodes = (
"626 187 LINE",
"438 187 OFFCURVE",
"366 303 OFFCURVE",
"366 582 CURVE",
"366 1123 LINE SMOOTH",
"366 1394 OFFCURVE",
"429 1521 OFFCURVE",
"626 1521 CURVE SMOOTH",
"642 1521 LINE",
"642 187 LINE"
);
}
);
width = 1360;
}
);
unicode = 0152;
},
{
glyphname = P;
lastChange = "2017-07-28 05:08:00 +0000";
layers = (
{
anchors = (
{
name = btm;
position = "{534, -100}";
},
{
name = top;
position = "{534, 500}";
}
);
layerId = "043639A7-E62C-4A4F-99F5-E7AE759848D8";
paths = (
{
closed = 1;
nodes = (
"141 0 LINE",
"400 0 LINE",
"400 520 LINE",
"425 520 LINE SMOOTH",
"624 520 OFFCURVE",
"927 571 OFFCURVE",
"927 1119 CURVE SMOOTH",
"927 1179 LINE",
"927 1682 OFFCURVE",
"597 1708 OFFCURVE",
"400 1708 CURVE SMOOTH",
"141 1708 LINE"
);
},
{
closed = 1;
nodes = (
"400 710 LINE",
"400 1521 LINE",
"413 1521 LINE",
"609 1521 OFFCURVE",
"661 1428 OFFCURVE",
"661 1225 CURVE SMOOTH",
"661 1071 LINE SMOOTH",
"661 814 OFFCURVE",
"601 710 OFFCURVE",
"413 710 CURVE SMOOTH"
);
}
);
width = 995;
}
);
unicode = 0050;
userData = {
com.typemytype.robofont.mark = (
1,
0.6000,
0.6000,
1
);
};
},
{
glyphname = Thorn;
lastChange = "2017-07-28 05:08:00 +0000";
layers = (
{
layerId = "043639A7-E62C-4A4F-99F5-E7AE759848D8";
paths = (
{
closed = 1;
nodes = (
"141 0 LINE",
"400 0 LINE",
"400 264 LINE",
"425 264 LINE",
"624 264 OFFCURVE",
"927 317 OFFCURVE",
"927 864 CURVE SMOOTH",
"927 925 LINE",
"927 1428 OFFCURVE",
"602 1453 OFFCURVE",
"409 1453 CURVE SMOOTH",
"398 1453 LINE",
"398 1708 LINE",
"141 1708 LINE"
);
},
{
closed = 1;
nodes = (
"400 455 LINE",
"400 1265 LINE",
"413 1265 LINE",
"609 1265 OFFCURVE",
"661 1173 OFFCURVE",
"661 970 CURVE SMOOTH",
"661 817 LINE SMOOTH",
"661 559 OFFCURVE",
"601 455 OFFCURVE",
"413 455 CURVE"
);
}
);
width = 995;
}
);
unicode = 00DE;
},
{
glyphname = Q;
lastChange = "2017-07-28 05:08:00 +0000";
layers = (
{
anchors = (
{
name = btm;
position = "{530, -100}";
},
{
name = top;
position = "{530, 500}";
}
);
layerId = "043639A7-E62C-4A4F-99F5-E7AE759848D8";
paths = (
{
closed = 1;
nodes = (
"427 -72 LINE",
"427 -327 OFFCURVE",
"611 -346 OFFCURVE",
"695 -346 CURVE SMOOTH",
"759 -346 OFFCURVE",
"813 -337 OFFCURVE",
"878 -308 CURVE",
"878 -168 LINE",
"862 -169 OFFCURVE",
"842 -169 OFFCURVE",
"824 -169 CURVE SMOOTH",
"706 -169 OFFCURVE",
"645 -146 OFFCURVE",
"645 -16 CURVE SMOOTH",
"645 78 LINE",
"427 78 LINE"
);
},
{
closed = 1;
nodes = (
"532 -15 CURVE SMOOTH",
"681 -15 OFFCURVE",
"953 49 OFFCURVE",
"953 556 CURVE SMOOTH",
"953 1161 LINE SMOOTH",
"953 1684 OFFCURVE",
"686 1723 OFFCURVE",
"532 1723 CURVE SMOOTH",
"372 1723 OFFCURVE",
"107 1676 OFFCURVE",
"107 1161 CURVE SMOOTH",
"107 556 LINE SMOOTH",
"107 43 OFFCURVE",
"366 -15 OFFCURVE"
);
},
{
closed = 1;
nodes = (
"532 188 CURVE SMOOTH",
"427 188 OFFCURVE",
"378 251 OFFCURVE",
"378 463 CURVE SMOOTH",
"378 1233 LINE SMOOTH",
"378 1452 OFFCURVE",
"427 1520 OFFCURVE",
"532 1520 CURVE SMOOTH",
"634 1520 OFFCURVE",
"683 1452 OFFCURVE",
"683 1233 CURVE SMOOTH",
"683 463 LINE SMOOTH",
"683 251 OFFCURVE",
"634 188 OFFCURVE"
);
}
);
width = 1060;
}
);
unicode = 0051;
userData = {
com.typemytype.robofont.mark = (
1,
0.6000,
0.6000,
1
);
};
},
{
glyphname = R;
lastChange = "2017-07-28 05:08:00 +0000";
layers = (
{
anchors = (
{
name = btm;
position = "{570, -100}";
},
{
name = top;
position = "{570, 500}";
}
);
layerId = "043639A7-E62C-4A4F-99F5-E7AE759848D8";
paths = (
{
closed = 1;
nodes = (
"141 0 LINE",
"400 0 LINE",
"400 639 LINE",
"578 639 LINE",
"459 720 LINE",
"724 0 LINE",
"1000 0 LINE",
"678 783 LINE",
"708 678 LINE",
"866 747 OFFCURVE",
"950 912 OFFCURVE",
"950 1177 CURVE SMOOTH",
"950 1220 LINE",
"950 1684 OFFCURVE",
"619 1708 OFFCURVE",
"422 1708 CURVE SMOOTH",
"141 1708 LINE"
);
},
{
closed = 1;
nodes = (
"400 826 LINE",
"400 1521 LINE",
"434 1521 LINE",
"631 1521 OFFCURVE",
"683 1441 OFFCURVE",
"683 1265 CURVE SMOOTH",
"683 1130 LINE SMOOTH",
"683 900 OFFCURVE",
"623 826 OFFCURVE",
"434 826 CURVE SMOOTH"
);
}
);
width = 1060;
}
);
unicode = 0052;
userData = {
com.typemytype.robofont.mark = (
1,
0.6000,
0.6000,
1
);
};
},
{
glyphname = S;
lastChange = "2017-07-28 05:08:00 +0000";
layers = (
{
anchors = (
{
name = btm;
position = "{472, -100}";
},
{
name = top;
position = "{472, 500}";
}
);
layerId = "043639A7-E62C-4A4F-99F5-E7AE759848D8";
paths = (
{
closed = 1;
nodes = (
"65 346 CURVE SMOOTH",
"65 164 OFFCURVE",
"156 -16 OFFCURVE",
"465 -16 CURVE SMOOTH",
"715 -16 OFFCURVE",
"879 132 OFFCURVE",
"879 368 CURVE SMOOTH",
"879 525 OFFCURVE",
"819 643 OFFCURVE",
"709 786 CURVE SMOOTH",
"408 1168 LINE SMOOTH",
"358 1234 OFFCURVE",
"323 1294 OFFCURVE",
"323 1371 CURVE SMOOTH",
"323 1461 OFFCURVE",
"374 1520 OFFCURVE",
"471 1520 CURVE SMOOTH",
"578 1520 OFFCURVE",
"637 1419 OFFCURVE",
"637 1239 CURVE SMOOTH",
"637 1157 LINE",
"837 1157 LINE",
"851 1231 OFFCURVE",
"865 1288 OFFCURVE",
"865 1361 CURVE SMOOTH",
"865 1534 OFFCURVE",
"773 1723 OFFCURVE",
"471 1723 CURVE SMOOTH",
"222 1723 OFFCURVE",
"73 1563 OFFCURVE",
"73 1336 CURVE SMOOTH",
"73 1185 OFFCURVE",
"128 1069 OFFCURVE",
"223 947 CURVE SMOOTH",
"493 608 LINE SMOOTH",
"588 487 OFFCURVE",
"613 410 OFFCURVE",
"613 334 CURVE SMOOTH",
"613 238 OFFCURVE",
"561 187 OFFCURVE",
"463 187 CURVE SMOOTH",
"347 187 OFFCURVE",
"292 288 OFFCURVE",
"292 472 CURVE SMOOTH",
"292 548 LINE",
"91 548 LINE",
"74 477 OFFCURVE",
"65 419 OFFCURVE"
);
}
);
width = 936;
}
);
unicode = 0053;
userData = {
com.typemytype.robofont.guides = (
{
angle = 90;
isGlobal = 0;
magnetic = 5;
x = 939;
y = 0;
},
{
angle = 90;
isGlobal = 0;
magnetic = 5;
x = 464;
y = 0;
},
{
angle = 90;
isGlobal = 0;
magnetic = 5;
x = 76;
y = 0;
}
);
com.typemytype.robofont.mark = (
1,
0.6000,
0.6000,
1
);
};
},
{
glyphname = Scaron;
lastChange = "2017-07-28 05:08:00 +0000";
layers = (
{
components = (
{
name = S;
}
);
layerId = "043639A7-E62C-4A4F-99F5-E7AE759848D8";
paths = (
{
closed = 1;
nodes = (
"514 1936 LINE",
"474 1880 LINE",
"434 1936 LINE",
"350 2066 LINE",
"102 2066 LINE",
"352 1756 LINE",
"586 1756 LINE",
"832 2066 LINE",
"583 2066 LINE"
);
}
);
width = 936;
}
);
unicode = 0160;
userData = {
com.typemytype.robofont.mark = (
0.6000,
0.7980,
1,
1
);
};
},
{
glyphname = uni1E9E;
lastChange = "2017-07-28 05:08:00 +0000";
layers = (
{
anchors = (
{
name = btm;
position = "{547, -100}";
},
{
name = top;
position = "{547, 500}";
}
);
layerId = "043639A7-E62C-4A4F-99F5-E7AE759848D8";
paths = (
{
closed = 1;
nodes = (
"141 1066 LINE SMOOTH",
"141 1568 OFFCURVE",
"364 1708 OFFCURVE",
"647 1708 CURVE SMOOTH",
"1123 1708 LINE",
"816 1000 LINE",
"542 884 LINE",
"807 1505 LINE",
"647 1505 LINE SMOOTH",
"451 1505 OFFCURVE",
"400 1339 OFFCURVE",
"400 1127 CURVE SMOOTH",
"400 0 LINE",
"141 0 LINE"
);
},
{
closed = 1;
nodes = (
"630 1045 LINE",
"669 1063 OFFCURVE",
"654 1052 OFFCURVE",
"764 1052 CURVE SMOOTH",
"848 1052 OFFCURVE",
"1120 1066 OFFCURVE",
"1120 598 CURVE SMOOTH",
"1119 481 LINE SMOOTH",
"1119 14 OFFCURVE",
"916 0 OFFCURVE",
"763 0 CURVE",
"603 0 LINE",
"603 200 LINE",
"687 200 LINE",
"791 200 OFFCURVE",
"854 244 OFFCURVE",
"854 449 CURVE SMOOTH",
"855 637 LINE SMOOTH",
"855 842 OFFCURVE",
"743 884 OFFCURVE",
"669 884 CURVE SMOOTH",
"607 884 OFFCURVE",
"585 884 OFFCURVE",
"542 884 CURVE"
);
}
);
width = 1186;
}
);
unicode = 1E9E;
userData = {
com.typemytype.robofont.mark = (
0.6000,
0.986,
1,
1
);
};
},
{
glyphname = T;
lastChange = "2017-07-28 05:08:00 +0000";
layers = (
{
anchors = (
{
name = btm;
position = "{428, -100}";
},
{
name = top;
position = "{428, 500}";
}
);
layerId = "043639A7-E62C-4A4F-99F5-E7AE759848D8";
paths = (
{
closed = 1;
nodes = (
"299 0 LINE",
"558 0 LINE",
"558 1504 LINE",
"832 1504 LINE",
"832 1708 LINE",
"24 1708 LINE",
"24 1504 LINE",
"299 1504 LINE"
);
}
);
width = 856;
}
);
unicode = 0054;
userData = {
com.typemytype.robofont.mark = (
1,
0.6000,
0.6000,
1
);
};
},
{
glyphname = Tbar;
lastChange = "2017-07-28 05:08:00 +0000";
layers = (
{
layerId = "043639A7-E62C-4A4F-99F5-E7AE759848D8";
paths = (
{
closed = 1;
nodes = (
"56 946 LINE",
"801 946 LINE",
"801 1149 LINE",
"56 1149 LINE"
);
},
{
closed = 1;
nodes = (
"299 0 LINE",
"558 0 LINE",
"558 1504 LINE",
"832 1504 LINE",
"832 1708 LINE",
"24 1708 LINE",
"24 1504 LINE",
"299 1504 LINE"
);
}
);
width = 856;
}
);
unicode = 0166;
userData = {
com.typemytype.robofont.mark = (
0.6000,
0.986,
1,
1
);
};
},
{
glyphname = U;
lastChange = "2017-07-28 05:08:00 +0000";
layers = (
{
anchors = (
{
name = btm;
position = "{547, -100}";
},
{
name = top;
position = "{547, 500}";
}
);
layerId = "043639A7-E62C-4A4F-99F5-E7AE759848D8";
paths = (
{
closed = 1;
nodes = (
"141 525 CURVE SMOOTH",
"141 1708 LINE",
"400 1708 LINE",
"400 464 LINE SMOOTH",
"400 252 OFFCURVE",
"445 188 OFFCURVE",
"547 188 CURVE SMOOTH",
"649 188 OFFCURVE",
"695 252 OFFCURVE",
"695 464 CURVE SMOOTH",
"695 1708 LINE",
"953 1708 LINE",
"953 525 LINE SMOOTH",
"953 23 OFFCURVE",
"696 -15 OFFCURVE",
"547 -15 CURVE SMOOTH",
"399 -15 OFFCURVE",
"141 23 OFFCURVE"
);
}
);
width = 1095;
}
);
unicode = 0055;
userData = {
com.typemytype.robofont.mark = (
1,
0.6000,
0.6000,
1
);
};
},
{
glyphname = Udieresis;
lastChange = "2017-07-28 05:08:00 +0000";
layers = (
{
components = (
{
name = U;
}
);
layerId = "043639A7-E62C-4A4F-99F5-E7AE759848D8";
paths = (
{
closed = 1;
nodes = (
"324 2082 CURVE SMOOTH",
"433 2082 OFFCURVE",
"469 2139 OFFCURVE",
"469 2235 CURVE SMOOTH",
"469 2345 OFFCURVE",
"433 2397 OFFCURVE",
"324 2397 CURVE SMOOTH",
"218 2397 OFFCURVE",
"187 2342 OFFCURVE",
"187 2235 CURVE SMOOTH",
"187 2135 OFFCURVE",
"220 2082 OFFCURVE"
);
},
{
closed = 1;
nodes = (
"761 2082 CURVE SMOOTH",
"870 2082 OFFCURVE",
"907 2139 OFFCURVE",
"907 2235 CURVE SMOOTH",
"907 2345 OFFCURVE",
"870 2397 OFFCURVE",
"761 2397 CURVE SMOOTH",
"655 2397 OFFCURVE",
"625 2342 OFFCURVE",
"625 2235 CURVE SMOOTH",
"625 2135 OFFCURVE",
"657 2082 OFFCURVE"
);
}
);
width = 1095;
}
);
unicode = 00DC;
userData = {
com.typemytype.robofont.mark = (
0.6000,
0.986,
1,
1
);
};
},
{
glyphname = Uogonek;
lastChange = "2017-07-28 05:08:00 +0000";
layers = (
{
layerId = "043639A7-E62C-4A4F-99F5-E7AE759848D8";
paths = (
{
closed = 1;
nodes = (
"535 30 LINE",
"513 10 OFFCURVE",
"450 -90 OFFCURVE",
"450 -194 CURVE SMOOTH",
"450 -382 OFFCURVE",
"590 -419 OFFCURVE",
"653 -419 CURVE SMOOTH",
"708 -419 OFFCURVE",
"749 -410 OFFCURVE",
"804 -389 CURVE",
"797 -238 LINE",
"786 -239 OFFCURVE",
"775 -239 OFFCURVE",
"764 -239 CURVE SMOOTH",
"674 -239 OFFCURVE",
"608 -104 OFFCURVE",
"729 30 CURVE",
"624 43 LINE"
);
},
{
closed = 1;
nodes = (
"141 525 LINE",
"141 23 OFFCURVE",
"399 -15 OFFCURVE",
"547 -15 CURVE SMOOTH",
"696 -15 OFFCURVE",
"953 23 OFFCURVE",
"953 525 CURVE SMOOTH",
"953 1708 LINE",
"695 1708 LINE",
"695 464 LINE SMOOTH",
"695 252 OFFCURVE",
"649 188 OFFCURVE",
"547 188 CURVE SMOOTH",
"445 188 OFFCURVE",
"400 252 OFFCURVE",
"400 464 CURVE SMOOTH",
"400 1708 LINE",
"141 1708 LINE"
);
}
);
width = 1095;
}
);
unicode = 0172;
userData = {
com.typemytype.robofont.mark = (
0.6000,
0.986,
1,
1
);
};
},
{
glyphname = Uring;
lastChange = "2017-07-28 05:08:00 +0000";
layers = (
{
layerId = "043639A7-E62C-4A4F-99F5-E7AE759848D8";
paths = (
{
closed = 1;
nodes = (
"141 525 CURVE SMOOTH",
"141 1498 LINE",
"400 1498 LINE",
"400 464 LINE SMOOTH",
"400 252 OFFCURVE",
"445 188 OFFCURVE",
"547 188 CURVE SMOOTH",
"649 188 OFFCURVE",
"695 252 OFFCURVE",
"695 464 CURVE SMOOTH",
"695 1498 LINE",
"953 1498 LINE",
"953 525 LINE SMOOTH",
"953 23 OFFCURVE",
"696 -15 OFFCURVE",
"547 -15 CURVE SMOOTH",
"399 -15 OFFCURVE",
"141 23 OFFCURVE"
);
},
{
closed = 1;
nodes = (
"541 1659 CURVE SMOOTH",
"647 1659 OFFCURVE",
"699 1725 OFFCURVE",
"699 1792 CURVE SMOOTH",
"699 1874 OFFCURVE",
"647 1934 OFFCURVE",
"541 1934 CURVE SMOOTH",
"445 1934 OFFCURVE",
"402 1872 OFFCURVE",
"402 1792 CURVE SMOOTH",
"402 1722 OFFCURVE",
"447 1659 OFFCURVE"
);
},
{
closed = 1;
nodes = (
"542 1496 CURVE SMOOTH",
"329 1496 OFFCURVE",
"228 1640 OFFCURVE",
"228 1796 CURVE SMOOTH",
"228 1957 OFFCURVE",
"325 2097 OFFCURVE",
"542 2097 CURVE SMOOTH",
"760 2097 OFFCURVE",
"866 1960 OFFCURVE",
"866 1796 CURVE SMOOTH",
"866 1648 OFFCURVE",
"760 1496 OFFCURVE"
);
}
);
width = 1095;
}
);
unicode = 016E;
userData = {
com.typemytype.robofont.mark = (
0.6000,
0.986,
1,
1
);
};
},
{
glyphname = V;
lastChange = "2017-07-28 05:08:00 +0000";
layers = (
{
anchors = (
{
name = btm;
position = "{472, -100}";
},
{
name = top;
position = "{472, 500}";
}
);
layerId = "043639A7-E62C-4A4F-99F5-E7AE759848D8";
paths = (
{
closed = 1;
nodes = (
"324 0 LINE",
"14 1708 LINE",
"279 1708 LINE",
"467 351 LINE",
"478 351 LINE",
"667 1708 LINE",
"931 1708 LINE",
"620 0 LINE"
);
}
);
width = 945;
}
);
unicode = 0056;
userData = {
com.typemytype.robofont.mark = (
1,
0.6000,
0.6000,
1
);
};
},
{
glyphname = W;
lastChange = "2017-07-28 05:08:00 +0000";
layers = (
{
anchors = (
{
name = btm;
position = "{734, -100}";
},
{
name = top;
position = "{734, 500}";
}
);
layerId = "043639A7-E62C-4A4F-99F5-E7AE759848D8";
paths = (
{
closed = 1;
nodes = (
"278 0 LINE",
"538 0 LINE",
"686 821 LINE",
"729 1178 LINE",
"749 1178 LINE",
"793 821 LINE",
"934 0 LINE",
"1197 0 LINE",
"1436 1708 LINE",
"1187 1708 LINE",
"1082 676 LINE",
"1070 435 LINE",
"1044 435 LINE",
"1024 676 LINE",
"848 1708 LINE",
"641 1708 LINE",
"457 676 LINE",
"433 435 LINE",
"408 435 LINE",
"395 676 LINE",
"280 1708 LINE",
"32 1708 LINE"
);
}
);
width = 1469;
}
);
unicode = 0057;
userData = {
com.typemytype.robofont.mark = (
1,
0.6000,
0.6000,
1
);
};
},
{
glyphname = X;
lastChange = "2017-07-28 05:08:00 +0000";
layers = (
{
anchors = (
{
name = btm;
position = "{460, -100}";
},
{
name = top;
position = "{460, 500}";
}
);
layerId = "043639A7-E62C-4A4F-99F5-E7AE759848D8";
paths = (
{
closed = 1;
nodes = (
"24 0 LINE",
"282 0 LINE",
"451 549 LINE",
"468 549 LINE",
"633 0 LINE",
"897 0 LINE",
"584 859 LINE",
"897 1708 LINE",
"629 1708 LINE",
"470 1162 LINE",
"460 1162 LINE",
"298 1708 LINE",
"24 1708 LINE",
"336 860 LINE"
);
}
);
width = 921;
}
);
unicode = 0058;
userData = {
com.typemytype.robofont.guides = (
{
angle = 90;
isGlobal = 0;
magnetic = 5;
x = 1199;
y = 0;
}
);
com.typemytype.robofont.mark = (
1,
0.6000,
0.6000,
1
);
};
},
{
glyphname = Y;
lastChange = "2017-07-28 05:08:00 +0000";
layers = (
{
anchors = (
{
name = btm;
position = "{474, -100}";
},
{
name = top;
position = "{474, 500}";
}
);
layerId = "043639A7-E62C-4A4F-99F5-E7AE759848D8";
paths = (
{
closed = 1;
nodes = (
"344 0 LINE",
"603 0 LINE",
"603 599 LINE",
"939 1708 LINE",
"679 1708 LINE",
"481 884 LINE",
"469 884 LINE",
"271 1708 LINE",
"10 1708 LINE",
"344 599 LINE"
);
}
);
width = 949;
}
);
unicode = 0059;
userData = {
com.typemytype.robofont.mark = (
1,
0.6000,
0.6000,
1
);
};
},
{
glyphname = Z;
lastChange = "2017-07-28 05:08:00 +0000";
layers = (
{
anchors = (
{
name = btm;
position = "{427, -100}";
},
{
name = top;
position = "{427, 500}";
}
);
layerId = "043639A7-E62C-4A4F-99F5-E7AE759848D8";
paths = (
{
closed = 1;
nodes = (
"24 0 LINE",
"831 0 LINE",
"831 204 LINE",
"313 204 LINE",
"831 1571 LINE",
"831 1708 LINE",
"110 1708 LINE",
"110 1504 LINE",
"541 1504 LINE",
"24 137 LINE"
);
}
);
width = 855;
}
);
unicode = 005A;
userData = {
com.typemytype.robofont.guides = (
{
angle = 90;
isGlobal = 0;
magnetic = 5;
x = 109;
y = 0;
},
{
angle = 90;
isGlobal = 0;
magnetic = 5;
x = 833;
y = 0;
}
);
com.typemytype.robofont.mark = (
1,
0.6000,
0.6000,
1
);
};
},
{
glyphname = uni0162;
lastChange = "2017-07-28 05:08:00 +0000";
layers = (
{
layerId = "043639A7-E62C-4A4F-99F5-E7AE759848D8";
paths = (
{
closed = 1;
nodes = (
"343 13 LINE",
"340 -56 LINE SMOOTH",
"333 -211 OFFCURVE",
"276 -239 OFFCURVE",
"186 -239 CURVE SMOOTH",
"175 -239 OFFCURVE",
"164 -239 OFFCURVE",
"153 -238 CURVE",
"146 -389 LINE",
"201 -410 OFFCURVE",
"242 -419 OFFCURVE",
"297 -419 CURVE SMOOTH",
"360 -419 OFFCURVE",
"538 -389 OFFCURVE",
"521 -104 CURVE SMOOTH",
"514 13 LINE"
);
},
{
closed = 1;
nodes = (
"299 0 LINE",
"558 0 LINE",
"558 1504 LINE",
"832 1504 LINE",
"832 1708 LINE",
"24 1708 LINE",
"24 1504 LINE",
"299 1504 LINE"
);
}
);
width = 856;
}
);
unicode = 0162;
userData = {
com.typemytype.robofont.mark = (
0.6000,
0.986,
1,
1
);
};
},
{
glyphname = a;
lastChange = "2017-07-28 05:08:00 +0000";
layers = (
{
anchors = (
{
name = btm;
position = "{443, -100}";
},
{
name = top;
position = "{436, 500}";
}
);
layerId = "043639A7-E62C-4A4F-99F5-E7AE759848D8";
paths = (
{
closed = 1;
nodes = (
"53 316 CURVE SMOOTH",
"53 138 OFFCURVE",
"136 -16 OFFCURVE",
"316 -16 CURVE SMOOTH",
"432 -16 OFFCURVE",
"521 40 OFFCURVE",
"575 118 CURVE",
"593 0 LINE",
"788 0 LINE",
"788 1041 LINE SMOOTH",
"788 1278 OFFCURVE",
"709 1392 OFFCURVE",
"435 1392 CURVE SMOOTH",
"225 1392 OFFCURVE",
"76 1282 OFFCURVE",
"76 1077 CURVE SMOOTH",
"76 1034 OFFCURVE",
"82 993 OFFCURVE",
"94 941 CURVE",
"287 941 LINE",
"287 996 LINE SMOOTH",
"287 1154 OFFCURVE",
"355 1203 OFFCURVE",
"427 1203 CURVE SMOOTH",
"534 1203 OFFCURVE",
"535 1107 OFFCURVE",
"535 1004 CURVE SMOOTH",
"535 837 LINE",
"486 819 OFFCURVE",
"422 790 OFFCURVE",
"372 765 CURVE SMOOTH",
"162 661 OFFCURVE",
"53 542 OFFCURVE"
);
},
{
closed = 1;
nodes = (
"298 355 CURVE SMOOTH",
"298 490 OFFCURVE",
"372 576 OFFCURVE",
"443 620 CURVE SMOOTH",
"481 644 OFFCURVE",
"509 657 OFFCURVE",
"535 668 CURVE",
"535 234 LINE",
"507 202 OFFCURVE",
"470 177 OFFCURVE",
"428 177 CURVE SMOOTH",
"337 177 OFFCURVE",
"298 250 OFFCURVE"
);
}
);
width = 914;
}
);
unicode = 0061;
userData = {
com.typemytype.robofont.guides = (
{
angle = 90;
isGlobal = 0;
magnetic = 5;
x = 428;
y = 0;
}
);
com.typemytype.robofont.mark = (
1,
0.6000,
0.6000,
1
);
};
},
{
glyphname = ae;
lastChange = "2017-07-28 05:08:00 +0000";
layers = (
{
anchors = (
{
name = btm;
position = "{661, -100}";
},
{
name = top;
position = "{661, 500}";
}
);
layerId = "043639A7-E62C-4A4F-99F5-E7AE759848D8";
paths = (
{
closed = 1;
nodes = (
"788 807 LINE",
"788 888 LINE SMOOTH",
"788 1123 OFFCURVE",
"829 1199 OFFCURVE",
"918 1199 CURVE",
"1002 1198 OFFCURVE",
"1039 1125 OFFCURVE",
"1039 944 CURVE SMOOTH",
"1039 908 OFFCURVE",
"1038 836 OFFCURVE",
"1035 807 CURVE"
);
},
{
closed = 1;
nodes = (
"53 314 CURVE SMOOTH",
"53 137 OFFCURVE",
"136 -16 OFFCURVE",
"350 -16 CURVE SMOOTH",
"463 -16 OFFCURVE",
"571 46 OFFCURVE",
"639 151 CURVE",
"647 151 LINE",
"704 43 OFFCURVE",
"800 -16 OFFCURVE",
"926 -16 CURVE SMOOTH",
"1145 -16 OFFCURVE",
"1262 99 OFFCURVE",
"1262 358 CURVE SMOOTH",
"1262 421 LINE",
"1057 421 LINE",
"1057 361 LINE SMOOTH",
"1057 217 OFFCURVE",
"996 172 OFFCURVE",
"934 172 CURVE SMOOTH",
"819 172 OFFCURVE",
"788 260 OFFCURVE",
"788 499 CURVE SMOOTH",
"788 638 LINE",
"1236 638 LINE",
"1256 725 OFFCURVE",
"1270 848 OFFCURVE",
"1270 958 CURVE SMOOTH",
"1270 1289 OFFCURVE",
"1110 1386 OFFCURVE",
"944 1386 CURVE SMOOTH",
"868 1386 OFFCURVE",
"770 1358 OFFCURVE",
"699 1273 CURVE",
"691 1273 LINE",
"641 1334 OFFCURVE",
"562 1385 OFFCURVE",
"435 1385 CURVE SMOOTH",
"225 1385 OFFCURVE",
"76 1276 OFFCURVE",
"76 1072 CURVE SMOOTH",
"76 1029 OFFCURVE",
"82 988 OFFCURVE",
"94 936 CURVE",
"287 936 LINE",
"287 991 LINE SMOOTH",
"287 1148 OFFCURVE",
"355 1197 OFFCURVE",
"427 1197 CURVE SMOOTH",
"534 1197 OFFCURVE",
"535 1101 OFFCURVE",
"535 999 CURVE SMOOTH",
"535 833 LINE",
"486 815 OFFCURVE",
"422 786 OFFCURVE",
"372 761 CURVE SMOOTH",
"162 658 OFFCURVE",
"53 539 OFFCURVE"
);
},
{
closed = 1;
nodes = (
"298 353 CURVE SMOOTH",
"298 488 OFFCURVE",
"372 573 OFFCURVE",
"443 617 CURVE SMOOTH",
"481 641 OFFCURVE",
"509 654 OFFCURVE",
"535 665 CURVE",
"535 233 LINE",
"507 201 OFFCURVE",
"470 176 OFFCURVE",
"428 176 CURVE SMOOTH",
"337 176 OFFCURVE",
"298 249 OFFCURVE"
);
}
);
width = 1352;
}
);
unicode = 00E6;
userData = {
com.typemytype.robofont.mark = (
1,
0.6000,
0.6000,
1
);
};
},
{
glyphname = b;
lastChange = "2017-07-28 05:08:00 +0000";
layers = (
{
anchors = (
{
name = btm;
position = "{509, -100}";
},
{
name = top;
position = "{509, 500}";
}
);
layerId = "043639A7-E62C-4A4F-99F5-E7AE759848D8";
paths = (
{
closed = 1;
nodes = (
"129 0 LINE",
"327 0 LINE",
"348 128 LINE",
"393 55 OFFCURVE",
"465 -16 OFFCURVE",
"594 -16 CURVE SMOOTH",
"687 -16 OFFCURVE",
"890 14 OFFCURVE",
"890 481 CURVE SMOOTH",
"890 898 LINE",
"890 1366 OFFCURVE",
"688 1392 OFFCURVE",
"604 1392 CURVE SMOOTH",
"494 1392 OFFCURVE",
"421 1333 OFFCURVE",
"375 1269 CURVE",
"374 1270 LINE",
"382 1452 LINE",
"382 1819 LINE",
"129 1819 LINE"
);
},
{
closed = 1;
nodes = (
"382 297 CURVE",
"382 1094 LINE",
"407 1144 OFFCURVE",
"447 1187 OFFCURVE",
"509 1187 CURVE SMOOTH",
"583 1187 OFFCURVE",
"635 1142 OFFCURVE",
"635 937 CURVE SMOOTH",
"635 449 LINE SMOOTH",
"635 244 OFFCURVE",
"582 198 OFFCURVE",
"508 198 CURVE SMOOTH",
"441 198 OFFCURVE",
"404 246 OFFCURVE"
);
}
);
width = 985;
}
);
unicode = 0062;
userData = {
com.typemytype.robofont.mark = (
1,
0.6000,
0.6000,
1
);
};
},
{
glyphname = c;
lastChange = "2017-07-28 05:08:00 +0000";
layers = (
{
anchors = (
{
name = btm;
position = "{471, -100}";
},
{
name = top;
position = "{471, 500}";
}
);
layerId = "043639A7-E62C-4A4F-99F5-E7AE759848D8";
paths = (
{
closed = 1;
nodes = (
"452 -15 CURVE SMOOTH",
"681 -15 OFFCURVE",
"792 99 OFFCURVE",
"792 360 CURVE SMOOTH",
"792 423 LINE",
"587 423 LINE",
"587 363 LINE SMOOTH",
"587 218 OFFCURVE",
"531 173 OFFCURVE",
"480 173 CURVE SMOOTH",
"381 173 OFFCURVE",
"349 261 OFFCURVE",
"349 501 CURVE SMOOTH",
"349 892 LINE SMOOTH",
"349 1129 OFFCURVE",
"392 1205 OFFCURVE",
"474 1205 CURVE SMOOTH",
"548 1205 OFFCURVE",
"587 1122 OFFCURVE",
"587 984 CURVE SMOOTH",
"587 941 LINE",
"779 941 LINE",
"790 984 OFFCURVE",
"796 1027 OFFCURVE",
"796 1090 CURVE SMOOTH",
"796 1296 OFFCURVE",
"669 1393 OFFCURVE",
"482 1393 CURVE SMOOTH",
"343 1393 OFFCURVE",
"95 1350 OFFCURVE",
"95 824 CURVE SMOOTH",
"95 564 LINE SMOOTH",
"95 154 OFFCURVE",
"220 -15 OFFCURVE"
);
}
);
width = 863;
}
);
unicode = 0063;
userData = {
com.typemytype.robofont.guides = (
{
angle = 90;
isGlobal = 0;
magnetic = 5;
x = 598;
y = 0;
}
);
com.typemytype.robofont.mark = (
1,
0.6000,
0.6000,
1
);
};
},
{
glyphname = d;
lastChange = "2017-07-28 05:08:00 +0000";
layers = (
{
anchors = (
{
name = btm;
position = "{475, -100}";
},
{
name = car;
position = "{930, 600}";
},
{
name = top;
position = "{475, 500}";
}
);
layerId = "043639A7-E62C-4A4F-99F5-E7AE759848D8";
paths = (
{
closed = 1;
nodes = (
"391 -16 CURVE SMOOTH",
"519 -16 OFFCURVE",
"592 55 OFFCURVE",
"636 128 CURVE",
"658 0 LINE",
"855 0 LINE",
"855 1819 LINE",
"603 1819 LINE",
"603 1452 LINE",
"611 1278 LINE",
"610 1277 LINE",
"572 1333 OFFCURVE",
"497 1392 OFFCURVE",
"397 1392 CURVE SMOOTH",
"316 1392 OFFCURVE",
"95 1381 OFFCURVE",
"95 918 CURVE SMOOTH",
"95 481 LINE",
"95 14 OFFCURVE",
"298 -16 OFFCURVE"
);
},
{
closed = 1;
nodes = (
"477 190 CURVE SMOOTH",
"403 190 OFFCURVE",
"349 236 OFFCURVE",
"349 441 CURVE SMOOTH",
"349 938 LINE SMOOTH",
"349 1144 OFFCURVE",
"402 1187 OFFCURVE",
"476 1187 CURVE SMOOTH",
"536 1187 OFFCURVE",
"578 1141 OFFCURVE",
"603 1086 CURVE",
"603 289 LINE",
"581 238 OFFCURVE",
"543 190 OFFCURVE"
);
}
);
width = 985;
}
);
unicode = 0064;
userData = {
com.typemytype.robofont.mark = (
1,
0.6000,
0.6000,
1
);
};
},
{
glyphname = eth;
lastChange = "2017-07-28 05:08:00 +0000";
layers = (
{
layerId = "043639A7-E62C-4A4F-99F5-E7AE759848D8";
paths = (
{
closed = 1;
nodes = (
"321 1509 LINE",
"652 1904 LINE",
"520 2020 LINE",
"194 1615 LINE"
);
},
{
closed = 1;
nodes = (
"487 -15 CURVE SMOOTH",
"646 -15 OFFCURVE",
"871 47 OFFCURVE",
"871 597 CURVE SMOOTH",
"871 789 LINE SMOOTH",
"871 1399 OFFCURVE",
"609 1959 OFFCURVE",
"118 1959 CURVE",
"118 1793 LINE",
"329 1789 OFFCURVE",
"487 1617 OFFCURVE",
"551 1367 CURVE",
"527 1378 OFFCURVE",
"514 1386 OFFCURVE",
"445 1386 CURVE SMOOTH",
"339 1386 OFFCURVE",
"92 1343 OFFCURVE",
"92 795 CURVE SMOOTH",
"92 597 LINE SMOOTH",
"92 39 OFFCURVE",
"311 -15 OFFCURVE"
);
},
{
closed = 1;
nodes = (
"489 149 CURVE SMOOTH",
"386 149 OFFCURVE",
"366 237 OFFCURVE",
"366 489 CURVE SMOOTH",
"366 881 LINE SMOOTH",
"366 1133 OFFCURVE",
"386 1224 OFFCURVE",
"489 1224 CURVE SMOOTH",
"588 1224 OFFCURVE",
"605 1133 OFFCURVE",
"605 881 CURVE SMOOTH",
"605 489 LINE SMOOTH",
"605 237 OFFCURVE",
"588 149 OFFCURVE"
);
}
);
width = 963;
}
);
unicode = 00F0;
},
{
glyphname = dcroat;
lastChange = "2017-07-28 05:08:00 +0000";
layers = (
{
layerId = "043639A7-E62C-4A4F-99F5-E7AE759848D8";
paths = (
{
closed = 1;
nodes = (
"411 1499 LINE",
"603 1499 LINE",
"603 1452 LINE",
"611 1278 LINE",
"610 1277 LINE",
"572 1333 OFFCURVE",
"497 1392 OFFCURVE",
"397 1392 CURVE SMOOTH",
"316 1392 OFFCURVE",
"95 1381 OFFCURVE",
"95 918 CURVE SMOOTH",
"95 481 LINE SMOOTH",
"95 14 OFFCURVE",
"298 -16 OFFCURVE",
"391 -16 CURVE SMOOTH",
"519 -16 OFFCURVE",
"592 55 OFFCURVE",
"636 128 CURVE",
"658 0 LINE",
"855 0 LINE",
"855 1499 LINE",
"986 1499 LINE",
"986 1682 LINE",
"855 1682 LINE",
"855 1819 LINE",
"603 1819 LINE",
"603 1682 LINE",
"411 1682 LINE"
);
},
{
closed = 1;
nodes = (
"477 190 CURVE SMOOTH",
"403 190 OFFCURVE",
"349 236 OFFCURVE",
"349 441 CURVE SMOOTH",
"349 938 LINE SMOOTH",
"349 1144 OFFCURVE",
"402 1187 OFFCURVE",
"476 1187 CURVE SMOOTH",
"536 1187 OFFCURVE",
"578 1141 OFFCURVE",
"603 1086 CURVE",
"603 289 LINE",
"581 238 OFFCURVE",
"543 190 OFFCURVE"
);
}
);
width = 985;
}
);
unicode = 0111;
userData = {
com.typemytype.robofont.mark = (
0.6000,
0.986,
1,
1
);
};
},
{
glyphname = e;
lastChange = "2017-07-28 05:08:00 +0000";
layers = (
{
anchors = (
{
name = btm;
position = "{480, -100}";
},
{
name = top;
position = "{480, 500}";
}
);
layerId = "043639A7-E62C-4A4F-99F5-E7AE759848D8";
paths = (
{
closed = 1;
nodes = (
"463 -15 CURVE SMOOTH",
"699 -15 OFFCURVE",
"827 99 OFFCURVE",
"827 360 CURVE SMOOTH",
"827 423 LINE",
"619 423 LINE",
"619 363 LINE SMOOTH",
"619 218 OFFCURVE",
"558 173 OFFCURVE",
"496 173 CURVE SMOOTH",
"381 173 OFFCURVE",
"349 261 OFFCURVE",
"349 501 CURVE SMOOTH",
"349 641 LINE",
"800 641 LINE",
"820 729 OFFCURVE",
"833 852 OFFCURVE",
"833 963 CURVE SMOOTH",
"833 1295 OFFCURVE",
"677 1393 OFFCURVE",
"495 1393 CURVE SMOOTH",
"349 1393 OFFCURVE",
"95 1350 OFFCURVE",
"95 824 CURVE SMOOTH",
"95 564 LINE SMOOTH",
"95 154 OFFCURVE",
"226 -15 OFFCURVE"
);
},
{
closed = 1;
nodes = (
"349 811 LINE",
"349 892 LINE SMOOTH",
"349 1129 OFFCURVE",
"391 1205 OFFCURVE",
"480 1205 CURVE",
"564 1204 OFFCURVE",
"601 1131 OFFCURVE",
"601 949 CURVE SMOOTH",
"601 913 OFFCURVE",
"600 840 OFFCURVE",
"597 811 CURVE"
);
}
);
width = 914;
}
);
unicode = 0065;
userData = {
com.typemytype.robofont.guides = (
{
angle = 90;
isGlobal = 0;
magnetic = 5;
x = 828;
y = 0;
},
{
angle = 90;
isGlobal = 0;
magnetic = 5;
x = 480;
y = 0;
}
);
com.typemytype.robofont.mark = (
1,
0.6000,
0.6000,
1
);
};
},
{
glyphname = eogonek;
lastChange = "2017-07-28 05:08:00 +0000";
layers = (
{
layerId = "043639A7-E62C-4A4F-99F5-E7AE759848D8";
paths = (
{
closed = 1;
nodes = (
"585 97 LINE",
"563 77 OFFCURVE",
"440 0 OFFCURVE",
"439 -194 CURVE SMOOTH",
"438 -382 OFFCURVE",
"569 -419 OFFCURVE",
"632 -419 CURVE SMOOTH",
"687 -419 OFFCURVE",
"728 -410 OFFCURVE",
"783 -389 CURVE",
"776 -238 LINE",
"765 -239 OFFCURVE",
"754 -239 OFFCURVE",
"743 -239 CURVE SMOOTH",
"653 -239 OFFCURVE",
"617 -114 OFFCURVE",
"759 97 CURVE",
"654 110 LINE"
);
},
{
closed = 1;
nodes = (
"463 -15 CURVE SMOOTH",
"699 -15 OFFCURVE",
"827 99 OFFCURVE",
"827 360 CURVE SMOOTH",
"827 423 LINE",
"619 423 LINE",
"619 363 LINE SMOOTH",
"619 218 OFFCURVE",
"558 173 OFFCURVE",
"496 173 CURVE SMOOTH",
"381 173 OFFCURVE",
"349 261 OFFCURVE",
"349 501 CURVE SMOOTH",
"349 641 LINE",
"800 641 LINE",
"820 729 OFFCURVE",
"833 852 OFFCURVE",
"833 963 CURVE SMOOTH",
"833 1295 OFFCURVE",
"677 1393 OFFCURVE",
"495 1393 CURVE SMOOTH",
"349 1393 OFFCURVE",
"95 1350 OFFCURVE",
"95 824 CURVE SMOOTH",
"95 564 LINE SMOOTH",
"95 154 OFFCURVE",
"226 -15 OFFCURVE"
);
},
{
closed = 1;
nodes = (
"349 811 LINE",
"349 892 LINE SMOOTH",
"349 1129 OFFCURVE",
"391 1205 OFFCURVE",
"480 1205 CURVE",
"564 1204 OFFCURVE",
"601 1131 OFFCURVE",
"601 949 CURVE SMOOTH",
"601 913 OFFCURVE",
"600 840 OFFCURVE",
"597 811 CURVE"
);
}
);
width = 914;
}
);
unicode = 0119;
userData = {
com.typemytype.robofont.mark = (
0.6000,
0.986,
1,
1
);
};
},
{
glyphname = f;
lastChange = "2017-07-28 05:08:00 +0000";
layers = (
{
anchors = (
{
name = btm;
position = "{326, -100}";
},
{
name = top;
position = "{326, 500}";
}
);
layerId = "043639A7-E62C-4A4F-99F5-E7AE759848D8";
paths = (
{
closed = 1;
nodes = (
"148 0 LINE",
"401 0 LINE",
"401 1185 LINE",
"602 1185 LINE",
"602 1377 LINE",
"401 1377 LINE",
"401 1476 LINE SMOOTH",
"401 1596 OFFCURVE",
"459 1635 OFFCURVE",
"525 1635 CURVE SMOOTH",
"559 1635 OFFCURVE",
"592 1631 OFFCURVE",
"619 1624 CURVE",
"619 1802 LINE",
"573 1825 OFFCURVE",
"500 1836 OFFCURVE",
"451 1836 CURVE SMOOTH",
"283 1836 OFFCURVE",
"148 1775 OFFCURVE",
"148 1476 CURVE SMOOTH",
"148 1377 LINE",
"33 1377 LINE",
"33 1185 LINE",
"148 1185 LINE"
);
}
);
width = 606;
}
);
unicode = 0066;
userData = {
com.typemytype.robofont.guides = (
{
angle = 0;
isGlobal = 0;
magnetic = 5;
x = 0;
y = 1836;
},
{
angle = 90;
isGlobal = 0;
magnetic = 5;
x = 1212;
y = 0;
},
{
angle = 90;
isGlobal = 0;
magnetic = 5;
x = 711;
y = 0;
}
);
com.typemytype.robofont.mark = (
1,
0.6000,
0.6000,
1
);
};
},
{
glyphname = g;
lastChange = "2017-07-28 05:08:00 +0000";
layers = (
{
anchors = (
{
name = btm;
position = "{480, -100}";
},
{
name = top;
position = "{480, 500}";
}
);
layerId = "043639A7-E62C-4A4F-99F5-E7AE759848D8";
paths = (
{
closed = 1;
nodes = (
"154 -94 LINE",
"145 -126 OFFCURVE",
"141 -155 OFFCURVE",
"141 -174 CURVE SMOOTH",
"141 -391 OFFCURVE",
"289 -445 OFFCURVE",
"471 -445 CURVE SMOOTH",
"740 -445 OFFCURVE",
"855 -251 OFFCURVE",
"855 56 CURVE SMOOTH",
"855 1378 LINE",
"658 1378 LINE",
"635 1242 LINE",
"598 1315 OFFCURVE",
"531 1392 OFFCURVE",
"397 1392 CURVE SMOOTH",
"297 1392 OFFCURVE",
"95 1366 OFFCURVE",
"95 918 CURVE SMOOTH",
"95 556 LINE",
"95 88 OFFCURVE",
"298 58 OFFCURVE",
"391 58 CURVE SMOOTH",
"497 58 OFFCURVE",
"566 107 OFFCURVE",
"611 165 CURVE",
"611 -52 LINE SMOOTH",
"611 -220 OFFCURVE",
"543 -257 OFFCURVE",
"468 -257 CURVE SMOOTH",
"377 -257 OFFCURVE",
"333 -212 OFFCURVE",
"333 -94 CURVE"
);
},
{
closed = 1;
nodes = (
"477 264 CURVE SMOOTH",
"403 264 OFFCURVE",
"349 311 OFFCURVE",
"349 516 CURVE SMOOTH",
"349 938 LINE SMOOTH",
"349 1144 OFFCURVE",
"402 1187 OFFCURVE",
"476 1187 CURVE SMOOTH",
"536 1187 OFFCURVE",
"578 1141 OFFCURVE",
"603 1086 CURVE",
"603 364 LINE",
"581 313 OFFCURVE",
"543 264 OFFCURVE"
);
}
);
width = 984;
}
);
unicode = 0067;
userData = {
com.typemytype.robofont.mark = (
1,
0.6000,
0.6000,
1
);
};
},
{
glyphname = h;
lastChange = "2017-07-28 05:08:00 +0000";
layers = (
{
anchors = (
{
name = btm;
position = "{506, -100}";
},
{
name = top;
position = "{506, 500}";
}
);
layerId = "043639A7-E62C-4A4F-99F5-E7AE759848D8";
paths = (
{
closed = 1;
nodes = (
"128 0 LINE",
"381 0 LINE",
"381 1091 LINE",
"419 1150 OFFCURVE",
"470 1187 OFFCURVE",
"521 1187 CURVE SMOOTH",
"593 1187 OFFCURVE",
"631 1146 OFFCURVE",
"631 1025 CURVE SMOOTH",
"631 0 LINE",
"884 0 LINE",
"884 1055 LINE SMOOTH",
"884 1279 OFFCURVE",
"792 1393 OFFCURVE",
"632 1393 CURVE SMOOTH",
"539 1393 OFFCURVE",
"443 1362 OFFCURVE",
"368 1259 CURVE",
"381 1495 LINE",
"381 1819 LINE",
"128 1819 LINE"
);
}
);
width = 1012;
}
);
unicode = 0068;
userData = {
com.typemytype.robofont.mark = (
1,
0.6000,
0.6000,
1
);
};
},
{
glyphname = hbar;
lastChange = "2017-07-28 05:08:00 +0000";
layers = (
{
layerId = "043639A7-E62C-4A4F-99F5-E7AE759848D8";
paths = (
{
closed = 1;
nodes = (
"128 0 LINE",
"381 0 LINE",
"381 1086 LINE",
"419 1138 OFFCURVE",
"470 1169 OFFCURVE",
"521 1169 CURVE SMOOTH",
"593 1169 OFFCURVE",
"631 1128 OFFCURVE",
"631 1008 CURVE SMOOTH",
"631 0 LINE",
"884 0 LINE",
"884 1050 LINE SMOOTH",
"884 1273 OFFCURVE",
"792 1386 OFFCURVE",
"632 1386 CURVE SMOOTH",
"539 1386 OFFCURVE",
"443 1355 OFFCURVE",
"368 1253 CURVE",
"381 1488 LINE",
"381 1505 LINE",
"602 1505 LINE",
"602 1676 LINE",
"381 1676 LINE",
"381 1810 LINE",
"128 1810 LINE",
"128 1676 LINE",
"4 1676 LINE",
"4 1505 LINE",
"128 1505 LINE"
);
}
);
width = 1011;
}
);
unicode = 0127;
userData = {
com.typemytype.robofont.mark = (
0.6000,
0.986,
1,
1
);
};
},
{
glyphname = hcircumflex;
lastChange = "2017-07-28 05:08:00 +0000";
layers = (
{
layerId = "043639A7-E62C-4A4F-99F5-E7AE759848D8";
paths = (
{
closed = 1;
nodes = (
"128 0 LINE",
"381 0 LINE",
"381 1091 LINE",
"419 1150 OFFCURVE",
"470 1187 OFFCURVE",
"521 1187 CURVE SMOOTH",
"593 1187 OFFCURVE",
"631 1146 OFFCURVE",
"631 1025 CURVE SMOOTH",
"631 0 LINE",
"884 0 LINE",
"884 1055 LINE SMOOTH",
"884 1279 OFFCURVE",
"792 1393 OFFCURVE",
"632 1393 CURVE SMOOTH",
"539 1393 OFFCURVE",
"443 1362 OFFCURVE",
"368 1259 CURVE",
"381 1495 LINE",
"381 1709 LINE",
"128 1709 LINE"
);
},
{
closed = 1;
nodes = (
"377 1756 LINE",
"626 1756 LINE",
"380 2066 LINE",
"146 2066 LINE",
"-104 1756 LINE",
"144 1756 LINE",
"228 1886 LINE",
"268 1942 LINE",
"308 1886 LINE"
);
}
);
width = 1012;
}
);
unicode = 0125;
userData = {
com.typemytype.robofont.mark = (
0.6000,
0.986,
1,
1
);
};
},
{
glyphname = i;
lastChange = "2017-07-28 05:08:00 +0000";
layers = (
{
layerId = "043639A7-E62C-4A4F-99F5-E7AE759848D8";
paths = (
{
closed = 1;
nodes = (
"254 1568 CURVE SMOOTH",
"353 1568 OFFCURVE",
"412 1632 OFFCURVE",
"412 1736 CURVE SMOOTH",
"412 1847 OFFCURVE",
"354 1899 OFFCURVE",
"255 1899 CURVE SMOOTH",
"160 1899 OFFCURVE",
"99 1855 OFFCURVE",
"99 1736 CURVE SMOOTH",
"99 1629 OFFCURVE",
"161 1568 OFFCURVE"
);
},
{
closed = 1;
nodes = (
"129 0 LINE",
"382 0 LINE",
"382 1377 LINE",
"129 1377 LINE"
);
}
);
width = 511;
}
);
unicode = 0069;
userData = {
com.typemytype.robofont.mark = (
0.6000,
0.986,
1,
1
);
};
},
{
glyphname = dotlessi;
lastChange = "2017-07-28 05:08:00 +0000";
layers = (
{
layerId = "043639A7-E62C-4A4F-99F5-E7AE759848D8";
paths = (
{
closed = 1;
nodes = (
"129 0 LINE",
"382 0 LINE",
"382 1377 LINE",
"129 1377 LINE"
);
}
);
width = 511;
}
);
unicode = 0131;
},
{
glyphname = ij_acutecomb;
lastChange = "2017-07-28 05:08:00 +0000";
layers = (
{
layerId = "043639A7-E62C-4A4F-99F5-E7AE759848D8";
paths = (
{
closed = 1;
nodes = (
"129 0 LINE",
"382 0 LINE",
"382 1377 LINE",
"129 1377 LINE"
);
},
{
closed = 1;
nodes = (
"640 -116 LINE",
"640 -236 OFFCURVE",
"590 -275 OFFCURVE",
"531 -275 CURVE SMOOTH",
"520 -275 OFFCURVE",
"509 -274 OFFCURVE",
"499 -273 CURVE",
"499 -420 LINE",
"539 -438 OFFCURVE",
"581 -444 OFFCURVE",
"621 -444 CURVE SMOOTH",
"762 -444 OFFCURVE",
"893 -384 OFFCURVE",
"893 -84 CURVE SMOOTH",
"893 1377 LINE",
"640 1377 LINE"
);
},
{
closed = 1;
nodes = (
"161 1462 LINE",
"495 1846 LINE",
"326 1983 LINE",
"36 1567 LINE"
);
},
{
closed = 1;
nodes = (
"709 1462 LINE",
"1043 1846 LINE",
"874 1983 LINE",
"584 1567 LINE"
);
}
);
width = 1022;
}
);
},
{
glyphname = j;
lastChange = "2017-07-28 05:08:00 +0000";
layers = (
{
anchors = (
{
name = btm;
position = "{185, -100}";
},
{
name = top;
position = "{260, 500}";
}
);
layerId = "043639A7-E62C-4A4F-99F5-E7AE759848D8";
paths = (
{
closed = 1;
nodes = (
"129 -116 LINE",
"129 -236 OFFCURVE",
"79 -275 OFFCURVE",
"20 -275 CURVE SMOOTH",
"9 -275 OFFCURVE",
"-2 -274 OFFCURVE",
"-12 -273 CURVE",
"-12 -420 LINE",
"28 -438 OFFCURVE",
"70 -444 OFFCURVE",
"110 -444 CURVE SMOOTH",
"251 -444 OFFCURVE",
"382 -384 OFFCURVE",
"382 -84 CURVE SMOOTH",
"382 1377 LINE",
"129 1377 LINE"
);
},
{
closed = 1;
nodes = (
"254 1568 CURVE SMOOTH",
"353 1568 OFFCURVE",
"412 1632 OFFCURVE",
"412 1736 CURVE SMOOTH",
"412 1847 OFFCURVE",
"354 1899 OFFCURVE",
"255 1899 CURVE SMOOTH",
"160 1899 OFFCURVE",
"99 1855 OFFCURVE",
"99 1736 CURVE SMOOTH",
"99 1629 OFFCURVE",
"161 1568 OFFCURVE"
);
}
);
width = 511;
}
);
unicode = 006A;
userData = {
com.typemytype.robofont.guides = (
{
angle = 90;
isGlobal = 0;
magnetic = 5;
x = 58;
y = 0;
}
);
com.typemytype.robofont.mark = (
1,
0.6000,
0.6000,
1
);
};
},
{
glyphname = uni0237;
lastChange = "2017-07-28 05:08:00 +0000";
layers = (
{
anchors = (
{
name = btm;
position = "{185, -100}";
},
{
name = top;
position = "{260, 500}";
}
);
layerId = "043639A7-E62C-4A4F-99F5-E7AE759848D8";
paths = (
{
closed = 1;
nodes = (
"129 -116 LINE",
"129 -236 OFFCURVE",
"79 -275 OFFCURVE",
"20 -275 CURVE SMOOTH",
"9 -275 OFFCURVE",
"-2 -274 OFFCURVE",
"-12 -273 CURVE",
"-12 -420 LINE",
"28 -438 OFFCURVE",
"70 -444 OFFCURVE",
"110 -444 CURVE SMOOTH",
"251 -444 OFFCURVE",
"382 -384 OFFCURVE",
"382 -84 CURVE SMOOTH",
"382 1377 LINE",
"129 1377 LINE"
);
}
);
width = 511;
}
);
unicode = 0237;
userData = {
com.typemytype.robofont.guides = (
{
angle = 90;
isGlobal = 0;
magnetic = 5;
x = 58;
y = 0;
}
);
com.typemytype.robofont.mark = (
1,
0.6000,
0.6000,
1
);
};
},
{
glyphname = k;
lastChange = "2017-07-28 05:08:00 +0000";
layers = (
{
anchors = (
{
name = btm;
position = "{533, -100}";
},
{
name = top;
position = "{533, 500}";
}
);
layerId = "043639A7-E62C-4A4F-99F5-E7AE759848D8";
paths = (
{
closed = 1;
nodes = (
"129 0 LINE",
"382 0 LINE",
"382 683 LINE",
"390 683 LINE",
"682 0 LINE",
"938 0 LINE",
"614 759 LINE",
"909 1377 LINE",
"666 1377 LINE",
"390 772 LINE",
"382 772 LINE",
"382 1819 LINE",
"129 1819 LINE"
);
}
);
width = 949;
}
);
unicode = 006B;
userData = {
com.typemytype.robofont.mark = (
1,
0.6000,
0.6000,
1
);
};
},
{
glyphname = kgreenlandic;
lastChange = "2017-07-28 05:08:00 +0000";
layers = (
{
layerId = "043639A7-E62C-4A4F-99F5-E7AE759848D8";
paths = (
{
closed = 1;
nodes = (
"129 0 LINE",
"382 0 LINE",
"382 639 LINE",
"390 639 LINE",
"682 0 LINE",
"938 0 LINE",
"614 714 LINE",
"909 1370 LINE",
"666 1370 LINE",
"390 727 LINE",
"382 727 LINE",
"382 1370 LINE",
"129 1370 LINE"
);
}
);
width = 949;
}
);
unicode = 0138;
userData = {
com.typemytype.robofont.guides = (
{
angle = 90;
isGlobal = 0;
magnetic = 5;
x = 941;
y = 0;
}
);
};
},
{
glyphname = l;
lastChange = "2017-07-28 05:08:00 +0000";
layers = (
{
anchors = (
{
name = btm;
position = "{255, -100}";
},
{
name = car;
position = "{255, 600}";
},
{
name = top;
position = "{255, 500}";
}
);
layerId = "043639A7-E62C-4A4F-99F5-E7AE759848D8";
paths = (
{
closed = 1;
nodes = (
"129 0 LINE",
"382 0 LINE",
"382 1819 LINE",
"129 1819 LINE"
);
}
);
width = 511;
}
);
unicode = 006C;
userData = {
com.typemytype.robofont.mark = (
1,
0.6000,
0.6000,
1
);
};
},
{
glyphname = lacute;
lastChange = "2017-07-28 05:08:00 +0000";
layers = (
{
layerId = "043639A7-E62C-4A4F-99F5-E7AE759848D8";
paths = (
{
closed = 1;
nodes = (
"129 0 LINE",
"382 0 LINE",
"382 1709 LINE",
"129 1709 LINE"
);
},
{
closed = 1;
nodes = (
"255 1733 LINE",
"600 1899 LINE",
"471 2066 LINE",
"150 1850 LINE"
);
}
);
width = 511;
}
);
unicode = 013A;
userData = {
com.typemytype.robofont.mark = (
0.6000,
0.986,
1,
1
);
};
},
{
glyphname = ldot;
lastChange = "2017-07-28 05:08:00 +0000";
layers = (
{
layerId = "043639A7-E62C-4A4F-99F5-E7AE759848D8";
paths = (
{
closed = 1;
nodes = (
"129 0 LINE",
"382 0 LINE",
"382 1810 LINE",
"129 1810 LINE"
);
},
{
closed = 1;
nodes = (
"614 712 CURVE SMOOTH",
"701 712 OFFCURVE",
"747 780 OFFCURVE",
"747 890 CURVE SMOOTH",
"747 1008 OFFCURVE",
"701 1062 OFFCURVE",
"615 1062 CURVE SMOOTH",
"531 1062 OFFCURVE",
"475 1016 OFFCURVE",
"475 890 CURVE SMOOTH",
"475 777 OFFCURVE",
"532 712 OFFCURVE"
);
}
);
width = 757;
}
);
unicode = 0140;
},
{
glyphname = lslash;
lastChange = "2017-07-28 05:08:00 +0000";
layers = (
{
layerId = "043639A7-E62C-4A4F-99F5-E7AE759848D8";
paths = (
{
closed = 1;
nodes = (
"168 0 LINE",
"420 0 LINE",
"420 1810 LINE",
"168 1810 LINE"
);
},
{
closed = 1;
nodes = (
"58 709 LINE",
"241 882 LINE",
"380 996 LINE",
"668 1269 LINE",
"550 1391 LINE",
"379 1229 LINE",
"227 1102 LINE",
"-60 830 LINE"
);
}
);
width = 608;
}
);
unicode = 0142;
userData = {
com.typemytype.robofont.mark = (
0.6000,
0.986,
1,
1
);
};
},
{
glyphname = m;
lastChange = "2017-07-28 05:08:00 +0000";
layers = (
{
anchors = (
{
name = btm;
position = "{758, -100}";
},
{
name = top;
position = "{758, 500}";
}
);
layerId = "043639A7-E62C-4A4F-99F5-E7AE759848D8";
paths = (
{
closed = 1;
nodes = (
"129 0 LINE",
"382 0 LINE",
"382 1093 LINE",
"419 1151 OFFCURVE",
"469 1187 OFFCURVE",
"514 1187 CURVE SMOOTH",
"596 1187 OFFCURVE",
"631 1146 OFFCURVE",
"631 1025 CURVE SMOOTH",
"631 0 LINE",
"884 0 LINE",
"884 1055 LINE SMOOTH",
"884 1067 OFFCURVE",
"884 1079 OFFCURVE",
"883 1091 CURVE",
"921 1150 OFFCURVE",
"971 1187 OFFCURVE",
"1017 1187 CURVE SMOOTH",
"1099 1187 OFFCURVE",
"1134 1146 OFFCURVE",
"1134 1025 CURVE SMOOTH",
"1134 0 LINE",
"1387 0 LINE",
"1387 1055 LINE SMOOTH",
"1387 1279 OFFCURVE",
"1295 1393 OFFCURVE",
"1136 1393 CURVE SMOOTH",
"1036 1393 OFFCURVE",
"934 1356 OFFCURVE",
"855 1237 CURVE",
"817 1341 OFFCURVE",
"740 1393 OFFCURVE",
"633 1393 CURVE SMOOTH",
"531 1393 OFFCURVE",
"426 1355 OFFCURVE",
"347 1229 CURVE",
"347 1230 LINE",
"323 1377 LINE",
"129 1377 LINE"
);
}
);
width = 1514;
}
);
unicode = 006D;
userData = {
com.typemytype.robofont.mark = (
1,
0.6000,
0.6000,
1
);
};
},
{
glyphname = n;
lastChange = "2017-07-28 05:08:00 +0000";
layers = (
{
anchors = (
{
name = btm;
position = "{506, -100}";
},
{
name = top;
position = "{506, 500}";
}
);
layerId = "043639A7-E62C-4A4F-99F5-E7AE759848D8";
paths = (
{
closed = 1;
nodes = (
"129 0 LINE",
"382 0 LINE",
"382 1093 LINE",
"420 1151 OFFCURVE",
"470 1187 OFFCURVE",
"521 1187 CURVE SMOOTH",
"593 1187 OFFCURVE",
"631 1146 OFFCURVE",
"631 1025 CURVE SMOOTH",
"631 0 LINE",
"884 0 LINE",
"884 1055 LINE SMOOTH",
"884 1279 OFFCURVE",
"792 1393 OFFCURVE",
"632 1393 CURVE SMOOTH",
"531 1393 OFFCURVE",
"426 1355 OFFCURVE",
"347 1229 CURVE",
"347 1230 LINE",
"322 1377 LINE",
"129 1377 LINE"
);
}
);
width = 1011;
}
);
unicode = 006E;
userData = {
com.typemytype.robofont.mark = (
1,
0.6000,
0.6000,
1
);
};
},
{
glyphname = o;
lastChange = "2017-07-28 05:08:00 +0000";
layers = (
{
anchors = (
{
name = btm;
position = "{474, -100}";
},
{
name = top;
position = "{474, 500}";
}
);
layerId = "043639A7-E62C-4A4F-99F5-E7AE759848D8";
paths = (
{
closed = 1;
nodes = (
"476 -15 CURVE SMOOTH",
"635 -15 OFFCURVE",
"853 56 OFFCURVE",
"853 591 CURVE SMOOTH",
"853 807 LINE SMOOTH",
"853 1349 OFFCURVE",
"642 1393 OFFCURVE",
"477 1393 CURVE SMOOTH",
"306 1393 OFFCURVE",
"95 1342 OFFCURVE",
"95 807 CURVE SMOOTH",
"95 591 LINE SMOOTH",
"95 47 OFFCURVE",
"300 -15 OFFCURVE"
);
},
{
closed = 1;
nodes = (
"478 173 CURVE SMOOTH",
"383 173 OFFCURVE",
"349 258 OFFCURVE",
"349 516 CURVE SMOOTH",
"349 859 LINE SMOOTH",
"349 1117 OFFCURVE",
"383 1205 OFFCURVE",
"478 1205 CURVE SMOOTH",
"569 1205 OFFCURVE",
"599 1117 OFFCURVE",
"599 859 CURVE SMOOTH",
"599 516 LINE SMOOTH",
"599 258 OFFCURVE",
"569 173 OFFCURVE"
);
}
);
width = 948;
}
);
unicode = 006F;
userData = {
com.typemytype.robofont.mark = (
1,
0.6000,
0.6000,
1
);
};
},
{
glyphname = oslash;
lastChange = "2017-07-28 05:08:00 +0000";
layers = (
{
anchors = (
{
name = btm;
position = "{474, -100}";
},
{
name = top;
position = "{474, 500}";
}
);
layerId = "043639A7-E62C-4A4F-99F5-E7AE759848D8";
paths = (
{
closed = 1;
nodes = (
"95 -171 LINE",
"212 -171 LINE",
"852 1541 LINE",
"735 1541 LINE"
);
},
{
closed = 1;
nodes = (
"476 -15 CURVE SMOOTH",
"635 -15 OFFCURVE",
"853 56 OFFCURVE",
"853 588 CURVE SMOOTH",
"853 803 LINE SMOOTH",
"853 1342 OFFCURVE",
"642 1386 OFFCURVE",
"477 1386 CURVE SMOOTH",
"306 1386 OFFCURVE",
"95 1335 OFFCURVE",
"95 803 CURVE SMOOTH",
"95 588 LINE SMOOTH",
"95 47 OFFCURVE",
"300 -15 OFFCURVE"
);
},
{
closed = 1;
nodes = (
"478 161 CURVE SMOOTH",
"369 161 OFFCURVE",
"329 249 OFFCURVE",
"329 513 CURVE SMOOTH",
"329 855 LINE SMOOTH",
"329 1118 OFFCURVE",
"369 1210 OFFCURVE",
"478 1210 CURVE SMOOTH",
"583 1210 OFFCURVE",
"619 1118 OFFCURVE",
"619 855 CURVE SMOOTH",
"619 513 LINE SMOOTH",
"619 249 OFFCURVE",
"583 161 OFFCURVE"
);
}
);
width = 948;
}
);
unicode = 00F8;
userData = {
com.typemytype.robofont.guides = (
{
angle = 90;
isGlobal = 0;
magnetic = 5;
x = 95;
y = 0;
},
{
angle = 90;
isGlobal = 0;
magnetic = 5;
x = 852;
y = 0;
}
);
com.typemytype.robofont.mark = (
1,
0.6000,
0.6000,
1
);
};
},
{
glyphname = oe;
lastChange = "2017-07-28 05:08:00 +0000";
layers = (
{
layerId = "043639A7-E62C-4A4F-99F5-E7AE759848D8";
paths = (
{
closed = 1;
nodes = (
"476 -15 CURVE SMOOTH",
"555 -15 OFFCURVE",
"651 10 OFFCURVE",
"722 98 CURVE",
"730 98 LINE",
"788 31 OFFCURVE",
"877 -15 OFFCURVE",
"977 -15 CURVE SMOOTH",
"1219 -15 OFFCURVE",
"1328 99 OFFCURVE",
"1328 358 CURVE SMOOTH",
"1328 421 LINE",
"1123 421 LINE",
"1123 361 LINE SMOOTH",
"1123 217 OFFCURVE",
"1062 172 OFFCURVE",
"1000 172 CURVE SMOOTH",
"885 172 OFFCURVE",
"853 260 OFFCURVE",
"853 499 CURVE SMOOTH",
"853 638 LINE",
"1302 638 LINE",
"1322 725 OFFCURVE",
"1335 848 OFFCURVE",
"1335 958 CURVE SMOOTH",
"1335 1289 OFFCURVE",
"1181 1386 OFFCURVE",
"999 1386 CURVE SMOOTH",
"923 1386 OFFCURVE",
"822 1368 OFFCURVE",
"738 1273 CURVE",
"730 1273 LINE",
"658 1366 OFFCURVE",
"558 1386 OFFCURVE",
"477 1386 CURVE SMOOTH",
"306 1386 OFFCURVE",
"95 1335 OFFCURVE",
"95 803 CURVE SMOOTH",
"95 588 LINE SMOOTH",
"95 47 OFFCURVE",
"300 -15 OFFCURVE"
);
},
{
closed = 1;
nodes = (
"478 172 CURVE SMOOTH",
"383 172 OFFCURVE",
"349 257 OFFCURVE",
"349 513 CURVE SMOOTH",
"349 855 LINE SMOOTH",
"349 1111 OFFCURVE",
"383 1199 OFFCURVE",
"478 1199 CURVE SMOOTH",
"569 1199 OFFCURVE",
"599 1111 OFFCURVE",
"599 855 CURVE SMOOTH",
"599 513 LINE SMOOTH",
"599 257 OFFCURVE",
"569 172 OFFCURVE"
);
},
{
closed = 1;
nodes = (
"853 807 LINE",
"853 888 LINE SMOOTH",
"853 1123 OFFCURVE",
"895 1199 OFFCURVE",
"984 1199 CURVE",
"1068 1198 OFFCURVE",
"1105 1125 OFFCURVE",
"1105 944 CURVE SMOOTH",
"1105 908 OFFCURVE",
"1104 836 OFFCURVE",
"1101 807 CURVE"
);
}
);
width = 1418;
}
);
unicode = 0153;
userData = {
com.typemytype.robofont.guides = (
{
angle = 0;
isGlobal = 0;
magnetic = 5;
x = 0;
y = 1273;
}
);
};
},
{
glyphname = p;
lastChange = "2017-07-28 05:08:00 +0000";
layers = (
{
anchors = (
{
name = btm;
position = "{509, -100}";
},
{
name = top;
position = "{509, 500}";
}
);
layerId = "043639A7-E62C-4A4F-99F5-E7AE759848D8";
paths = (
{
closed = 1;
nodes = (
"373 91 LINE",
"418 33 OFFCURVE",
"487 -16 OFFCURVE",
"594 -16 CURVE SMOOTH",
"687 -16 OFFCURVE",
"890 14 OFFCURVE",
"890 481 CURVE SMOOTH",
"890 898 LINE",
"890 1366 OFFCURVE",
"688 1392 OFFCURVE",
"604 1392 CURVE SMOOTH",
"473 1392 OFFCURVE",
"395 1308 OFFCURVE",
"349 1232 CURVE",
"326 1377 LINE",
"128 1377 LINE",
"128 -445 LINE",
"381 -445 LINE",
"381 -78 LINE"
);
},
{
closed = 1;
nodes = (
"381 299 CURVE",
"381 1092 LINE",
"406 1143 OFFCURVE",
"446 1187 OFFCURVE",
"509 1187 CURVE SMOOTH",
"583 1187 OFFCURVE",
"635 1142 OFFCURVE",
"635 937 CURVE SMOOTH",
"635 449 LINE SMOOTH",
"635 244 OFFCURVE",
"582 198 OFFCURVE",
"508 198 CURVE SMOOTH",
"440 198 OFFCURVE",
"403 247 OFFCURVE"
);
}
);
width = 985;
}
);
unicode = 0070;
userData = {
com.typemytype.robofont.mark = (
1,
0.6000,
0.6000,
1
);
};
},
{
glyphname = thorn;
lastChange = "2017-07-28 05:08:00 +0000";
layers = (
{
layerId = "043639A7-E62C-4A4F-99F5-E7AE759848D8";
paths = (
{
closed = 1;
nodes = (
"368 95 LINE",
"408 44 OFFCURVE",
"491 -16 OFFCURVE",
"594 -16 CURVE SMOOTH",
"687 -16 OFFCURVE",
"890 14 OFFCURVE",
"890 479 CURVE SMOOTH",
"890 894 LINE",
"890 1359 OFFCURVE",
"688 1385 OFFCURVE",
"604 1385 CURVE SMOOTH",
"494 1385 OFFCURVE",
"421 1326 OFFCURVE",
"375 1263 CURVE",
"374 1264 LINE",
"382 1445 LINE",
"382 1810 LINE",
"129 1810 LINE",
"129 -443 LINE",
"382 -443 LINE",
"382 -59 LINE"
);
},
{
closed = 1;
nodes = (
"382 296 CURVE",
"382 1089 LINE",
"407 1133 OFFCURVE",
"447 1171 OFFCURVE",
"509 1171 CURVE SMOOTH",
"583 1171 OFFCURVE",
"635 1126 OFFCURVE",
"635 922 CURVE SMOOTH",
"635 447 LINE SMOOTH",
"635 243 OFFCURVE",
"582 197 OFFCURVE",
"508 197 CURVE SMOOTH",
"441 197 OFFCURVE",
"404 245 OFFCURVE"
);
}
);
width = 985;
}
);
unicode = 00FE;
},
{
glyphname = q;
lastChange = "2017-07-28 05:08:00 +0000";
layers = (
{
anchors = (
{
name = btm;
position = "{475, -100}";
},
{
name = top;
position = "{475, 500}";
}
);
layerId = "043639A7-E62C-4A4F-99F5-E7AE759848D8";
paths = (
{
closed = 1;
nodes = (
"391 -16 CURVE SMOOTH",
"497 -16 OFFCURVE",
"565 32 OFFCURVE",
"610 89 CURVE",
"603 -79 LINE",
"603 -446 LINE",
"855 -446 LINE",
"855 1377 LINE",
"658 1377 LINE",
"634 1234 LINE",
"589 1309 OFFCURVE",
"511 1392 OFFCURVE",
"381 1392 CURVE SMOOTH",
"297 1392 OFFCURVE",
"95 1366 OFFCURVE",
"95 898 CURVE SMOOTH",
"95 481 LINE",
"95 14 OFFCURVE",
"298 -16 OFFCURVE"
);
},
{
closed = 1;
nodes = (
"477 190 CURVE SMOOTH",
"403 190 OFFCURVE",
"349 236 OFFCURVE",
"349 441 CURVE SMOOTH",
"349 936 LINE SMOOTH",
"349 1142 OFFCURVE",
"402 1187 OFFCURVE",
"476 1187 CURVE SMOOTH",
"536 1187 OFFCURVE",
"578 1141 OFFCURVE",
"603 1086 CURVE",
"603 289 LINE",
"581 238 OFFCURVE",
"543 190 OFFCURVE"
);
}
);
width = 984;
}
);
unicode = 0071;
userData = {
com.typemytype.robofont.mark = (
1,
0.6000,
0.6000,
1
);
};
},
{
glyphname = r;
lastChange = "2017-07-28 05:08:00 +0000";
layers = (
{
anchors = (
{
name = btm;
position = "{250, -100}";
},
{
name = top;
position = "{406, 500}";
}
);
layerId = "043639A7-E62C-4A4F-99F5-E7AE759848D8";
paths = (
{
closed = 1;
nodes = (
"129 0 LINE",
"382 0 LINE",
"382 1113 LINE",
"401 1159 OFFCURVE",
"428 1187 OFFCURVE",
"460 1187 CURVE SMOOTH",
"509 1187 OFFCURVE",
"547 1156 OFFCURVE",
"547 1045 CURVE SMOOTH",
"547 938 LINE",
"723 938 LINE",
"742 994 OFFCURVE",
"757 1079 OFFCURVE",
"757 1125 CURVE SMOOTH",
"757 1303 OFFCURVE",
"689 1393 OFFCURVE",
"544 1393 CURVE SMOOTH",
"468 1393 OFFCURVE",
"391 1341 OFFCURVE",
"336 1237 CURVE",
"314 1377 LINE",
"129 1377 LINE"
);
}
);
width = 782;
}
);
unicode = 0072;
userData = {
com.typemytype.robofont.mark = (
1,
0.6000,
0.6000,
1
);
};
},
{
glyphname = s;
lastChange = "2017-07-28 05:08:00 +0000";
layers = (
{
anchors = (
{
name = btm;
position = "{407, -100}";
},
{
name = top;
position = "{407, 500}";
}
);
layerId = "043639A7-E62C-4A4F-99F5-E7AE759848D8";
paths = (
{
closed = 1;
nodes = (
"65 288 CURVE SMOOTH",
"65 61 OFFCURVE",
"213 -15 OFFCURVE",
"398 -15 CURVE SMOOTH",
"623 -15 OFFCURVE",
"749 113 OFFCURVE",
"749 307 CURVE SMOOTH",
"749 468 OFFCURVE",
"645 601 OFFCURVE",
"587 674 CURVE SMOOTH",
"387 916 LINE SMOOTH",
"336 980 OFFCURVE",
"301 1025 OFFCURVE",
"301 1089 CURVE SMOOTH",
"301 1147 OFFCURVE",
"325 1205 OFFCURVE",
"403 1205 CURVE SMOOTH",
"495 1205 OFFCURVE",
"531 1118 OFFCURVE",
"534 937 CURVE",
"709 937 LINE",
"720 980 OFFCURVE",
"734 1044 OFFCURVE",
"734 1107 CURVE SMOOTH",
"734 1297 OFFCURVE",
"606 1393 OFFCURVE",
"407 1393 CURVE SMOOTH",
"227 1393 OFFCURVE",
"69 1293 OFFCURVE",
"69 1079 CURVE SMOOTH",
"69 919 OFFCURVE",
"158 790 OFFCURVE",
"254 669 CURVE SMOOTH",
"431 451 LINE SMOOTH",
"485 385 OFFCURVE",
"519 335 OFFCURVE",
"519 276 CURVE SMOOTH",
"519 220 OFFCURVE",
"479 173 OFFCURVE",
"413 173 CURVE SMOOTH",
"319 173 OFFCURVE",
"268 242 OFFCURVE",
"268 442 CURVE",
"90 442 LINE",
"79 409 OFFCURVE",
"65 348 OFFCURVE"
);
}
);
width = 810;
}
);
unicode = 0073;
userData = {
com.typemytype.robofont.guides = (
{
angle = 90;
isGlobal = 0;
magnetic = 5;
x = 65;
y = 0;
},
{
angle = 90;
isGlobal = 0;
magnetic = 5;
x = 748;
y = 0;
}
);
com.typemytype.robofont.mark = (
1,
0.6000,
0.6000,
1
);
};
},
{
glyphname = germandbls;
lastChange = "2017-07-28 05:08:00 +0000";
layers = (
{
layerId = "043639A7-E62C-4A4F-99F5-E7AE759848D8";
paths = (
{
closed = 1;
nodes = (
"129 -443 LINE",
"382 -443 LINE",
"382 1485 LINE SMOOTH",
"382 1591 OFFCURVE",
"445 1629 OFFCURVE",
"524 1629 CURVE SMOOTH",
"627 1629 OFFCURVE",
"681 1546 OFFCURVE",
"681 1436 CURVE SMOOTH",
"681 1348 OFFCURVE",
"662 1281 OFFCURVE",
"593 1140 CURVE SMOOTH",
"528 1033 OFFCURVE",
"505 980 OFFCURVE",
"505 907 CURVE SMOOTH",
"505 824 OFFCURVE",
"535 750 OFFCURVE",
"575 670 CURVE SMOOTH",
"633 509 LINE SMOOTH",
"670 435 OFFCURVE",
"705 363 OFFCURVE",
"705 296 CURVE SMOOTH",
"705 208 OFFCURVE",
"650 170 OFFCURVE",
"602 170 CURVE SMOOTH",
"573 170 OFFCURVE",
"567 170 OFFCURVE",
"537 177 CURVE",
"537 11 LINE",
"582 -7 OFFCURVE",
"632 -19 OFFCURVE",
"693 -19 CURVE SMOOTH",
"886 -19 OFFCURVE",
"962 136 OFFCURVE",
"962 297 CURVE SMOOTH",
"962 392 OFFCURVE",
"934 468 OFFCURVE",
"888 593 CURVE SMOOTH",
"796 790 LINE SMOOTH",
"764 859 OFFCURVE",
"747 902 OFFCURVE",
"747 948 CURVE SMOOTH",
"747 988 OFFCURVE",
"756 1029 OFFCURVE",
"820 1134 CURVE SMOOTH",
"887 1269 OFFCURVE",
"919 1362 OFFCURVE",
"919 1474 CURVE SMOOTH",
"919 1680 OFFCURVE",
"798 1828 OFFCURVE",
"529 1828 CURVE SMOOTH",
"285 1828 OFFCURVE",
"129 1691 OFFCURVE",
"129 1408 CURVE SMOOTH"
);
}
);
width = 1026;
}
);
unicode = 00DF;
userData = {
com.typemytype.robofont.guides = (
{
angle = 0;
isGlobal = 0;
magnetic = 5;
x = 0;
y = 297;
}
);
};
},
{
glyphname = t;
lastChange = "2017-07-28 05:08:00 +0000";
layers = (
{
anchors = (
{
name = btm;
position = "{357, -100}";
},
{
name = car;
position = "{447, 600}";
},
{
name = top;
position = "{288, 500}";
}
);
layerId = "043639A7-E62C-4A4F-99F5-E7AE759848D8";
paths = (
{
closed = 1;
nodes = (
"149 343 LINE",
"149 44 OFFCURVE",
"280 -16 OFFCURVE",
"421 -16 CURVE SMOOTH",
"492 -16 OFFCURVE",
"573 3 OFFCURVE",
"631 74 CURVE",
"631 234 LINE",
"597 213 OFFCURVE",
"560 203 OFFCURVE",
"511 203 CURVE SMOOTH",
"452 203 OFFCURVE",
"402 221 OFFCURVE",
"402 341 CURVE SMOOTH",
"402 1185 LINE",
"632 1185 LINE",
"632 1377 LINE",
"402 1377 LINE",
"402 1734 LINE",
"222 1734 LINE",
"171 1377 LINE",
"32 1377 LINE",
"32 1185 LINE",
"149 1185 LINE"
);
}
);
width = 661;
}
);
unicode = 0074;
userData = {
com.typemytype.robofont.guides = (
{
angle = 90;
isGlobal = 0;
magnetic = 5;
x = 145;
y = 0;
},
{
angle = 90;
isGlobal = 0;
magnetic = 5;
x = 644;
y = 0;
}
);
com.typemytype.robofont.mark = (
1,
0.6000,
0.6000,
1
);
};
},
{
glyphname = tbar;
lastChange = "2017-07-28 05:08:00 +0000";
layers = (
{
layerId = "043639A7-E62C-4A4F-99F5-E7AE759848D8";
paths = (
{
closed = 1;
nodes = (
"30 766 LINE",
"149 766 LINE",
"149 343 LINE SMOOTH",
"149 44 OFFCURVE",
"280 -16 OFFCURVE",
"421 -16 CURVE SMOOTH",
"492 -16 OFFCURVE",
"573 3 OFFCURVE",
"631 74 CURVE",
"631 234 LINE",
"597 213 OFFCURVE",
"560 203 OFFCURVE",
"511 203 CURVE SMOOTH",
"452 203 OFFCURVE",
"402 221 OFFCURVE",
"402 341 CURVE SMOOTH",
"402 766 LINE",
"631 766 LINE",
"631 956 LINE",
"402 956 LINE",
"402 1185 LINE",
"632 1185 LINE",
"632 1377 LINE",
"402 1377 LINE",
"402 1734 LINE",
"222 1734 LINE",
"171 1377 LINE",
"32 1377 LINE",
"32 1185 LINE",
"149 1185 LINE",
"149 956 LINE",
"30 956 LINE"
);
}
);
width = 661;
}
);
unicode = 0167;
userData = {
com.typemytype.robofont.mark = (
0.6000,
0.986,
1,
1
);
};
},
{
glyphname = u;
lastChange = "2017-07-28 05:08:00 +0000";
layers = (
{
anchors = (
{
name = btm;
position = "{523, -100}";
},
{
name = top;
position = "{523, 500}";
}
);
layerId = "043639A7-E62C-4A4F-99F5-E7AE759848D8";
paths = (
{
closed = 1;
nodes = (
"127 322 LINE",
"127 97 OFFCURVE",
"219 -16 OFFCURVE",
"379 -16 CURVE SMOOTH",
"480 -16 OFFCURVE",
"584 22 OFFCURVE",
"663 147 CURVE",
"664 147 LINE",
"689 0 LINE",
"882 0 LINE",
"882 1377 LINE",
"629 1377 LINE",
"629 283 LINE",
"591 231 OFFCURVE",
"540 202 OFFCURVE",
"490 202 CURVE SMOOTH",
"418 202 OFFCURVE",
"380 243 OFFCURVE",
"380 364 CURVE SMOOTH",
"380 1377 LINE",
"127 1377 LINE"
);
}
);
width = 1011;
}
);
unicode = 0075;
userData = {
com.typemytype.robofont.mark = (
1,
0.6000,
0.6000,
1
);
};
},
{
glyphname = v;
lastChange = "2017-07-28 05:08:00 +0000";
layers = (
{
anchors = (
{
name = btm;
position = "{431, -100}";
},
{
name = top;
position = "{431, 500}";
}
);
layerId = "043639A7-E62C-4A4F-99F5-E7AE759848D8";
paths = (
{
closed = 1;
nodes = (
"321 0 LINE",
"537 0 LINE",
"851 1377 LINE",
"607 1377 LINE",
"475 645 LINE",
"437 352 LINE",
"429 352 LINE",
"396 645 LINE",
"263 1377 LINE",
"11 1377 LINE"
);
}
);
width = 864;
}
);
unicode = 0076;
userData = {
com.typemytype.robofont.mark = (
1,
0.6000,
0.6000,
1
);
};
},
{
glyphname = w;
lastChange = "2017-07-28 05:08:00 +0000";
layers = (
{
anchors = (
{
name = btm;
position = "{664, -100}";
},
{
name = top;
position = "{664, 500}";
}
);
layerId = "043639A7-E62C-4A4F-99F5-E7AE759848D8";
paths = (
{
closed = 1;
nodes = (
"257 0 LINE",
"500 0 LINE",
"630 766 LINE",
"659 977 LINE",
"659 977 OFFCURVE",
"667 977 OFFCURVE",
"667 977 CURVE",
"699 766 LINE",
"842 0 LINE",
"1075 0 LINE",
"1298 1377 LINE",
"1062 1377 LINE",
"975 631 LINE",
"958 352 LINE",
"950 352 LINE",
"913 631 LINE",
"777 1377 LINE",
"564 1377 LINE",
"432 631 LINE",
"402 352 LINE",
"394 352 LINE",
"370 631 LINE",
"271 1377 LINE",
"30 1377 LINE"
);
}
);
width = 1328;
}
);
unicode = 0077;
userData = {
com.typemytype.robofont.mark = (
1,
0.6000,
0.6000,
1
);
};
},
{
glyphname = x;
lastChange = "2017-07-28 05:08:00 +0000";
layers = (
{
anchors = (
{
name = btm;
position = "{446, -100}";
},
{
name = top;
position = "{446, 500}";
}
);
layerId = "043639A7-E62C-4A4F-99F5-E7AE759848D8";
paths = (
{
closed = 1;
nodes = (
"20 0 LINE",
"263 0 LINE",
"435 475 LINE",
"443 475 LINE",
"613 0 LINE",
"872 0 LINE",
"579 723 LINE",
"840 1377 LINE",
"598 1377 LINE",
"442 926 LINE",
"440 926 LINE",
"293 1377 LINE",
"34 1377 LINE",
"306 699 LINE"
);
}
);
width = 892;
}
);
unicode = 0078;
userData = {
com.typemytype.robofont.guides = (
{
angle = 90;
isGlobal = 0;
magnetic = 5;
x = 12;
y = 0;
},
{
angle = 90;
isGlobal = 0;
magnetic = 5;
x = 868;
y = 0;
}
);
com.typemytype.robofont.mark = (
1,
0.6000,
0.6000,
1
);
};
},
{
glyphname = y;
lastChange = "2017-07-28 05:08:00 +0000";
layers = (
{
anchors = (
{
name = btm;
position = "{438, -100}";
},
{
name = top;
position = "{438, 500}";
}
);
layerId = "043639A7-E62C-4A4F-99F5-E7AE759848D8";
paths = (
{
closed = 1;
nodes = (
"80 -265 CURVE",
"79 -420 LINE",
"125 -437 OFFCURVE",
"170 -445 OFFCURVE",
"212 -445 CURVE SMOOTH",
"426 -445 OFFCURVE",
"523 -315 OFFCURVE",
"574 -51 CURVE SMOOTH",
"857 1377 LINE",
"613 1377 LINE",
"496 615 LINE",
"467 352 LINE",
"459 352 LINE",
"417 615 LINE",
"272 1377 LINE",
"20 1377 LINE",
"346 -8 LINE",
"338 -203 OFFCURVE",
"233 -287 OFFCURVE"
);
}
);
width = 888;
}
);
unicode = 0079;
userData = {
com.typemytype.robofont.guides = (
{
angle = 0;
isGlobal = 0;
magnetic = 5;
x = 0;
y = -504;
}
);
com.typemytype.robofont.mark = (
1,
0.6000,
0.6000,
1
);
};
},
{
glyphname = z;
lastChange = "2017-07-28 05:08:00 +0000";
layers = (
{
anchors = (
{
name = btm;
position = "{343, -100}";
},
{
name = top;
position = "{343, 500}";
}
);
layerId = "043639A7-E62C-4A4F-99F5-E7AE759848D8";
paths = (
{
closed = 1;
nodes = (
"14 0 LINE",
"673 0 LINE",
"673 192 LINE",
"252 192 LINE",
"266 142 LINE",
"666 1251 LINE",
"666 1377 LINE",
"34 1377 LINE",
"34 1185 LINE",
"440 1185 LINE",
"421 1256 LINE",
"14 126 LINE"
);
}
);
width = 687;
}
);
unicode = 007A;
userData = {
com.typemytype.robofont.guides = (
{
angle = 90;
isGlobal = 0;
magnetic = 5;
x = 13;
y = 0;
},
{
angle = 90;
isGlobal = 0;
magnetic = 5;
x = 677;
y = 0;
}
);
com.typemytype.robofont.mark = (
1,
0.6000,
0.6000,
1
);
};
},
{
glyphname = f_f;
lastChange = "2017-07-28 05:08:00 +0000";
layers = (
{
layerId = "043639A7-E62C-4A4F-99F5-E7AE759848D8";
paths = (
{
closed = 1;
nodes = (
"148 0 LINE",
"401 0 LINE",
"401 1185 LINE",
"602 1185 LINE",
"602 1377 LINE",
"401 1377 LINE",
"401 1456 LINE SMOOTH",
"401 1576 OFFCURVE",
"459 1615 OFFCURVE",
"525 1615 CURVE SMOOTH",
"559 1615 OFFCURVE",
"592 1611 OFFCURVE",
"619 1604 CURVE",
"619 1782 LINE",
"573 1805 OFFCURVE",
"500 1816 OFFCURVE",
"451 1816 CURVE SMOOTH",
"283 1816 OFFCURVE",
"148 1755 OFFCURVE",
"148 1456 CURVE SMOOTH",
"148 1377 LINE",
"33 1377 LINE",
"33 1185 LINE",
"148 1185 LINE"
);
},
{
closed = 1;
nodes = (
"754 0 LINE",
"1007 0 LINE",
"1007 1185 LINE",
"1208 1185 LINE",
"1208 1377 LINE",
"1007 1377 LINE",
"1007 1476 LINE SMOOTH",
"1007 1596 OFFCURVE",
"1065 1635 OFFCURVE",
"1131 1635 CURVE SMOOTH",
"1165 1635 OFFCURVE",
"1198 1631 OFFCURVE",
"1225 1624 CURVE",
"1225 1802 LINE",
"1179 1825 OFFCURVE",
"1106 1836 OFFCURVE",
"1057 1836 CURVE SMOOTH",
"889 1836 OFFCURVE",
"754 1775 OFFCURVE",
"754 1476 CURVE SMOOTH",
"754 1377 LINE",
"639 1377 LINE",
"639 1185 LINE",
"754 1185 LINE"
);
}
);
width = 1212;
}
);
unicode = FB00;
},
{
glyphname = f_f_i;
lastChange = "2017-07-28 05:08:00 +0000";
layers = (
{
layerId = "043639A7-E62C-4A4F-99F5-E7AE759848D8";
paths = (
{
closed = 1;
nodes = (
"1465 1568 CURVE SMOOTH",
"1564 1568 OFFCURVE",
"1623 1632 OFFCURVE",
"1623 1736 CURVE SMOOTH",
"1623 1847 OFFCURVE",
"1565 1899 OFFCURVE",
"1466 1899 CURVE SMOOTH",
"1371 1899 OFFCURVE",
"1310 1855 OFFCURVE",
"1310 1736 CURVE SMOOTH",
"1310 1629 OFFCURVE",
"1372 1568 OFFCURVE"
);
},
{
closed = 1;
nodes = (
"754 0 LINE",
"1007 0 LINE",
"1007 1185 LINE",
"1208 1185 LINE",
"1208 1377 LINE",
"1007 1377 LINE",
"1007 1476 LINE SMOOTH",
"1007 1596 OFFCURVE",
"1065 1635 OFFCURVE",
"1131 1635 CURVE SMOOTH",
"1165 1635 OFFCURVE",
"1198 1631 OFFCURVE",
"1225 1624 CURVE",
"1225 1802 LINE",
"1179 1825 OFFCURVE",
"1106 1836 OFFCURVE",
"1057 1836 CURVE SMOOTH",
"889 1836 OFFCURVE",
"754 1775 OFFCURVE",
"754 1476 CURVE SMOOTH",
"754 1377 LINE",
"639 1377 LINE",
"639 1185 LINE",
"754 1185 LINE"
);
},
{
closed = 1;
nodes = (
"148 0 LINE",
"401 0 LINE",
"401 1185 LINE",
"602 1185 LINE",
"602 1377 LINE",
"401 1377 LINE",
"401 1476 LINE SMOOTH",
"401 1596 OFFCURVE",
"459 1635 OFFCURVE",
"525 1635 CURVE SMOOTH",
"559 1635 OFFCURVE",
"592 1631 OFFCURVE",
"619 1624 CURVE",
"619 1802 LINE",
"573 1825 OFFCURVE",
"500 1836 OFFCURVE",
"451 1836 CURVE SMOOTH",
"283 1836 OFFCURVE",
"148 1775 OFFCURVE",
"148 1476 CURVE SMOOTH",
"148 1377 LINE",
"33 1377 LINE",
"33 1185 LINE",
"148 1185 LINE"
);
},
{
closed = 1;
nodes = (
"1341 0 LINE",
"1594 0 LINE",
"1594 1377 LINE",
"1341 1377 LINE"
);
}
);
width = 1723;
}
);
unicode = FB03;
},
{
glyphname = uniFB01;
lastChange = "2017-07-28 05:08:00 +0000";
layers = (
{
layerId = "043639A7-E62C-4A4F-99F5-E7AE759848D8";
paths = (
{
closed = 1;
nodes = (
"148 0 LINE",
"401 0 LINE",
"401 1185 LINE",
"602 1185 LINE",
"602 1377 LINE",
"401 1377 LINE",
"401 1476 LINE SMOOTH",
"401 1596 OFFCURVE",
"459 1635 OFFCURVE",
"525 1635 CURVE SMOOTH",
"555 1635 OFFCURVE",
"585 1631 OFFCURVE",
"609 1624 CURVE",
"609 1802 LINE",
"566 1825 OFFCURVE",
"497 1836 OFFCURVE",
"451 1836 CURVE SMOOTH",
"283 1836 OFFCURVE",
"148 1775 OFFCURVE",
"148 1476 CURVE SMOOTH",
"148 1377 LINE",
"33 1377 LINE",
"33 1185 LINE",
"148 1185 LINE"
);
},
{
closed = 1;
nodes = (
"858 1568 CURVE SMOOTH",
"957 1568 OFFCURVE",
"1016 1632 OFFCURVE",
"1016 1736 CURVE SMOOTH",
"1016 1847 OFFCURVE",
"958 1899 OFFCURVE",
"859 1899 CURVE SMOOTH",
"764 1899 OFFCURVE",
"703 1855 OFFCURVE",
"703 1736 CURVE SMOOTH",
"703 1629 OFFCURVE",
"765 1568 OFFCURVE"
);
},
{
closed = 1;
nodes = (
"732 0 LINE",
"985 0 LINE",
"985 1377 LINE",
"732 1377 LINE"
);
}
);
width = 1117;
}
);
unicode = FB01;
},
{
glyphname = uniFB02;
lastChange = "2017-07-28 05:08:00 +0000";
layers = (
{
layerId = "043639A7-E62C-4A4F-99F5-E7AE759848D8";
paths = (
{
closed = 1;
nodes = (
"148 0 LINE",
"401 0 LINE",
"401 1185 LINE",
"602 1185 LINE",
"602 1377 LINE",
"401 1377 LINE",
"401 1476 LINE SMOOTH",
"401 1596 OFFCURVE",
"459 1635 OFFCURVE",
"525 1635 CURVE SMOOTH",
"555 1635 OFFCURVE",
"585 1631 OFFCURVE",
"609 1624 CURVE",
"609 1802 LINE",
"566 1825 OFFCURVE",
"497 1836 OFFCURVE",
"451 1836 CURVE SMOOTH",
"283 1836 OFFCURVE",
"148 1775 OFFCURVE",
"148 1476 CURVE SMOOTH",
"148 1377 LINE",
"33 1377 LINE",
"33 1185 LINE",
"148 1185 LINE"
);
},
{
closed = 1;
nodes = (
"735 0 LINE",
"988 0 LINE",
"988 1819 LINE",
"735 1819 LINE"
);
}
);
width = 1117;
}
);
unicode = FB02;
},
{
glyphname = ordfeminine;
lastChange = "2017-07-28 05:08:00 +0000";
layers = (
{
layerId = "043639A7-E62C-4A4F-99F5-E7AE759848D8";
paths = (
{
closed = 1;
nodes = (
"395 814 CURVE SMOOTH",
"323 814 OFFCURVE",
"282 869 OFFCURVE",
"282 949 CURVE SMOOTH",
"282 1056 OFFCURVE",
"366 1125 OFFCURVE",
"428 1150 CURVE SMOOTH",
"462 1165 OFFCURVE",
"471 1167 OFFCURVE",
"494 1175 CURVE",
"494 852 LINE",
"469 831 OFFCURVE",
"436 814 OFFCURVE"
);
},
{
closed = 1;
nodes = (
"404 1761 CURVE SMOOTH",
"178 1761 OFFCURVE",
"85 1636 OFFCURVE",
"85 1514 CURVE SMOOTH",
"85 1476 OFFCURVE",
"88 1443 OFFCURVE",
"99 1392 CURVE",
"281 1392 LINE",
"281 1438 LINE SMOOTH",
"281 1557 OFFCURVE",
"331 1597 OFFCURVE",
"403 1597 CURVE SMOOTH",
"473 1597 OFFCURVE",
"494 1551 OFFCURVE",
"494 1479 CURVE SMOOTH",
"494 1320 LINE",
"451 1308 OFFCURVE",
"403 1287 OFFCURVE",
"378 1276 CURVE SMOOTH",
"259 1227 OFFCURVE",
"64 1126 OFFCURVE",
"64 905 CURVE SMOOTH",
"64 777 OFFCURVE",
"131 649 OFFCURVE",
"304 649 CURVE SMOOTH",
"392 649 OFFCURVE",
"485 692 OFFCURVE",
"533 740 CURVE",
"550 668 LINE",
"722 668 LINE",
"722 1472 LINE SMOOTH",
"722 1615 OFFCURVE",
"673 1761 OFFCURVE"
);
}
);
width = 826;
}
);
unicode = 00AA;
userData = {
com.typemytype.robofont.guides = (
{
angle = 90;
isGlobal = 0;
magnetic = 5;
x = 70;
y = 0;
}
);
};
},
{
glyphname = ordmasculine;
lastChange = "2017-07-28 05:08:00 +0000";
layers = (
{
layerId = "043639A7-E62C-4A4F-99F5-E7AE759848D8";
paths = (
{
closed = 1;
nodes = (
"122 1389 LINE SMOOTH",
"122 1691 OFFCURVE",
"320 1761 OFFCURVE",
"466 1761 CURVE SMOOTH",
"611 1761 OFFCURVE",
"809 1690 OFFCURVE",
"809 1387 CURVE SMOOTH",
"809 1040 LINE SMOOTH",
"809 737 OFFCURVE",
"611 666 OFFCURVE",
"466 666 CURVE SMOOTH",
"320 666 OFFCURVE",
"122 736 OFFCURVE",
"122 1039 CURVE SMOOTH"
);
},
{
closed = 1;
nodes = (
"343 1040 LINE",
"343 898 OFFCURVE",
"371 830 OFFCURVE",
"466 830 CURVE SMOOTH",
"561 830 OFFCURVE",
"588 899 OFFCURVE",
"588 1039 CURVE SMOOTH",
"588 1387 LINE SMOOTH",
"588 1528 OFFCURVE",
"561 1597 OFFCURVE",
"466 1597 CURVE SMOOTH",
"371 1597 OFFCURVE",
"343 1529 OFFCURVE",
"343 1389 CURVE SMOOTH"
);
}
);
width = 909;
}
);
unicode = 00BA;
},
{
glyphname = zero;
lastChange = "2017-07-28 05:08:00 +0000";
layers = (
{
layerId = "043639A7-E62C-4A4F-99F5-E7AE759848D8";
paths = (
{
closed = 1;
nodes = (
"103 498 LINE",
"103 49 OFFCURVE",
"362 -15 OFFCURVE",
"524 -15 CURVE SMOOTH",
"670 -15 OFFCURVE",
"940 50 OFFCURVE",
"940 498 CURVE SMOOTH",
"940 1220 LINE SMOOTH",
"940 1678 OFFCURVE",
"674 1723 OFFCURVE",
"524 1723 CURVE SMOOTH",
"368 1723 OFFCURVE",
"103 1670 OFFCURVE",
"103 1220 CURVE SMOOTH"
);
},
{
closed = 1;
nodes = (
"368 389 CURVE SMOOTH",
"368 1314 LINE SMOOTH",
"368 1462 OFFCURVE",
"419 1528 OFFCURVE",
"524 1528 CURVE SMOOTH",
"626 1528 OFFCURVE",
"677 1462 OFFCURVE",
"677 1314 CURVE SMOOTH",
"677 389 LINE SMOOTH",
"677 248 OFFCURVE",
"626 187 OFFCURVE",
"524 187 CURVE SMOOTH",
"419 187 OFFCURVE",
"368 248 OFFCURVE"
);
}
);
width = 1043;
}
);
unicode = 0030;
},
{
glyphname = one;
lastChange = "2017-07-28 05:08:00 +0000";
layers = (
{
layerId = "043639A7-E62C-4A4F-99F5-E7AE759848D8";
paths = (
{
closed = 1;
nodes = (
"147 0 LINE",
"799 0 LINE",
"799 195 LINE",
"602 195 LINE",
"602 1707 LINE",
"601 1706 LINE",
"602 1708 LINE",
"409 1708 LINE",
"21 1304 LINE",
"133 1173 LINE",
"345 1360 LINE",
"345 195 LINE",
"147 195 LINE"
);
}
);
width = 820;
}
);
unicode = 0031;
},
{
glyphname = two;
lastChange = "2017-07-28 05:08:00 +0000";
layers = (
{
layerId = "043639A7-E62C-4A4F-99F5-E7AE759848D8";
paths = (
{
closed = 1;
nodes = (
"97 0 LINE",
"893 0 LINE",
"893 204 LINE",
"394 204 LINE",
"731 844 LINE SMOOTH",
"853 1078 OFFCURVE",
"895 1197 OFFCURVE",
"895 1336 CURVE SMOOTH",
"895 1580 OFFCURVE",
"773 1723 OFFCURVE",
"475 1723 CURVE SMOOTH",
"198 1723 OFFCURVE",
"81 1534 OFFCURVE",
"81 1361 CURVE SMOOTH",
"81 1288 OFFCURVE",
"94 1231 OFFCURVE",
"108 1157 CURVE",
"308 1157 LINE",
"308 1239 LINE SMOOTH",
"308 1419 OFFCURVE",
"368 1520 OFFCURVE",
"475 1520 CURVE SMOOTH",
"572 1520 OFFCURVE",
"622 1457 OFFCURVE",
"622 1336 CURVE SMOOTH",
"622 1247 OFFCURVE",
"607 1136 OFFCURVE",
"474 878 CURVE SMOOTH",
"97 152 LINE"
);
}
);
width = 982;
}
);
unicode = 0032;
},
{
glyphname = three;
lastChange = "2017-07-28 05:08:00 +0000";
layers = (
{
layerId = "043639A7-E62C-4A4F-99F5-E7AE759848D8";
paths = (
{
closed = 1;
nodes = (
"95 348 CURVE SMOOTH",
"95 118 OFFCURVE",
"236 -15 OFFCURVE",
"497 -15 CURVE SMOOTH",
"727 -15 OFFCURVE",
"922 93 OFFCURVE",
"922 408 CURVE SMOOTH",
"922 521 LINE SMOOTH",
"922 745 OFFCURVE",
"820 840 OFFCURVE",
"687 885 CURVE",
"687 893 LINE",
"790 942 OFFCURVE",
"897 1046 OFFCURVE",
"897 1240 CURVE SMOOTH",
"897 1345 LINE",
"897 1586 OFFCURVE",
"777 1723 OFFCURVE",
"486 1723 CURVE SMOOTH",
"217 1723 OFFCURVE",
"91 1534 OFFCURVE",
"91 1361 CURVE SMOOTH",
"91 1288 OFFCURVE",
"104 1223 OFFCURVE",
"118 1157 CURVE",
"318 1157 LINE",
"318 1239 LINE SMOOTH",
"318 1419 OFFCURVE",
"379 1520 OFFCURVE",
"486 1520 CURVE SMOOTH",
"583 1520 OFFCURVE",
"630 1462 OFFCURVE",
"630 1336 CURVE SMOOTH",
"630 1172 LINE SMOOTH",
"630 1031 OFFCURVE",
"565 977 OFFCURVE",
"479 977 CURVE SMOOTH",
"370 977 LINE",
"370 792 LINE",
"479 792 LINE SMOOTH",
"612 792 OFFCURVE",
"655 712 OFFCURVE",
"655 567 CURVE SMOOTH",
"655 385 LINE SMOOTH",
"655 241 OFFCURVE",
"596 187 OFFCURVE",
"497 187 CURVE SMOOTH",
"397 187 OFFCURVE",
"322 256 OFFCURVE",
"322 469 CURVE SMOOTH",
"322 549 LINE",
"120 549 LINE",
"103 476 OFFCURVE",
"95 405 OFFCURVE"
);
}
);
width = 1025;
}
);
unicode = 0033;
userData = {
com.typemytype.robofont.guides = (
{
angle = 90;
isGlobal = 0;
magnetic = 5;
x = 96;
y = 0;
},
{
angle = 90;
isGlobal = 0;
magnetic = 5;
x = 890;
y = 0;
}
);
};
},
{
glyphname = four;
lastChange = "2017-07-28 05:08:00 +0000";
layers = (
{
layerId = "043639A7-E62C-4A4F-99F5-E7AE759848D8";
paths = (
{
closed = 1;
nodes = (
"76 306 LINE",
"642 306 LINE",
"642 0 LINE",
"883 0 LINE",
"883 306 LINE",
"1041 306 LINE",
"1041 509 LINE",
"883 509 LINE",
"883 1708 LINE",
"574 1708 LINE",
"76 442 LINE"
);
},
{
closed = 1;
nodes = (
"340 509 LINE",
"636 1335 LINE",
"668 1335 LINE",
"642 761 LINE",
"642 509 LINE"
);
}
);
width = 1090;
}
);
unicode = 0034;
userData = {
com.typemytype.robofont.guides = (
{
angle = 90;
isGlobal = 0;
magnetic = 5;
x = 633;
y = 0;
}
);
};
},
{
glyphname = five;
lastChange = "2017-07-28 05:08:00 +0000";
layers = (
{
layerId = "043639A7-E62C-4A4F-99F5-E7AE759848D8";
paths = (
{
closed = 1;
nodes = (
"121 351 CURVE SMOOTH",
"121 127 OFFCURVE",
"258 -15 OFFCURVE",
"512 -15 CURVE SMOOTH",
"721 -15 OFFCURVE",
"917 96 OFFCURVE",
"917 447 CURVE SMOOTH",
"917 737 LINE SMOOTH",
"917 1014 OFFCURVE",
"822 1159 OFFCURVE",
"610 1159 CURVE SMOOTH",
"518 1159 OFFCURVE",
"428 1120 OFFCURVE",
"372 1057 CURVE",
"372 1479 LINE",
"890 1479 LINE",
"890 1708 LINE",
"156 1708 LINE",
"156 836 LINE",
"347 836 LINE",
"382 895 OFFCURVE",
"434 943 OFFCURVE",
"509 943 CURVE SMOOTH",
"588 943 OFFCURVE",
"650 909 OFFCURVE",
"650 739 CURVE SMOOTH",
"650 415 LINE SMOOTH",
"650 268 OFFCURVE",
"609 186 OFFCURVE",
"500 186 CURVE SMOOTH",
"393 186 OFFCURVE",
"348 253 OFFCURVE",
"348 415 CURVE SMOOTH",
"348 549 LINE",
"146 549 LINE",
"129 476 OFFCURVE",
"121 413 OFFCURVE"
);
}
);
width = 1020;
}
);
unicode = 0035;
userData = {
com.typemytype.robofont.guides = (
{
angle = 90;
isGlobal = 0;
magnetic = 5;
x = 907;
y = 0;
}
);
};
},
{
glyphname = six;
lastChange = "2017-07-28 05:08:00 +0000";
layers = (
{
layerId = "043639A7-E62C-4A4F-99F5-E7AE759848D8";
paths = (
{
closed = 1;
nodes = (
"103 507 LINE",
"103 126 OFFCURVE",
"258 -15 OFFCURVE",
"537 -15 CURVE SMOOTH",
"784 -15 OFFCURVE",
"942 115 OFFCURVE",
"942 479 CURVE SMOOTH",
"942 645 LINE",
"942 983 OFFCURVE",
"759 1067 OFFCURVE",
"604 1067 CURVE SMOOTH",
"428 1067 OFFCURVE",
"328 947 OFFCURVE",
"304 859 CURVE",
"342 738 LINE",
"368 791 OFFCURVE",
"434 873 OFFCURVE",
"530 873 CURVE SMOOTH",
"623 873 OFFCURVE",
"678 819 OFFCURVE",
"678 654 CURVE SMOOTH",
"678 407 LINE SMOOTH",
"678 261 OFFCURVE",
"636 187 OFFCURVE",
"534 187 CURVE SMOOTH",
"417 187 OFFCURVE",
"368 251 OFFCURVE",
"368 407 CURVE SMOOTH",
"368 1302 LINE SMOOTH",
"368 1474 OFFCURVE",
"422 1528 OFFCURVE",
"529 1528 CURVE SMOOTH",
"647 1528 OFFCURVE",
"696 1479 OFFCURVE",
"696 1264 CURVE SMOOTH",
"696 1227 LINE",
"896 1227 LINE",
"914 1282 OFFCURVE",
"923 1341 OFFCURVE",
"923 1388 CURVE SMOOTH",
"923 1546 OFFCURVE",
"812 1723 OFFCURVE",
"529 1723 CURVE SMOOTH",
"374 1723 OFFCURVE",
"103 1682 OFFCURVE",
"103 1209 CURVE SMOOTH"
);
}
);
width = 1040;
}
);
unicode = 0036;
userData = {
com.typemytype.robofont.guides = (
{
angle = 90;
isGlobal = 0;
magnetic = 5;
x = 953;
y = 0;
}
);
};
},
{
glyphname = seven;
lastChange = "2017-07-28 05:08:00 +0000";
layers = (
{
layerId = "043639A7-E62C-4A4F-99F5-E7AE759848D8";
paths = (
{
closed = 1;
nodes = (
"65 0 LINE",
"346 0 LINE",
"816 1572 LINE",
"816 1709 LINE",
"36 1709 LINE",
"36 1480 LINE",
"538 1480 LINE"
);
}
);
width = 838;
}
);
unicode = 0037;
userData = {
com.typemytype.robofont.guides = (
{
angle = 90;
isGlobal = 0;
magnetic = 5;
x = 55;
y = 0;
},
{
angle = 90;
isGlobal = 0;
magnetic = 5;
x = 792;
y = 0;
}
);
};
},
{
glyphname = eight;
lastChange = "2017-07-28 05:08:00 +0000";
layers = (
{
layerId = "043639A7-E62C-4A4F-99F5-E7AE759848D8";
paths = (
{
closed = 1;
nodes = (
"505 976 LINE",
"420 976 OFFCURVE",
"370 1026 OFFCURVE",
"370 1177 CURVE SMOOTH",
"370 1302 LINE SMOOTH",
"370 1443 OFFCURVE",
"410 1520 OFFCURVE",
"517 1520 CURVE SMOOTH",
"624 1520 OFFCURVE",
"666 1444 OFFCURVE",
"666 1304 CURVE SMOOTH",
"666 1178 LINE SMOOTH",
"666 1021 OFFCURVE",
"607 976 OFFCURVE",
"529 976 CURVE SMOOTH"
);
},
{
closed = 1;
nodes = (
"348 400 CURVE SMOOTH",
"348 581 LINE SMOOTH",
"348 726 OFFCURVE",
"407 791 OFFCURVE",
"504 791 CURVE SMOOTH",
"529 791 LINE SMOOTH",
"626 791 OFFCURVE",
"687 731 OFFCURVE",
"687 582 CURVE SMOOTH",
"687 401 LINE SMOOTH",
"687 227 OFFCURVE",
"604 187 OFFCURVE",
"516 187 CURVE SMOOTH",
"428 187 OFFCURVE",
"348 226 OFFCURVE"
);
},
{
closed = 1;
nodes = (
"82 414 LINE",
"82 62 OFFCURVE",
"309 -15 OFFCURVE",
"516 -15 CURVE SMOOTH",
"723 -15 OFFCURVE",
"953 63 OFFCURVE",
"953 415 CURVE SMOOTH",
"953 520 LINE SMOOTH",
"953 721 OFFCURVE",
"863 825 OFFCURVE",
"741 885 CURVE",
"741 893 LINE",
"830 940 OFFCURVE",
"929 1035 OFFCURVE",
"929 1220 CURVE SMOOTH",
"929 1340 LINE SMOOTH",
"929 1674 OFFCURVE",
"671 1723 OFFCURVE",
"517 1723 CURVE SMOOTH",
"364 1723 OFFCURVE",
"106 1673 OFFCURVE",
"106 1339 CURVE SMOOTH",
"106 1219 LINE SMOOTH",
"106 1034 OFFCURVE",
"205 939 OFFCURVE",
"294 892 CURVE",
"294 884 LINE",
"173 824 OFFCURVE",
"82 720 OFFCURVE",
"82 519 CURVE SMOOTH"
);
}
);
width = 1032;
}
);
unicode = 0038;
userData = {
com.typemytype.robofont.guides = (
{
angle = 90;
isGlobal = 0;
magnetic = 5;
x = 104;
y = 0;
}
);
};
},
{
glyphname = onesuperior;
lastChange = "2017-07-28 05:08:00 +0000";
layers = (
{
layerId = "043639A7-E62C-4A4F-99F5-E7AE759848D8";
paths = (
{
closed = 1;
nodes = (
"155 677 LINE",
"638 677 LINE",
"638 839 LINE",
"504 839 LINE",
"504 1726 LINE",
"326 1726 LINE",
"61 1470 LINE",
"149 1338 LINE",
"282 1450 LINE",
"282 839 LINE",
"155 839 LINE"
);
}
);
width = 760;
}
);
unicode = 00B9;
},
{
glyphname = twosuperior;
lastChange = "2017-07-28 05:08:00 +0000";
layers = (
{
layerId = "043639A7-E62C-4A4F-99F5-E7AE759848D8";
paths = (
{
closed = 1;
nodes = (
"111 677 LINE",
"733 677 LINE",
"733 850 LINE",
"389 850 LINE",
"587 1134 LINE SMOOTH",
"702 1297 OFFCURVE",
"732 1386 OFFCURVE",
"732 1488 CURVE SMOOTH",
"732 1721 OFFCURVE",
"545 1761 OFFCURVE",
"413 1761 CURVE SMOOTH",
"217 1761 OFFCURVE",
"104 1656 OFFCURVE",
"104 1504 CURVE SMOOTH",
"104 1466 OFFCURVE",
"109 1444 OFFCURVE",
"118 1392 CURVE",
"302 1392 LINE",
"302 1445 LINE SMOOTH",
"302 1544 OFFCURVE",
"343 1596 OFFCURVE",
"402 1596 CURVE SMOOTH",
"462 1596 OFFCURVE",
"493 1563 OFFCURVE",
"493 1488 CURVE SMOOTH",
"493 1422 OFFCURVE",
"482 1345 OFFCURVE",
"377 1193 CURVE",
"111 795 LINE"
);
}
);
width = 854;
}
);
unicode = 00B2;
userData = {
com.typemytype.robofont.guides = (
{
angle = 90;
isGlobal = 0;
magnetic = 5;
x = 713;
y = 0;
},
{
angle = 90;
isGlobal = 0;
magnetic = 5;
x = 112;
y = 0;
}
);
};
},
{
glyphname = threesuperior;
lastChange = "2017-07-28 05:08:00 +0000";
layers = (
{
layerId = "043639A7-E62C-4A4F-99F5-E7AE759848D8";
paths = (
{
closed = 1;
nodes = (
"396 666 CURVE SMOOTH",
"170 666 OFFCURVE",
"81 791 OFFCURVE",
"81 913 CURVE SMOOTH",
"81 954 OFFCURVE",
"85 990 OFFCURVE",
"95 1046 CURVE",
"281 1046 LINE",
"281 1000 LINE SMOOTH",
"281 873 OFFCURVE",
"331 830 OFFCURVE",
"396 830 CURVE SMOOTH",
"478 830 OFFCURVE",
"508 880 OFFCURVE",
"508 946 CURVE SMOOTH",
"508 1019 LINE SMOOTH",
"508 1118 OFFCURVE",
"457 1158 OFFCURVE",
"392 1158 CURVE SMOOTH",
"312 1158 LINE",
"312 1293 LINE",
"392 1293 LINE SMOOTH",
"450 1293 OFFCURVE",
"498 1327 OFFCURVE",
"498 1418 CURVE SMOOTH",
"498 1489 LINE SMOOTH",
"498 1551 OFFCURVE",
"470 1597 OFFCURVE",
"396 1597 CURVE SMOOTH",
"337 1597 OFFCURVE",
"291 1557 OFFCURVE",
"291 1438 CURVE SMOOTH",
"291 1392 LINE",
"109 1392 LINE",
"98 1443 OFFCURVE",
"95 1476 OFFCURVE",
"95 1514 CURVE SMOOTH",
"95 1636 OFFCURVE",
"185 1761 OFFCURVE",
"404 1761 CURVE SMOOTH",
"544 1761 OFFCURVE",
"720 1715 OFFCURVE",
"720 1500 CURVE SMOOTH",
"720 1437 LINE SMOOTH",
"710 1344 OFFCURVE",
"674 1267 OFFCURVE",
"588 1230 CURVE",
"588 1222 LINE",
"678 1185 OFFCURVE",
"730 1105 OFFCURVE",
"730 1011 CURVE SMOOTH",
"730 946 LINE SMOOTH",
"730 714 OFFCURVE",
"540 666 OFFCURVE"
);
}
);
width = 851;
}
);
unicode = 00B3;
userData = {
com.typemytype.robofont.guides = (
{
angle = 0;
isGlobal = 0;
magnetic = 5;
x = 0;
y = 1499;
},
{
angle = 90;
isGlobal = 0;
magnetic = 5;
x = 730;
y = 0;
},
{
angle = 90;
isGlobal = 0;
magnetic = 5;
x = 92;
y = 0;
}
);
};
},
{
glyphname = fraction;
lastChange = "2017-07-28 05:08:00 +0000";
layers = (
{
layerId = "043639A7-E62C-4A4F-99F5-E7AE759848D8";
paths = (
{
closed = 1;
nodes = (
"-99 0 LINE",
"83 0 LINE",
"542 1709 LINE",
"360 1709 LINE"
);
}
);
width = 442;
}
);
unicode = 2044;
},
{
glyphname = onequarter;
lastChange = "2017-07-28 05:08:00 +0000";
layers = (
{
components = (
{
name = fraction;
transform = "{1, 0, 0, 1, 684, 0}";
},
{
name = onesuperior;
transform = "{1, 0, 0, 1, 41, 0}";
}
);
layerId = "043639A7-E62C-4A4F-99F5-E7AE759848D8";
paths = (
{
closed = 1;
nodes = (
"997 185 LINE",
"1405 185 LINE",
"1405 1 LINE",
"1627 1 LINE",
"1627 185 LINE",
"1714 185 LINE",
"1714 339 LINE",
"1627 339 LINE",
"1627 1069 LINE",
"1370 1069 LINE",
"997 281 LINE"
);
},
{
closed = 1;
nodes = (
"1218 339 LINE",
"1419 796 LINE",
"1431 796 LINE",
"1405 376 LINE",
"1405 339 LINE"
);
}
);
width = 1815;
}
);
unicode = 00BC;
},
{
glyphname = threequarters;
lastChange = "2017-07-28 05:08:00 +0000";
layers = (
{
components = (
{
name = fraction;
transform = "{1, 0, 0, 1, 726, 0}";
},
{
name = threesuperior;
transform = "{1, 0, 0, 1, 30, 0}";
}
);
layerId = "043639A7-E62C-4A4F-99F5-E7AE759848D8";
paths = (
{
closed = 1;
nodes = (
"1041 185 LINE",
"1449 185 LINE",
"1449 1 LINE",
"1672 1 LINE",
"1672 185 LINE",
"1758 185 LINE",
"1758 339 LINE",
"1672 339 LINE",
"1672 1069 LINE",
"1414 1069 LINE",
"1041 281 LINE"
);
},
{
closed = 1;
nodes = (
"1262 339 LINE",
"1463 796 LINE",
"1476 796 LINE",
"1449 376 LINE",
"1449 339 LINE"
);
}
);
width = 1859;
}
);
unicode = 00BE;
},
{
glyphname = asterisk;
lastChange = "2017-07-28 05:08:00 +0000";
layers = (
{
layerId = "043639A7-E62C-4A4F-99F5-E7AE759848D8";
paths = (
{
closed = 1;
nodes = (
"361 844 LINE",
"516 1153 LINE",
"668 840 LINE",
"868 986 LINE",
"633 1239 LINE",
"964 1295 LINE",
"891 1534 LINE",
"590 1377 LINE",
"644 1727 LINE",
"398 1727 LINE",
"444 1377 LINE",
"145 1539 LINE",
"74 1300 LINE",
"399 1239 LINE",
"162 993 LINE"
);
}
);
width = 1038;
}
);
unicode = 002A;
},
{
glyphname = backslash;
lastChange = "2017-07-28 05:08:00 +0000";
layers = (
{
layerId = "043639A7-E62C-4A4F-99F5-E7AE759848D8";
paths = (
{
closed = 1;
nodes = (
"318 -326 LINE",
"537 -326 LINE",
"224 1884 LINE",
"5 1884 LINE"
);
}
);
width = 542;
}
);
unicode = 005C;
},
{
glyphname = bullet;
lastChange = "2017-07-28 05:08:00 +0000";
layers = (
{
layerId = "043639A7-E62C-4A4F-99F5-E7AE759848D8";
paths = (
{
closed = 1;
nodes = (
"345 532 CURVE SMOOTH",
"497 532 OFFCURVE",
"572 652 OFFCURVE",
"572 764 CURVE SMOOTH",
"572 893 OFFCURVE",
"497 1008 OFFCURVE",
"345 1008 CURVE SMOOTH",
"196 1008 OFFCURVE",
"129 891 OFFCURVE",
"129 764 CURVE SMOOTH",
"129 646 OFFCURVE",
"199 532 OFFCURVE"
);
}
);
width = 701;
}
);
unicode = 2022;
},
{
glyphname = comma;
lastChange = "2017-07-28 05:08:00 +0000";
layers = (
{
layerId = "043639A7-E62C-4A4F-99F5-E7AE759848D8";
paths = (
{
closed = 1;
nodes = (
"50 -327 LINE",
"261 -327 LINE",
"407 350 LINE",
"150 350 LINE"
);
}
);
width = 502;
}
);
unicode = 002C;
userData = {
com.typemytype.robofont.guides = (
{
angle = 0;
isGlobal = 0;
magnetic = 5;
x = 0;
y = 21;
}
);
};
},
{
glyphname = exclam;
lastChange = "2017-07-28 05:08:00 +0000";
layers = (
{
layerId = "043639A7-E62C-4A4F-99F5-E7AE759848D8";
paths = (
{
closed = 1;
nodes = (
"238 555 LINE",
"445 555 LINE",
"476 1813 LINE",
"203 1813 LINE"
);
},
{
closed = 1;
nodes = (
"186 177 CURVE SMOOTH",
"186 52 OFFCURVE",
"247 -14 OFFCURVE",
"341 -14 CURVE SMOOTH",
"440 -14 OFFCURVE",
"499 56 OFFCURVE",
"499 177 CURVE SMOOTH",
"499 309 OFFCURVE",
"441 373 OFFCURVE",
"342 373 CURVE SMOOTH",
"246 373 OFFCURVE",
"186 317 OFFCURVE"
);
}
);
width = 680;
}
);
unicode = 0021;
userData = {
com.typemytype.robofont.guides = (
{
angle = 0;
isGlobal = 0;
magnetic = 5;
x = 0;
y = 1828;
},
{
angle = 0;
isGlobal = 0;
magnetic = 5;
x = 0;
y = 1792;
}
);
};
},
{
glyphname = numbersign;
lastChange = "2017-07-28 05:08:00 +0000";
layers = (
{
layerId = "043639A7-E62C-4A4F-99F5-E7AE759848D8";
paths = (
{
closed = 1;
nodes = (
"204 0 LINE",
"383 0 LINE",
"411 385 LINE",
"649 385 LINE",
"621 0 LINE",
"800 0 LINE",
"828 385 LINE",
"967 385 LINE",
"967 567 LINE",
"841 567 LINE",
"860 809 LINE",
"1007 809 LINE",
"1007 991 LINE",
"873 991 LINE",
"901 1369 LINE",
"722 1369 LINE",
"694 991 LINE",
"456 991 LINE",
"484 1369 LINE",
"305 1369 LINE",
"277 991 LINE",
"131 991 LINE",
"131 809 LINE",
"264 809 LINE",
"245 567 LINE",
"91 567 LINE",
"91 385 LINE",
"232 385 LINE"
);
},
{
closed = 1;
nodes = (
"424 567 LINE",
"442 809 LINE",
"681 809 LINE",
"663 567 LINE"
);
}
);
width = 1098;
}
);
unicode = 0023;
},
{
glyphname = period;
lastChange = "2017-07-28 05:08:00 +0000";
layers = (
{
layerId = "043639A7-E62C-4A4F-99F5-E7AE759848D8";
paths = (
{
closed = 1;
nodes = (
"86 179 CURVE SMOOTH",
"86 53 OFFCURVE",
"147 -14 OFFCURVE",
"241 -14 CURVE SMOOTH",
"340 -14 OFFCURVE",
"399 57 OFFCURVE",
"399 179 CURVE SMOOTH",
"399 312 OFFCURVE",
"341 377 OFFCURVE",
"242 377 CURVE SMOOTH",
"146 377 OFFCURVE",
"86 320 OFFCURVE"
);
}
);
width = 491;
}
);
unicode = 002E;
},
{
glyphname = question;
lastChange = "2017-07-28 05:08:00 +0000";
layers = (
{
layerId = "043639A7-E62C-4A4F-99F5-E7AE759848D8";
paths = (
{
closed = 1;
nodes = (
"355 177 CURVE SMOOTH",
"355 52 OFFCURVE",
"416 -14 OFFCURVE",
"510 -14 CURVE SMOOTH",
"609 -14 OFFCURVE",
"668 56 OFFCURVE",
"668 177 CURVE SMOOTH",
"668 309 OFFCURVE",
"610 373 OFFCURVE",
"511 373 CURVE SMOOTH",
"415 373 OFFCURVE",
"355 317 OFFCURVE"
);
},
{
closed = 1;
nodes = (
"386 557 LINE",
"607 557 LINE",
"607 701 LINE SMOOTH",
"607 813 OFFCURVE",
"619 849 OFFCURVE",
"695 952 CURVE SMOOTH",
"775 1060 LINE SMOOTH",
"878 1200 OFFCURVE",
"918 1307 OFFCURVE",
"918 1439 CURVE SMOOTH",
"918 1674 OFFCURVE",
"781 1827 OFFCURVE",
"505 1827 CURVE SMOOTH",
"228 1827 OFFCURVE",
"107 1667 OFFCURVE",
"107 1465 CURVE SMOOTH",
"107 1392 OFFCURVE",
"120 1335 OFFCURVE",
"134 1261 CURVE",
"338 1261 LINE",
"338 1343 LINE SMOOTH",
"338 1523 OFFCURVE",
"388 1623 OFFCURVE",
"495 1623 CURVE SMOOTH",
"592 1623 OFFCURVE",
"652 1548 OFFCURVE",
"652 1439 CURVE SMOOTH",
"652 1365 OFFCURVE",
"621 1271 OFFCURVE",
"570 1189 CURVE SMOOTH",
"452 1003 LINE SMOOTH",
"394 910 OFFCURVE",
"387 866 OFFCURVE",
"387 760 CURVE SMOOTH"
);
}
);
width = 1016;
}
);
unicode = 003F;
},
{
glyphname = quotesingle;
lastChange = "2017-07-28 05:08:00 +0000";
layers = (
{
layerId = "043639A7-E62C-4A4F-99F5-E7AE759848D8";
paths = (
{
closed = 1;
nodes = (
"226 1180 LINE",
"429 1180 LINE",
"450 1876 LINE",
"201 1876 LINE"
);
}
);
width = 651;
}
);
unicode = 0027;
},
{
glyphname = slash;
lastChange = "2017-07-28 05:08:00 +0000";
layers = (
{
layerId = "043639A7-E62C-4A4F-99F5-E7AE759848D8";
paths = (
{
closed = 1;
nodes = (
"5 -326 LINE",
"224 -326 LINE",
"537 1884 LINE",
"318 1884 LINE"
);
}
);
width = 542;
}
);
unicode = 002F;
},
{
glyphname = underscore;
lastChange = "2017-07-28 05:08:00 +0000";
layers = (
{
layerId = "043639A7-E62C-4A4F-99F5-E7AE759848D8";
paths = (
{
closed = 1;
nodes = (
"-10 -172 LINE",
"-10 -335 LINE",
"1381 -335 LINE",
"1381 -172 LINE"
);
}
);
width = 1371;
}
);
unicode = 005F;
},
{
glyphname = braceleft;
lastChange = "2017-07-28 05:08:00 +0000";
layers = (
{
layerId = "043639A7-E62C-4A4F-99F5-E7AE759848D8";
paths = (
{
closed = 1;
nodes = (
"279 129 LINE",
"279 -148 OFFCURVE",
"430 -256 OFFCURVE",
"610 -256 CURVE SMOOTH",
"653 -256 OFFCURVE",
"708 -246 OFFCURVE",
"760 -229 CURVE",
"760 -76 LINE",
"722 -76 LINE SMOOTH",
"558 -76 OFFCURVE",
"503 -41 OFFCURVE",
"503 63 CURVE SMOOTH",
"503 468 LINE SMOOTH",
"503 663 OFFCURVE",
"464 786 OFFCURVE",
"341 843 CURVE",
"341 869 LINE",
"467 926 OFFCURVE",
"503 1049 OFFCURVE",
"503 1245 CURVE SMOOTH",
"503 1646 LINE SMOOTH",
"503 1750 OFFCURVE",
"558 1784 OFFCURVE",
"722 1784 CURVE SMOOTH",
"760 1784 LINE",
"760 1938 LINE",
"708 1954 OFFCURVE",
"653 1964 OFFCURVE",
"610 1964 CURVE SMOOTH",
"430 1964 OFFCURVE",
"278 1856 OFFCURVE",
"278 1580 CURVE SMOOTH",
"278 1161 LINE SMOOTH",
"278 1002 OFFCURVE",
"223 955 OFFCURVE",
"122 949 CURVE SMOOTH",
"71 946 LINE",
"71 767 LINE",
"123 764 LINE SMOOTH",
"224 758 OFFCURVE",
"279 711 OFFCURVE",
"279 551 CURVE SMOOTH"
);
}
);
width = 886;
}
);
unicode = 007B;
userData = {
com.typemytype.robofont.guides = (
{
angle = 0;
isGlobal = 0;
magnetic = 5;
x = 0;
y = 1964;
},
{
angle = 0;
isGlobal = 0;
magnetic = 5;
x = 0;
y = -257;
},
{
angle = 90;
isGlobal = 0;
magnetic = 5;
x = 628;
y = 0;
},
{
angle = 90;
isGlobal = 0;
magnetic = 5;
x = 886;
y = 0;
}
);
};
},
{
glyphname = braceright;
lastChange = "2017-07-28 05:08:00 +0000";
layers = (
{
layerId = "043639A7-E62C-4A4F-99F5-E7AE759848D8";
paths = (
{
closed = 1;
nodes = (
"126 -76 LINE",
"126 -229 LINE",
"178 -246 OFFCURVE",
"232 -256 OFFCURVE",
"276 -256 CURVE SMOOTH",
"456 -256 OFFCURVE",
"607 -148 OFFCURVE",
"607 129 CURVE SMOOTH",
"607 551 LINE SMOOTH",
"607 711 OFFCURVE",
"662 758 OFFCURVE",
"763 764 CURVE SMOOTH",
"815 767 LINE",
"815 946 LINE",
"764 949 LINE SMOOTH",
"663 955 OFFCURVE",
"608 1002 OFFCURVE",
"608 1161 CURVE SMOOTH",
"608 1580 LINE SMOOTH",
"608 1856 OFFCURVE",
"456 1964 OFFCURVE",
"276 1964 CURVE SMOOTH",
"232 1964 OFFCURVE",
"178 1954 OFFCURVE",
"126 1938 CURVE",
"126 1784 LINE",
"164 1784 LINE SMOOTH",
"328 1784 OFFCURVE",
"383 1750 OFFCURVE",
"383 1646 CURVE SMOOTH",
"383 1245 LINE SMOOTH",
"383 1049 OFFCURVE",
"419 926 OFFCURVE",
"544 869 CURVE",
"544 843 LINE",
"422 786 OFFCURVE",
"383 663 OFFCURVE",
"383 468 CURVE SMOOTH",
"383 63 LINE SMOOTH",
"383 -41 OFFCURVE",
"328 -76 OFFCURVE",
"164 -76 CURVE SMOOTH"
);
}
);
width = 886;
}
);
unicode = 007D;
},
{
glyphname = bracketleft;
lastChange = "2017-07-28 05:08:00 +0000";
layers = (
{
layerId = "043639A7-E62C-4A4F-99F5-E7AE759848D8";
paths = (
{
closed = 1;
nodes = (
"134 -256 LINE",
"639 -256 LINE",
"639 -66 LINE",
"356 -66 LINE",
"356 1771 LINE",
"639 1771 LINE",
"639 1963 LINE",
"134 1963 LINE"
);
}
);
width = 766;
}
);
unicode = 005B;
},
{
glyphname = bracketright;
lastChange = "2017-07-28 05:08:00 +0000";
layers = (
{
layerId = "043639A7-E62C-4A4F-99F5-E7AE759848D8";
paths = (
{
closed = 1;
nodes = (
"126 -66 LINE",
"126 -256 LINE",
"631 -256 LINE",
"631 1963 LINE",
"126 1963 LINE",
"126 1771 LINE",
"410 1771 LINE",
"410 -66 LINE"
);
}
);
width = 766;
}
);
unicode = 005D;
},
{
glyphname = parenleft;
lastChange = "2017-07-28 05:08:00 +0000";
layers = (
{
layerId = "043639A7-E62C-4A4F-99F5-E7AE759848D8";
paths = (
{
closed = 1;
nodes = (
"649 -83 LINE",
"465 -83 OFFCURVE",
"356 164 OFFCURVE",
"356 712 CURVE SMOOTH",
"356 1003 LINE SMOOTH",
"356 1520 OFFCURVE",
"457 1790 OFFCURVE",
"649 1790 CURVE",
"649 1963 LINE",
"457 1963 OFFCURVE",
"126 1919 OFFCURVE",
"126 957 CURVE SMOOTH",
"126 760 LINE",
"126 -219 OFFCURVE",
"457 -257 OFFCURVE",
"649 -257 CURVE"
);
}
);
width = 766;
}
);
unicode = 0028;
},
{
glyphname = parenright;
lastChange = "2017-07-28 05:08:00 +0000";
layers = (
{
layerId = "043639A7-E62C-4A4F-99F5-E7AE759848D8";
paths = (
{
closed = 1;
nodes = (
"116 -83 CURVE",
"116 -257 LINE",
"309 -257 OFFCURVE",
"639 -219 OFFCURVE",
"639 760 CURVE",
"639 957 LINE",
"639 1919 OFFCURVE",
"309 1963 OFFCURVE",
"116 1963 CURVE",
"116 1790 LINE",
"309 1790 OFFCURVE",
"410 1520 OFFCURVE",
"410 1003 CURVE SMOOTH",
"410 712 LINE SMOOTH",
"410 164 OFFCURVE",
"301 -83 OFFCURVE"
);
}
);
width = 766;
}
);
unicode = 0029;
},
{
glyphname = emdash;
lastChange = "2017-07-28 05:08:00 +0000";
layers = (
{
layerId = "043639A7-E62C-4A4F-99F5-E7AE759848D8";
paths = (
{
closed = 1;
nodes = (
"121 685 LINE",
"1516 685 LINE",
"1516 888 LINE",
"121 888 LINE"
);
}
);
width = 1637;
}
);
unicode = 2014;
},
{
glyphname = endash;
lastChange = "2017-07-28 05:08:00 +0000";
layers = (
{
layerId = "043639A7-E62C-4A4F-99F5-E7AE759848D8";
paths = (
{
closed = 1;
nodes = (
"121 685 LINE",
"1249 685 LINE",
"1249 888 LINE",
"121 888 LINE"
);
}
);
width = 1371;
}
);
unicode = 2013;
},
{
glyphname = hyphen;
lastChange = "2017-07-28 05:08:00 +0000";
layers = (
{
layerId = "043639A7-E62C-4A4F-99F5-E7AE759848D8";
paths = (
{
closed = 1;
nodes = (
"121 685 LINE",
"866 685 LINE",
"866 888 LINE",
"121 888 LINE"
);
}
);
width = 987;
}
);
unicode = 002D;
},
{
glyphname = uni00AD;
lastChange = "2017-07-28 05:08:00 +0000";
layers = (
{
layerId = "043639A7-E62C-4A4F-99F5-E7AE759848D8";
paths = (
{
closed = 1;
nodes = (
"121 685 LINE",
"866 685 LINE",
"866 888 LINE",
"121 888 LINE"
);
}
);
width = 987;
}
);
unicode = 00AD;
},
{
glyphname = guilsinglleft;
lastChange = "2017-07-28 05:08:00 +0000";
layers = (
{
layerId = "043639A7-E62C-4A4F-99F5-E7AE759848D8";
paths = (
{
closed = 1;
nodes = (
"382 790 LINE",
"665 1149 LINE",
"528 1273 LINE",
"139 867 LINE",
"139 717 LINE",
"524 305 LINE",
"661 430 LINE"
);
}
);
width = 824;
}
);
unicode = 2039;
userData = {
com.typemytype.robofont.guides = (
{
angle = 90;
isGlobal = 0;
magnetic = 5;
x = 698;
y = 0;
}
);
};
},
{
glyphname = quoteleft;
lastChange = "2017-07-28 05:08:00 +0000";
layers = (
{
layerId = "043639A7-E62C-4A4F-99F5-E7AE759848D8";
paths = (
{
closed = 1;
nodes = (
"425 1479 LINE",
"504 1876 LINE",
"307 1876 LINE",
"157 1404 LINE",
"157 1180 LINE",
"425 1180 LINE"
);
}
);
width = 610;
}
);
unicode = 2018;
},
{
glyphname = quotereversed;
lastChange = "2017-07-28 05:08:00 +0000";
layers = (
{
layerId = "043639A7-E62C-4A4F-99F5-E7AE759848D8";
paths = (
{
closed = 1;
nodes = (
"414 1876 LINE",
"146 1876 LINE",
"146 1652 LINE",
"296 1180 LINE",
"493 1180 LINE",
"414 1577 LINE"
);
}
);
width = 610;
}
);
unicode = 201B;
},
{
glyphname = .notdef;
lastChange = "2017-07-28 05:08:00 +0000";
layers = (
{
layerId = "043639A7-E62C-4A4F-99F5-E7AE759848D8";
paths = (
{
closed = 1;
nodes = (
"100 0 LINE",
"1216 0 LINE",
"1216 1943 LINE",
"100 1943 LINE"
);
},
{
closed = 1;
nodes = (
"291 399 LINE",
"555 945 LINE",
"291 1481 LINE",
"527 1481 LINE",
"611 1276 LINE",
"656 1138 LINE",
"703 1276 LINE",
"788 1481 LINE",
"1024 1481 LINE",
"759 944 LINE",
"1024 399 LINE",
"800 399 LINE",
"713 602 LINE",
"658 760 LINE",
"602 602 LINE",
"515 399 LINE"
);
}
);
width = 1316;
}
);
},
{
glyphname = Euro;
lastChange = "2017-07-28 05:08:00 +0000";
layers = (
{
layerId = "043639A7-E62C-4A4F-99F5-E7AE759848D8";
paths = (
{
closed = 1;
nodes = (
"-1 877 LINE",
"711 877 LINE",
"740 1056 LINE",
"-1 1056 LINE"
);
},
{
closed = 1;
nodes = (
"-1 546 LINE",
"653 546 LINE",
"685 726 LINE",
"-1 726 LINE"
);
},
{
closed = 1;
nodes = (
"598 -15 CURVE SMOOTH",
"838 -14 OFFCURVE",
"972 111 OFFCURVE",
"972 378 CURVE SMOOTH",
"972 439 LINE",
"754 439 LINE",
"754 373 LINE SMOOTH",
"754 245 OFFCURVE",
"689 188 OFFCURVE",
"598 188 CURVE SMOOTH",
"479 188 OFFCURVE",
"418 251 OFFCURVE",
"418 463 CURVE SMOOTH",
"418 1233 LINE SMOOTH",
"418 1452 OFFCURVE",
"479 1520 OFFCURVE",
"580 1520 CURVE SMOOTH",
"672 1520 OFFCURVE",
"722 1445 OFFCURVE",
"722 1259 CURVE SMOOTH",
"722 1194 LINE",
"922 1194 LINE",
"935 1254 OFFCURVE",
"949 1291 OFFCURVE",
"949 1386 CURVE SMOOTH",
"949 1574 OFFCURVE",
"856 1723 OFFCURVE",
"587 1723 CURVE SMOOTH",
"423 1723 OFFCURVE",
"153 1676 OFFCURVE",
"153 1161 CURVE SMOOTH",
"153 556 LINE SMOOTH",
"153 43 OFFCURVE",
"423 -15 OFFCURVE"
);
}
);
width = 1028;
}
);
unicode = 20AC;
},
{
glyphname = cent;
lastChange = "2017-07-28 05:08:00 +0000";
layers = (
{
components = (
{
name = c;
transform = "{1, 0, 0, 1, 13, 0}";
}
);
layerId = "043639A7-E62C-4A4F-99F5-E7AE759848D8";
paths = (
{
closed = 1;
nodes = (
"389 1286 LINE",
"575 1286 LINE",
"575 1623 LINE",
"389 1623 LINE"
);
},
{
closed = 1;
nodes = (
"390 79 LINE",
"390 -258 LINE",
"576 -258 LINE",
"576 79 LINE"
);
}
);
width = 889;
}
);
unicode = 00A2;
userData = {
com.typemytype.robofont.guides = (
{
angle = 90;
isGlobal = 0;
magnetic = 5;
x = 849;
y = 0;
}
);
};
},
{
glyphname = currency;
lastChange = "2017-07-28 05:08:00 +0000";
layers = (
{
layerId = "043639A7-E62C-4A4F-99F5-E7AE759848D8";
paths = (
{
closed = 1;
nodes = (
"623 464 CURVE SMOOTH",
"880 464 OFFCURVE",
"1005 668 OFFCURVE",
"1005 858 CURVE SMOOTH",
"1005 1076 OFFCURVE",
"880 1265 OFFCURVE",
"623 1265 CURVE SMOOTH",
"369 1265 OFFCURVE",
"256 1071 OFFCURVE",
"256 858 CURVE SMOOTH",
"256 657 OFFCURVE",
"375 464 OFFCURVE"
);
},
{
closed = 1;
nodes = (
"623 691 CURVE SMOOTH",
"527 691 OFFCURVE",
"481 772 OFFCURVE",
"481 855 CURVE SMOOTH",
"481 952 OFFCURVE",
"525 1039 OFFCURVE",
"623 1039 CURVE SMOOTH",
"733 1039 OFFCURVE",
"787 954 OFFCURVE",
"787 855 CURVE SMOOTH",
"787 776 OFFCURVE",
"733 691 OFFCURVE"
);
},
{
closed = 1;
nodes = (
"433 933 LINE",
"558 1090 LINE",
"249 1375 LINE",
"111 1220 LINE"
);
},
{
closed = 1;
nodes = (
"843 933 LINE",
"1166 1220 LINE",
"1027 1375 LINE",
"719 1090 LINE"
);
},
{
closed = 1;
nodes = (
"249 358 LINE",
"558 643 LINE",
"433 800 LINE",
"111 513 LINE"
);
},
{
closed = 1;
nodes = (
"719 643 LINE",
"1027 358 LINE",
"1166 513 LINE",
"843 800 LINE"
);
}
);
width = 1277;
}
);
unicode = 00A4;
},
{
glyphname = dollar;
lastChange = "2017-07-28 05:08:00 +0000";
layers = (
{
layerId = "043639A7-E62C-4A4F-99F5-E7AE759848D8";
paths = (
{
closed = 1;
nodes = (
"419 1611 LINE",
"605 1611 LINE",
"605 1944 LINE",
"419 1944 LINE"
);
},
{
closed = 1;
nodes = (
"420 78 LINE",
"420 -255 LINE",
"606 -255 LINE",
"606 78 LINE"
);
},
{
closed = 1;
nodes = (
"92 346 CURVE SMOOTH",
"92 164 OFFCURVE",
"183 -16 OFFCURVE",
"492 -16 CURVE SMOOTH",
"742 -16 OFFCURVE",
"903 132 OFFCURVE",
"903 368 CURVE SMOOTH",
"903 525 OFFCURVE",
"843 643 OFFCURVE",
"733 786 CURVE SMOOTH",
"438 1168 LINE SMOOTH",
"388 1234 OFFCURVE",
"353 1294 OFFCURVE",
"353 1371 CURVE SMOOTH",
"353 1461 OFFCURVE",
"404 1520 OFFCURVE",
"501 1520 CURVE SMOOTH",
"608 1520 OFFCURVE",
"668 1419 OFFCURVE",
"668 1239 CURVE SMOOTH",
"668 1157 LINE",
"868 1157 LINE",
"882 1231 OFFCURVE",
"895 1288 OFFCURVE",
"895 1361 CURVE SMOOTH",
"895 1534 OFFCURVE",
"803 1723 OFFCURVE",
"501 1723 CURVE SMOOTH",
"252 1723 OFFCURVE",
"103 1563 OFFCURVE",
"103 1336 CURVE SMOOTH",
"103 1185 OFFCURVE",
"159 1069 OFFCURVE",
"254 947 CURVE SMOOTH",
"517 608 LINE SMOOTH",
"612 487 OFFCURVE",
"637 410 OFFCURVE",
"637 334 CURVE SMOOTH",
"637 238 OFFCURVE",
"588 187 OFFCURVE",
"490 187 CURVE SMOOTH",
"375 187 OFFCURVE",
"319 288 OFFCURVE",
"319 472 CURVE SMOOTH",
"319 548 LINE",
"118 548 LINE",
"101 477 OFFCURVE",
"92 419 OFFCURVE"
);
}
);
width = 996;
}
);
unicode = 0024;
userData = {
com.typemytype.robofont.guides = (
{
angle = 90;
isGlobal = 0;
magnetic = 5;
x = 420;
y = 0;
}
);
};
},
{
glyphname = florin;
lastChange = "2017-07-28 05:08:00 +0000";
layers = (
{
layerId = "043639A7-E62C-4A4F-99F5-E7AE759848D8";
paths = (
{
closed = 1;
nodes = (
"401 961 LINE",
"602 961 LINE",
"602 1153 LINE",
"401 1153 LINE",
"401 1476 LINE SMOOTH",
"401 1596 OFFCURVE",
"459 1635 OFFCURVE",
"525 1635 CURVE SMOOTH",
"559 1635 OFFCURVE",
"592 1631 OFFCURVE",
"619 1624 CURVE",
"619 1802 LINE",
"573 1825 OFFCURVE",
"500 1836 OFFCURVE",
"451 1836 CURVE SMOOTH",
"283 1836 OFFCURVE",
"148 1775 OFFCURVE",
"148 1476 CURVE SMOOTH",
"148 1153 LINE",
"33 1153 LINE",
"33 961 LINE",
"148 961 LINE",
"148 -59 LINE SMOOTH",
"148 -179 OFFCURVE",
"90 -218 OFFCURVE",
"24 -218 CURVE SMOOTH",
"-10 -218 OFFCURVE",
"-43 -214 OFFCURVE",
"-70 -207 CURVE",
"-70 -385 LINE",
"-24 -408 OFFCURVE",
"49 -419 OFFCURVE",
"98 -419 CURVE SMOOTH",
"266 -419 OFFCURVE",
"401 -358 OFFCURVE",
"401 -59 CURVE SMOOTH"
);
}
);
width = 606;
}
);
unicode = 0192;
userData = {
com.typemytype.robofont.guides = (
{
angle = 0;
isGlobal = 0;
magnetic = 5;
x = 0;
y = 1836;
},
{
angle = 90;
isGlobal = 0;
magnetic = 5;
x = 1212;
y = 0;
},
{
angle = 90;
isGlobal = 0;
magnetic = 5;
x = 711;
y = 0;
}
);
};
},
{
glyphname = sterling;
lastChange = "2017-07-28 05:08:00 +0000";
layers = (
{
layerId = "043639A7-E62C-4A4F-99F5-E7AE759848D8";
paths = (
{
closed = 1;
nodes = (
"93 0 LINE",
"903 0 LINE",
"903 204 LINE",
"367 204 LINE",
"424 288 OFFCURVE",
"445 403 OFFCURVE",
"445 563 CURVE SMOOTH",
"445 701 LINE",
"724 701 LINE",
"724 880 LINE",
"445 880 LINE",
"445 1224 LINE SMOOTH",
"445 1455 OFFCURVE",
"486 1520 OFFCURVE",
"569 1520 CURVE SMOOTH",
"648 1520 OFFCURVE",
"700 1443 OFFCURVE",
"700 1228 CURVE SMOOTH",
"700 1157 LINE",
"901 1157 LINE",
"917 1231 OFFCURVE",
"927 1307 OFFCURVE",
"927 1371 CURVE SMOOTH",
"927 1552 OFFCURVE",
"829 1723 OFFCURVE",
"576 1723 CURVE SMOOTH",
"306 1723 OFFCURVE",
"190 1555 OFFCURVE",
"190 1224 CURVE SMOOTH",
"190 880 LINE",
"61 880 LINE",
"61 701 LINE",
"190 701 LINE",
"190 591 LINE SMOOTH",
"190 385 OFFCURVE",
"204 203 OFFCURVE",
"93 152 CURVE"
);
}
);
width = 996;
}
);
unicode = 00A3;
userData = {
com.typemytype.robofont.guides = (
{
angle = 90;
isGlobal = 0;
magnetic = 5;
x = 906;
y = 0;
},
{
angle = 90;
isGlobal = 0;
magnetic = 5;
x = 61;
y = 0;
}
);
};
},
{
glyphname = yen;
lastChange = "2017-07-28 05:08:00 +0000";
layers = (
{
layerId = "043639A7-E62C-4A4F-99F5-E7AE759848D8";
paths = (
{
closed = 1;
nodes = (
"368 0 LINE",
"626 0 LINE",
"626 727 LINE",
"963 1708 LINE",
"702 1708 LINE",
"504 992 LINE",
"492 992 LINE",
"294 1708 LINE",
"33 1708 LINE",
"368 727 LINE"
);
},
{
closed = 1;
nodes = (
"132 547 LINE",
"861 547 LINE",
"861 727 LINE",
"132 727 LINE"
);
},
{
closed = 1;
nodes = (
"132 217 LINE",
"861 217 LINE",
"861 396 LINE",
"132 396 LINE"
);
}
);
width = 996;
}
);
unicode = 00A5;
},
{
glyphname = plus;
lastChange = "2017-07-28 05:08:00 +0000";
layers = (
{
layerId = "043639A7-E62C-4A4F-99F5-E7AE759848D8";
paths = (
{
closed = 1;
nodes = (
"312 368 LINE",
"511 368 LINE",
"511 691 LINE",
"785 691 LINE",
"785 887 LINE",
"511 887 LINE",
"511 1200 LINE",
"312 1200 LINE",
"312 887 LINE",
"40 887 LINE",
"40 691 LINE",
"312 691 LINE"
);
}
);
width = 825;
}
);
unicode = 002B;
},
{
glyphname = minus;
lastChange = "2017-07-28 05:08:00 +0000";
layers = (
{
layerId = "043639A7-E62C-4A4F-99F5-E7AE759848D8";
paths = (
{
closed = 1;
nodes = (
"121 691 LINE",
"866 691 LINE",
"866 887 LINE",
"121 887 LINE"
);
}
);
width = 987;
}
);
unicode = 2212;
},
{
glyphname = multiply;
lastChange = "2017-07-28 05:08:00 +0000";
layers = (
{
layerId = "043639A7-E62C-4A4F-99F5-E7AE759848D8";
paths = (
{
closed = 1;
nodes = (
"660 419 LINE",
"790 551 LINE",
"191 1161 LINE",
"61 1029 LINE"
);
},
{
closed = 1;
nodes = (
"191 419 LINE",
"790 1029 LINE",
"660 1161 LINE",
"61 551 LINE"
);
}
);
width = 850;
}
);
unicode = 00D7;
},
{
glyphname = divide;
lastChange = "2017-07-28 05:08:00 +0000";
layers = (
{
layerId = "043639A7-E62C-4A4F-99F5-E7AE759848D8";
paths = (
{
closed = 1;
nodes = (
"277 377 CURVE SMOOTH",
"277 274 OFFCURVE",
"332 215 OFFCURVE",
"412 215 CURVE SMOOTH",
"496 215 OFFCURVE",
"541 277 OFFCURVE",
"541 377 CURVE SMOOTH",
"541 484 OFFCURVE",
"496 535 OFFCURVE",
"413 535 CURVE SMOOTH",
"331 535 OFFCURVE",
"277 493 OFFCURVE"
);
},
{
closed = 1;
nodes = (
"40 691 LINE",
"785 691 LINE",
"785 887 LINE",
"413 887 LINE",
"40 887 LINE"
);
},
{
closed = 1;
nodes = (
"413 1043 CURVE SMOOTH",
"497 1043 OFFCURVE",
"542 1105 OFFCURVE",
"542 1205 CURVE SMOOTH",
"542 1312 OFFCURVE",
"497 1363 OFFCURVE",
"414 1363 CURVE SMOOTH",
"332 1363 OFFCURVE",
"278 1321 OFFCURVE",
"278 1205 CURVE SMOOTH",
"278 1102 OFFCURVE",
"333 1043 OFFCURVE"
);
}
);
width = 825;
}
);
unicode = 00F7;
userData = {
com.typemytype.robofont.guides = (
{
angle = 90;
isGlobal = 0;
magnetic = 5;
x = 413;
y = 0;
}
);
};
},
{
glyphname = equal;
lastChange = "2017-07-28 05:08:00 +0000";
layers = (
{
layerId = "043639A7-E62C-4A4F-99F5-E7AE759848D8";
paths = (
{
closed = 1;
nodes = (
"81 488 LINE",
"825 488 LINE",
"825 683 LINE",
"81 683 LINE"
);
},
{
closed = 1;
nodes = (
"81 895 LINE",
"825 895 LINE",
"825 1090 LINE",
"81 1090 LINE"
);
}
);
width = 906;
}
);
unicode = 003D;
},
{
glyphname = notequal;
lastChange = "2017-07-28 05:08:00 +0000";
layers = (
{
components = (
{
name = equal;
}
);
layerId = "043639A7-E62C-4A4F-99F5-E7AE759848D8";
paths = (
{
closed = 1;
nodes = (
"170 200 LINE",
"329 200 LINE",
"680 1369 LINE",
"521 1369 LINE"
);
}
);
width = 906;
}
);
unicode = 2260;
},
{
glyphname = less;
lastChange = "2017-07-28 05:08:00 +0000";
layers = (
{
layerId = "043639A7-E62C-4A4F-99F5-E7AE759848D8";
paths = (
{
closed = 1;
nodes = (
"40 715 LINE",
"684 314 LINE",
"684 548 LINE",
"268 784 LINE",
"268 792 LINE",
"684 1027 LINE",
"684 1262 LINE",
"40 862 LINE"
);
}
);
width = 765;
}
);
unicode = 003C;
userData = {
com.typemytype.robofont.guides = (
{
angle = 90;
isGlobal = 0;
magnetic = 5;
x = 652;
y = 0;
}
);
};
},
{
glyphname = plusminus;
lastChange = "2017-07-28 05:08:00 +0000";
layers = (
{
layerId = "043639A7-E62C-4A4F-99F5-E7AE759848D8";
paths = (
{
closed = 1;
nodes = (
"352 537 LINE",
"551 537 LINE",
"551 860 LINE",
"825 860 LINE",
"825 1055 LINE",
"551 1055 LINE",
"551 1369 LINE",
"352 1369 LINE",
"352 1055 LINE",
"81 1055 LINE",
"81 860 LINE",
"352 860 LINE"
);
},
{
closed = 1;
nodes = (
"81 169 LINE",
"825 169 LINE",
"825 364 LINE",
"81 364 LINE"
);
}
);
width = 906;
}
);
unicode = 00B1;
userData = {
com.typemytype.robofont.guides = (
{
angle = 90;
isGlobal = 0;
magnetic = 5;
x = 82;
y = 0;
}
);
};
},
{
glyphname = logicalnot;
lastChange = "2017-07-28 05:08:00 +0000";
layers = (
{
layerId = "043639A7-E62C-4A4F-99F5-E7AE759848D8";
paths = (
{
closed = 1;
nodes = (
"40 692 LINE",
"702 692 LINE",
"702 368 LINE",
"900 368 LINE",
"900 887 LINE",
"40 887 LINE"
);
}
);
width = 981;
}
);
unicode = 00AC;
},
{
glyphname = asciitilde;
lastChange = "2017-07-28 05:08:00 +0000";
layers = (
{
layerId = "043639A7-E62C-4A4F-99F5-E7AE759848D8";
paths = (
{
closed = 1;
nodes = (
"125 450 CURVE",
"311 450 LINE",
"288 603 OFFCURVE",
"328 708 OFFCURVE",
"429 708 CURVE SMOOTH",
"558 708 OFFCURVE",
"622 399 OFFCURVE",
"895 399 CURVE SMOOTH",
"1064 399 OFFCURVE",
"1218 556 OFFCURVE",
"1159 869 CURVE",
"967 869 LINE",
"999 687 OFFCURVE",
"963 588 OFFCURVE",
"871 588 CURVE SMOOTH",
"739 588 OFFCURVE",
"689 900 OFFCURVE",
"423 900 CURVE SMOOTH",
"250 900 OFFCURVE",
"98 797 OFFCURVE"
);
}
);
width = 1294;
}
);
unicode = 007E;
},
{
glyphname = integral;
lastChange = "2017-07-28 05:08:00 +0000";
layers = (
{
layerId = "043639A7-E62C-4A4F-99F5-E7AE759848D8";
paths = (
{
closed = 1;
nodes = (
"401 1476 LINE",
"401 1596 OFFCURVE",
"459 1635 OFFCURVE",
"525 1635 CURVE SMOOTH",
"559 1635 OFFCURVE",
"592 1631 OFFCURVE",
"619 1624 CURVE",
"619 1802 LINE",
"573 1825 OFFCURVE",
"500 1836 OFFCURVE",
"451 1836 CURVE SMOOTH",
"283 1836 OFFCURVE",
"148 1775 OFFCURVE",
"148 1476 CURVE SMOOTH",
"148 -59 LINE SMOOTH",
"148 -179 OFFCURVE",
"90 -218 OFFCURVE",
"24 -218 CURVE SMOOTH",
"-10 -218 OFFCURVE",
"-43 -214 OFFCURVE",
"-70 -207 CURVE",
"-70 -385 LINE",
"-24 -408 OFFCURVE",
"49 -419 OFFCURVE",
"98 -419 CURVE SMOOTH",
"266 -419 OFFCURVE",
"401 -358 OFFCURVE",
"401 -59 CURVE SMOOTH"
);
}
);
width = 606;
}
);
unicode = 222B;
userData = {
com.typemytype.robofont.guides = (
{
angle = 0;
isGlobal = 0;
magnetic = 5;
x = 0;
y = 1836;
},
{
angle = 90;
isGlobal = 0;
magnetic = 5;
x = 1212;
y = 0;
},
{
angle = 90;
isGlobal = 0;
magnetic = 5;
x = 711;
y = 0;
}
);
};
},
{
glyphname = radical;
lastChange = "2017-07-28 05:08:00 +0000";
layers = (
{
layerId = "043639A7-E62C-4A4F-99F5-E7AE759848D8";
paths = (
{
closed = 1;
nodes = (
"419 0 LINE",
"635 0 LINE",
"1118 2061 LINE",
"874 2061 LINE",
"573 642 LINE",
"535 350 LINE",
"527 350 LINE",
"494 642 LINE",
"373 1190 LINE",
"121 1190 LINE"
);
},
{
closed = 1;
nodes = (
"26 994 LINE",
"297 994 LINE",
"297 1137 LINE",
"122 1190 LINE",
"26 1190 LINE"
);
}
);
width = 1023;
}
);
unicode = 221A;
},
{
glyphname = mu;
lastChange = "2017-07-28 05:08:00 +0000";
layers = (
{
layerId = "043639A7-E62C-4A4F-99F5-E7AE759848D8";
paths = (
{
closed = 1;
nodes = (
"117 -328 LINE",
"358 -328 LINE",
"351 44 LINE",
"359 43 LINE",
"401 -7 OFFCURVE",
"440 -16 OFFCURVE",
"485 -16 CURVE SMOOTH",
"553 -16 OFFCURVE",
"630 35 OFFCURVE",
"670 96 CURVE",
"687 0 LINE",
"893 0 LINE",
"893 1377 LINE",
"627 1377 LINE",
"627 256 LINE",
"585 206 OFFCURVE",
"541 193 OFFCURVE",
"495 193 CURVE SMOOTH",
"416 193 OFFCURVE",
"378 234 OFFCURVE",
"378 356 CURVE SMOOTH",
"378 1377 LINE",
"116 1377 LINE"
);
}
);
width = 1026;
}
);
unicode = 00B5;
userData = {
com.typemytype.robofont.guides = (
{
angle = 90;
isGlobal = 0;
magnetic = 5;
x = 379;
y = 0;
}
);
};
},
{
glyphname = percent;
lastChange = "2017-07-28 05:08:00 +0000";
layers = (
{
layerId = "043639A7-E62C-4A4F-99F5-E7AE759848D8";
paths = (
{
closed = 1;
nodes = (
"620 0 LINE",
"802 0 LINE",
"1261 1727 LINE",
"1080 1727 LINE"
);
},
{
closed = 1;
nodes = (
"474 786 CURVE SMOOTH",
"608 786 OFFCURVE",
"794 855 OFFCURVE",
"794 1221 CURVE SMOOTH",
"794 1328 LINE SMOOTH",
"794 1697 OFFCURVE",
"612 1748 OFFCURVE",
"475 1748 CURVE SMOOTH",
"333 1748 OFFCURVE",
"151 1693 OFFCURVE",
"151 1328 CURVE SMOOTH",
"151 1221 LINE SMOOTH",
"151 850 OFFCURVE",
"323 786 OFFCURVE"
);
},
{
closed = 1;
nodes = (
"476 945 CURVE SMOOTH",
"389 945 OFFCURVE",
"357 1016 OFFCURVE",
"357 1169 CURVE SMOOTH",
"357 1363 LINE SMOOTH",
"357 1517 OFFCURVE",
"389 1589 OFFCURVE",
"476 1589 CURVE SMOOTH",
"559 1589 OFFCURVE",
"589 1517 OFFCURVE",
"589 1363 CURVE SMOOTH",
"589 1169 LINE SMOOTH",
"589 1016 OFFCURVE",
"559 945 OFFCURVE"
);
},
{
closed = 1;
nodes = (
"1082 420 LINE",
"1082 48 OFFCURVE",
"1253 -15 OFFCURVE",
"1404 -15 CURVE SMOOTH",
"1538 -15 OFFCURVE",
"1724 53 OFFCURVE",
"1724 420 CURVE SMOOTH",
"1724 527 LINE SMOOTH",
"1724 896 OFFCURVE",
"1542 947 OFFCURVE",
"1405 947 CURVE SMOOTH",
"1264 947 OFFCURVE",
"1082 892 OFFCURVE",
"1082 527 CURVE SMOOTH"
);
},
{
closed = 1;
nodes = (
"1287 368 CURVE SMOOTH",
"1287 562 LINE SMOOTH",
"1287 716 OFFCURVE",
"1319 788 OFFCURVE",
"1406 788 CURVE SMOOTH",
"1489 788 OFFCURVE",
"1519 716 OFFCURVE",
"1519 562 CURVE SMOOTH",
"1519 368 LINE SMOOTH",
"1519 215 OFFCURVE",
"1489 144 OFFCURVE",
"1406 144 CURVE SMOOTH",
"1319 144 OFFCURVE",
"1287 215 OFFCURVE"
);
}
);
width = 1875;
}
);
unicode = 0025;
},
{
glyphname = perthousand;
lastChange = "2017-07-28 05:08:00 +0000";
layers = (
{
layerId = "043639A7-E62C-4A4F-99F5-E7AE759848D8";
paths = (
{
closed = 1;
nodes = (
"620 0 LINE",
"802 0 LINE",
"1261 1727 LINE",
"1080 1727 LINE"
);
},
{
closed = 1;
nodes = (
"474 786 CURVE SMOOTH",
"608 786 OFFCURVE",
"794 855 OFFCURVE",
"794 1221 CURVE SMOOTH",
"794 1328 LINE SMOOTH",
"794 1697 OFFCURVE",
"612 1748 OFFCURVE",
"475 1748 CURVE SMOOTH",
"333 1748 OFFCURVE",
"151 1693 OFFCURVE",
"151 1328 CURVE SMOOTH",
"151 1221 LINE SMOOTH",
"151 850 OFFCURVE",
"323 786 OFFCURVE"
);
},
{
closed = 1;
nodes = (
"476 945 CURVE SMOOTH",
"389 945 OFFCURVE",
"357 1016 OFFCURVE",
"357 1169 CURVE SMOOTH",
"357 1363 LINE SMOOTH",
"357 1517 OFFCURVE",
"389 1589 OFFCURVE",
"476 1589 CURVE SMOOTH",
"559 1589 OFFCURVE",
"589 1517 OFFCURVE",
"589 1363 CURVE SMOOTH",
"589 1169 LINE SMOOTH",
"589 1016 OFFCURVE",
"559 945 OFFCURVE"
);
},
{
closed = 1;
nodes = (
"1082 420 LINE",
"1082 48 OFFCURVE",
"1253 -15 OFFCURVE",
"1404 -15 CURVE SMOOTH",
"1538 -15 OFFCURVE",
"1724 53 OFFCURVE",
"1724 420 CURVE SMOOTH",
"1724 527 LINE SMOOTH",
"1724 896 OFFCURVE",
"1542 947 OFFCURVE",
"1405 947 CURVE SMOOTH",
"1264 947 OFFCURVE",
"1082 892 OFFCURVE",
"1082 527 CURVE SMOOTH"
);
},
{
closed = 1;
nodes = (
"1287 368 CURVE SMOOTH",
"1287 562 LINE SMOOTH",
"1287 716 OFFCURVE",
"1319 788 OFFCURVE",
"1406 788 CURVE SMOOTH",
"1489 788 OFFCURVE",
"1519 716 OFFCURVE",
"1519 562 CURVE SMOOTH",
"1519 368 LINE SMOOTH",
"1519 215 OFFCURVE",
"1489 144 OFFCURVE",
"1406 144 CURVE SMOOTH",
"1319 144 OFFCURVE",
"1287 215 OFFCURVE"
);
},
{
closed = 1;
nodes = (
"1872 420 LINE SMOOTH",
"1872 48 OFFCURVE",
"2043 -15 OFFCURVE",
"2194 -15 CURVE SMOOTH",
"2328 -15 OFFCURVE",
"2514 53 OFFCURVE",
"2514 420 CURVE SMOOTH",
"2514 527 LINE SMOOTH",
"2514 896 OFFCURVE",
"2332 947 OFFCURVE",
"2195 947 CURVE SMOOTH",
"2054 947 OFFCURVE",
"1872 892 OFFCURVE",
"1872 527 CURVE SMOOTH"
);
},
{
closed = 1;
nodes = (
"2077 368 CURVE",
"2077 562 LINE SMOOTH",
"2077 716 OFFCURVE",
"2109 788 OFFCURVE",
"2196 788 CURVE SMOOTH",
"2279 788 OFFCURVE",
"2309 716 OFFCURVE",
"2309 562 CURVE SMOOTH",
"2309 368 LINE SMOOTH",
"2309 215 OFFCURVE",
"2279 144 OFFCURVE",
"2196 144 CURVE SMOOTH",
"2109 144 OFFCURVE",
"2077 215 OFFCURVE"
);
}
);
width = 2666;
}
);
unicode = 2030;
},
{
glyphname = at;
lastChange = "2017-07-28 05:08:00 +0000";
layers = (
{
layerId = "043639A7-E62C-4A4F-99F5-E7AE759848D8";
paths = (
{
closed = 1;
nodes = (
"85 513 LINE",
"85 -304 OFFCURVE",
"566 -403 OFFCURVE",
"822 -403 CURVE SMOOTH",
"944 -403 OFFCURVE",
"1097 -373 OFFCURVE",
"1149 -336 CURVE",
"1149 -176 LINE",
"1078 -205 OFFCURVE",
"957 -219 OFFCURVE",
"879 -219 CURVE SMOOTH",
"631 -219 OFFCURVE",
"282 -178 OFFCURVE",
"282 474 CURVE SMOOTH",
"282 945 LINE SMOOTH",
"282 1582 OFFCURVE",
"610 1646 OFFCURVE",
"820 1646 CURVE SMOOTH",
"1028 1646 OFFCURVE",
"1356 1614 OFFCURVE",
"1356 977 CURVE SMOOTH",
"1356 697 LINE",
"1356 351 OFFCURVE",
"1309 299 OFFCURVE",
"1249 299 CURVE SMOOTH",
"1203 299 OFFCURVE",
"1158 332 OFFCURVE",
"1158 450 CURVE SMOOTH",
"1158 1284 LINE",
"962 1284 LINE",
"939 1150 LINE",
"918 1170 LINE",
"918 323 LINE",
"966 308 LINE",
"987 308 LINE",
"1024 176 OFFCURVE",
"1103 115 OFFCURVE",
"1240 115 CURVE SMOOTH",
"1498 115 OFFCURVE",
"1554 391 OFFCURVE",
"1554 765 CURVE SMOOTH",
"1554 977 LINE SMOOTH",
"1554 1704 OFFCURVE",
"1150 1820 OFFCURVE",
"818 1820 CURVE SMOOTH",
"496 1820 OFFCURVE",
"85 1672 OFFCURVE",
"85 945 CURVE SMOOTH"
);
},
{
closed = 1;
nodes = (
"464 594 LINE",
"464 137 OFFCURVE",
"654 116 OFFCURVE",
"759 116 CURVE SMOOTH",
"874 116 OFFCURVE",
"970 210 OFFCURVE",
"1007 376 CURVE",
"936 446 LINE",
"919 384 OFFCURVE",
"884 312 OFFCURVE",
"816 312 CURVE SMOOTH",
"750 312 OFFCURVE",
"704 349 OFFCURVE",
"704 546 CURVE SMOOTH",
"704 864 LINE SMOOTH",
"704 1069 OFFCURVE",
"759 1106 OFFCURVE",
"817 1106 CURVE SMOOTH",
"885 1106 OFFCURVE",
"920 1032 OFFCURVE",
"938 950 CURVE",
"1007 1003 LINE",
"981 1132 OFFCURVE",
"908 1299 OFFCURVE",
"743 1299 CURVE SMOOTH",
"642 1299 OFFCURVE",
"464 1249 OFFCURVE",
"464 837 CURVE SMOOTH"
);
}
);
width = 1639;
}
);
unicode = 0040;
userData = {
com.typemytype.robofont.guides = (
{
angle = 0;
isGlobal = 0;
magnetic = 5;
x = 0;
y = 42;
},
{
angle = 90;
isGlobal = 0;
magnetic = 5;
x = 3264;
y = 0;
},
{
angle = 90;
isGlobal = 0;
magnetic = 5;
x = 836;
y = 0;
}
);
};
},
{
glyphname = ampersand;
lastChange = "2017-07-28 05:08:00 +0000";
layers = (
{
layerId = "043639A7-E62C-4A4F-99F5-E7AE759848D8";
paths = (
{
closed = 1;
nodes = (
"50 410 CURVE SMOOTH",
"50 138 OFFCURVE",
"230 -16 OFFCURVE",
"486 -16 CURVE SMOOTH",
"803 -16 OFFCURVE",
"1108 346 OFFCURVE",
"1108 724 CURVE SMOOTH",
"1108 764 OFFCURVE",
"1104 806 OFFCURVE",
"1098 841 CURVE",
"889 841 LINE",
"892 805 OFFCURVE",
"893 768 OFFCURVE",
"893 724 CURVE SMOOTH",
"893 448 OFFCURVE",
"755 189 OFFCURVE",
"541 189 CURVE SMOOTH",
"378 189 OFFCURVE",
"307 322 OFFCURVE",
"307 445 CURVE SMOOTH",
"307 565 OFFCURVE",
"361 689 OFFCURVE",
"453 793 CURVE SMOOTH",
"621 980 LINE SMOOTH",
"704 1077 OFFCURVE",
"890 1255 OFFCURVE",
"890 1502 CURVE SMOOTH",
"890 1624 OFFCURVE",
"818 1810 OFFCURVE",
"546 1810 CURVE SMOOTH",
"338 1810 OFFCURVE",
"168 1664 OFFCURVE",
"168 1432 CURVE SMOOTH",
"168 1282 OFFCURVE",
"231 1129 OFFCURVE",
"301 1003 CURVE SMOOTH",
"857 1 LINE",
"1125 1 LINE",
"541 1061 LINE SMOOTH",
"442 1241 OFFCURVE",
"405 1329 OFFCURVE",
"405 1432 CURVE SMOOTH",
"405 1565 OFFCURVE",
"484 1606 OFFCURVE",
"546 1606 CURVE SMOOTH",
"612 1606 OFFCURVE",
"672 1560 OFFCURVE",
"672 1458 CURVE SMOOTH",
"672 1308 OFFCURVE",
"576 1204 OFFCURVE",
"523 1143 CURVE SMOOTH",
"308 913 LINE SMOOTH",
"220 812 OFFCURVE",
"50 637 OFFCURVE"
);
}
);
width = 1201;
}
);
unicode = 0026;
userData = {
com.typemytype.robofont.guides = (
{
angle = 90;
isGlobal = 0;
magnetic = 5;
x = 1199;
y = 0;
}
);
};
},
{
glyphname = paragraph;
lastChange = "2017-07-28 05:08:00 +0000";
layers = (
{
layerId = "043639A7-E62C-4A4F-99F5-E7AE759848D8";
paths = (
{
closed = 1;
nodes = (
"476 520 CURVE",
"507 520 LINE",
"507 1708 LINE",
"476 1708 LINE SMOOTH",
"341 1708 OFFCURVE",
"94 1682 OFFCURVE",
"94 1179 CURVE SMOOTH",
"94 1119 LINE",
"94 546 OFFCURVE",
"341 520 OFFCURVE"
);
},
{
closed = 1;
nodes = (
"678 0 LINE",
"936 0 LINE",
"936 1708 LINE",
"678 1708 LINE"
);
}
);
width = 1091;
}
);
unicode = 00B6;
},
{
glyphname = section;
lastChange = "2017-07-28 05:08:00 +0000";
layers = (
{
layerId = "043639A7-E62C-4A4F-99F5-E7AE759848D8";
paths = (
{
closed = 1;
nodes = (
"558 427 CURVE",
"664 302 LINE",
"818 360 OFFCURVE",
"921 492 OFFCURVE",
"921 666 CURVE SMOOTH",
"921 831 OFFCURVE",
"850 929 OFFCURVE",
"721 1060 CURVE SMOOTH",
"565 1221 LINE SMOOTH",
"446 1341 OFFCURVE",
"401 1401 OFFCURVE",
"401 1482 CURVE SMOOTH",
"401 1571 OFFCURVE",
"448 1642 OFFCURVE",
"538 1642 CURVE SMOOTH",
"618 1642 OFFCURVE",
"685 1568 OFFCURVE",
"685 1406 CURVE SMOOTH",
"685 1297 LINE",
"865 1297 LINE",
"883 1371 OFFCURVE",
"892 1429 OFFCURVE",
"892 1503 CURVE SMOOTH",
"892 1657 OFFCURVE",
"792 1827 OFFCURVE",
"538 1827 CURVE SMOOTH",
"302 1827 OFFCURVE",
"161 1684 OFFCURVE",
"161 1482 CURVE SMOOTH",
"161 1311 OFFCURVE",
"237 1192 OFFCURVE",
"407 1026 CURVE SMOOTH",
"564 873 LINE SMOOTH",
"659 781 OFFCURVE",
"696 715 OFFCURVE",
"696 635 CURVE SMOOTH",
"696 537 OFFCURVE",
"634 458 OFFCURVE"
);
},
{
closed = 1;
nodes = (
"161 -45 CURVE SMOOTH",
"161 -200 OFFCURVE",
"261 -369 OFFCURVE",
"514 -369 CURVE SMOOTH",
"750 -369 OFFCURVE",
"892 -226 OFFCURVE",
"892 -25 CURVE SMOOTH",
"892 146 OFFCURVE",
"815 265 OFFCURVE",
"645 431 CURVE SMOOTH",
"489 584 LINE SMOOTH",
"394 677 OFFCURVE",
"357 743 OFFCURVE",
"357 823 CURVE SMOOTH",
"357 921 OFFCURVE",
"418 1000 OFFCURVE",
"495 1031 CURVE",
"389 1155 LINE",
"234 1097 OFFCURVE",
"131 966 OFFCURVE",
"131 791 CURVE SMOOTH",
"131 626 OFFCURVE",
"202 529 OFFCURVE",
"331 397 CURVE SMOOTH",
"488 237 LINE SMOOTH",
"606 116 OFFCURVE",
"651 57 OFFCURVE",
"651 -25 CURVE SMOOTH",
"651 -113 OFFCURVE",
"604 -184 OFFCURVE",
"514 -184 CURVE SMOOTH",
"434 -184 OFFCURVE",
"368 -111 OFFCURVE",
"368 51 CURVE SMOOTH",
"368 160 LINE",
"188 160 LINE",
"170 86 OFFCURVE",
"161 29 OFFCURVE"
);
}
);
width = 1052;
}
);
unicode = 00A7;
userData = {
com.typemytype.robofont.guides = (
{
angle = 90;
isGlobal = 0;
magnetic = 5;
x = 161;
y = 0;
},
{
angle = 90;
isGlobal = 0;
magnetic = 5;
x = 892;
y = 0;
}
);
};
},
{
glyphname = copyright;
lastChange = "2017-07-28 05:08:00 +0000";
layers = (
{
layerId = "043639A7-E62C-4A4F-99F5-E7AE759848D8";
paths = (
{
closed = 1;
nodes = (
"99 694 LINE",
"99 73 OFFCURVE",
"485 -15 OFFCURVE",
"725 -15 CURVE SMOOTH",
"957 -15 OFFCURVE",
"1349 64 OFFCURVE",
"1349 694 CURVE SMOOTH",
"1349 1030 LINE SMOOTH",
"1349 1660 OFFCURVE",
"959 1740 OFFCURVE",
"727 1740 CURVE SMOOTH",
"487 1740 OFFCURVE",
"99 1651 OFFCURVE",
"99 1030 CURVE SMOOTH"
);
},
{
closed = 1;
nodes = (
"255 670 CURVE SMOOTH",
"255 1054 LINE SMOOTH",
"255 1546 OFFCURVE",
"543 1604 OFFCURVE",
"727 1604 CURVE SMOOTH",
"905 1604 OFFCURVE",
"1195 1553 OFFCURVE",
"1195 1054 CURVE SMOOTH",
"1195 670 LINE",
"1193 171 OFFCURVE",
"903 120 OFFCURVE",
"725 120 CURVE SMOOTH",
"541 120 OFFCURVE",
"255 178 OFFCURVE"
);
},
{
closed = 1;
nodes = (
"751 292 CURVE SMOOTH",
"933 293 OFFCURVE",
"1033 409 OFFCURVE",
"1033 622 CURVE SMOOTH",
"1033 696 LINE",
"848 696 LINE",
"848 611 LINE SMOOTH",
"848 505 OFFCURVE",
"807 459 OFFCURVE",
"751 459 CURVE SMOOTH",
"671 459 OFFCURVE",
"632 508 OFFCURVE",
"632 673 CURVE SMOOTH",
"632 1040 LINE SMOOTH",
"632 1211 OFFCURVE",
"672 1263 OFFCURVE",
"745 1263 CURVE SMOOTH",
"811 1263 OFFCURVE",
"847 1199 OFFCURVE",
"847 1076 CURVE SMOOTH",
"847 1020 LINE",
"1011 1020 LINE",
"1022 1078 OFFCURVE",
"1029 1122 OFFCURVE",
"1029 1179 CURVE SMOOTH",
"1029 1292 OFFCURVE",
"961 1430 OFFCURVE",
"750 1430 CURVE SMOOTH",
"628 1430 OFFCURVE",
"416 1393 OFFCURVE",
"416 993 CURVE SMOOTH",
"416 736 LINE SMOOTH",
"416 337 OFFCURVE",
"623 292 OFFCURVE"
);
}
);
width = 1448;
}
);
unicode = 00A9;
},
{
glyphname = registered;
lastChange = "2017-07-28 05:08:00 +0000";
layers = (
{
layerId = "043639A7-E62C-4A4F-99F5-E7AE759848D8";
paths = (
{
closed = 1;
nodes = (
"735 184 CURVE SMOOTH",
"954 184 OFFCURVE",
"1370 264 OFFCURVE",
"1370 879 CURVE SMOOTH",
"1370 1045 LINE",
"1370 1660 OFFCURVE",
"956 1740 OFFCURVE",
"737 1740 CURVE SMOOTH",
"509 1740 OFFCURVE",
"99 1651 OFFCURVE",
"99 1045 CURVE SMOOTH",
"99 879 LINE SMOOTH",
"99 274 OFFCURVE",
"507 184 OFFCURVE"
);
},
{
closed = 1;
nodes = (
"735 330 CURVE SMOOTH",
"539 330 OFFCURVE",
"255 396 OFFCURVE",
"255 871 CURVE SMOOTH",
"255 1053 LINE SMOOTH",
"255 1528 OFFCURVE",
"541 1594 OFFCURVE",
"737 1594 CURVE SMOOTH",
"927 1594 OFFCURVE",
"1215 1536 OFFCURVE",
"1215 1053 CURVE SMOOTH",
"1215 871 LINE",
"1213 389 OFFCURVE",
"925 330 OFFCURVE"
);
},
{
closed = 1;
nodes = (
"473 562 LINE",
"656 562 LINE",
"656 842 LINE",
"762 842 LINE",
"724 901 LINE",
"879 562 LINE",
"1086 562 LINE",
"870 946 LINE",
"811 871 LINE",
"950 885 OFFCURVE",
"1028 976 OFFCURVE",
"1028 1105 CURVE SMOOTH",
"1028 1135 LINE",
"1028 1375 OFFCURVE",
"807 1387 OFFCURVE",
"656 1387 CURVE SMOOTH",
"473 1387 LINE"
);
},
{
closed = 1;
nodes = (
"656 968 LINE",
"656 1261 LINE",
"687 1261 LINE",
"795 1261 OFFCURVE",
"828 1216 OFFCURVE",
"828 1144 CURVE SMOOTH",
"828 1102 LINE SMOOTH",
"828 1010 OFFCURVE",
"791 968 OFFCURVE",
"687 968 CURVE SMOOTH"
);
}
);
width = 1469;
}
);
unicode = 00AE;
},
{
glyphname = trademark;
lastChange = "2017-07-28 05:08:00 +0000";
layers = (
{
layerId = "043639A7-E62C-4A4F-99F5-E7AE759848D8";
paths = (
{
closed = 1;
nodes = (
"681 873 LINE",
"858 873 LINE",
"858 959 LINE SMOOTH",
"858 1271 OFFCURVE",
"845 1356 OFFCURVE",
"837 1464 CURVE",
"844 1464 LINE",
"1019 997 LINE",
"1132 997 LINE",
"1298 1464 LINE",
"1304 1464 LINE",
"1296 1356 OFFCURVE",
"1283 1271 OFFCURVE",
"1283 959 CURVE SMOOTH",
"1283 873 LINE",
"1460 873 LINE",
"1460 1725 LINE",
"1256 1725 LINE",
"1119 1362 LINE",
"1084 1249 LINE",
"1068 1249 LINE",
"1034 1362 LINE",
"908 1725 LINE",
"681 1725 LINE"
);
},
{
closed = 1;
nodes = (
"213 873 LINE",
"391 873 LINE",
"391 1566 LINE",
"569 1566 LINE",
"569 1725 LINE",
"36 1725 LINE",
"35 1566 LINE",
"213 1566 LINE"
);
}
);
width = 1587;
}
);
unicode = 2122;
},
{
glyphname = degree;
lastChange = "2017-07-28 05:08:00 +0000";
layers = (
{
layerId = "043639A7-E62C-4A4F-99F5-E7AE759848D8";
paths = (
{
closed = 1;
nodes = (
"434 1072 CURVE SMOOTH",
"664 1072 OFFCURVE",
"778 1256 OFFCURVE",
"778 1428 CURVE SMOOTH",
"778 1621 OFFCURVE",
"664 1795 OFFCURVE",
"434 1795 CURVE SMOOTH",
"204 1795 OFFCURVE",
"101 1618 OFFCURVE",
"101 1428 CURVE SMOOTH",
"101 1247 OFFCURVE",
"209 1072 OFFCURVE"
);
},
{
closed = 1;
nodes = (
"431 1265 CURVE SMOOTH",
"343 1265 OFFCURVE",
"301 1343 OFFCURVE",
"301 1425 CURVE SMOOTH",
"301 1517 OFFCURVE",
"341 1602 OFFCURVE",
"431 1602 CURVE SMOOTH",
"530 1602 OFFCURVE",
"578 1518 OFFCURVE",
"578 1425 CURVE SMOOTH",
"578 1347 OFFCURVE",
"530 1265 OFFCURVE"
);
}
);
width = 879;
}
);
unicode = 00B0;
},
{
glyphname = bar;
lastChange = "2017-07-28 05:08:00 +0000";
layers = (
{
layerId = "043639A7-E62C-4A4F-99F5-E7AE759848D8";
paths = (
{
closed = 1;
nodes = (
"242 -326 LINE",
"462 -326 LINE",
"462 1884 LINE",
"242 1884 LINE"
);
}
);
width = 704;
}
);
unicode = 007C;
},
{
glyphname = brokenbar;
lastChange = "2017-07-28 05:08:00 +0000";
layers = (
{
layerId = "043639A7-E62C-4A4F-99F5-E7AE759848D8";
paths = (
{
closed = 1;
nodes = (
"242 -326 LINE",
"462 -326 LINE",
"462 683 LINE",
"242 683 LINE"
);
},
{
closed = 1;
nodes = (
"242 940 LINE",
"462 940 LINE",
"462 1884 LINE",
"242 1884 LINE"
);
}
);
width = 704;
}
);
unicode = 00A6;
},
{
glyphname = dagger;
lastChange = "2017-07-28 05:08:00 +0000";
layers = (
{
layerId = "043639A7-E62C-4A4F-99F5-E7AE759848D8";
paths = (
{
closed = 1;
nodes = (
"111 -323 LINE",
"331 -323 LINE",
"331 1865 LINE",
"111 1865 LINE"
);
},
{
closed = 1;
nodes = (
"-151 1155 LINE",
"594 1155 LINE",
"594 1356 LINE",
"-151 1356 LINE"
);
}
);
width = 442;
}
);
unicode = 2020;
},
{
glyphname = daggerdbl;
lastChange = "2017-07-28 05:08:00 +0000";
layers = (
{
layerId = "043639A7-E62C-4A4F-99F5-E7AE759848D8";
paths = (
{
closed = 1;
nodes = (
"111 -323 LINE",
"331 -323 LINE",
"331 1865 LINE",
"111 1865 LINE"
);
},
{
closed = 1;
nodes = (
"-151 1155 LINE",
"593 1155 LINE",
"593 1356 LINE",
"-151 1356 LINE"
);
},
{
closed = 1;
nodes = (
"-151 628 LINE",
"593 628 LINE",
"593 829 LINE",
"-151 829 LINE"
);
}
);
width = 442;
}
);
unicode = 2021;
},
{
glyphname = asciicircum;
lastChange = "2017-07-28 05:08:00 +0000";
layers = (
{
layerId = "043639A7-E62C-4A4F-99F5-E7AE759848D8";
paths = (
{
closed = 1;
nodes = (
"30 277 LINE",
"249 277 LINE",
"408 1067 LINE",
"462 1402 LINE",
"487 1402 LINE",
"538 1067 LINE",
"700 277 LINE",
"919 277 LINE",
"586 1725 LINE",
"353 1725 LINE"
);
}
);
width = 949;
}
);
unicode = 005E;
},
{
glyphname = uni0308;
lastChange = "2017-07-28 05:08:00 +0000";
layers = (
{
anchors = (
{
name = _top;
position = "{1, 500}";
}
);
layerId = "043639A7-E62C-4A4F-99F5-E7AE759848D8";
paths = (
{
closed = 1;
nodes = (
"-222 1560 CURVE SMOOTH",
"-113 1560 OFFCURVE",
"-77 1622 OFFCURVE",
"-77 1725 CURVE SMOOTH",
"-77 1842 OFFCURVE",
"-113 1899 OFFCURVE",
"-222 1899 CURVE SMOOTH",
"-328 1899 OFFCURVE",
"-359 1839 OFFCURVE",
"-359 1725 CURVE SMOOTH",
"-359 1618 OFFCURVE",
"-326 1560 OFFCURVE"
);
},
{
closed = 1;
nodes = (
"215 1560 CURVE SMOOTH",
"324 1560 OFFCURVE",
"361 1622 OFFCURVE",
"361 1725 CURVE SMOOTH",
"361 1842 OFFCURVE",
"324 1899 OFFCURVE",
"215 1899 CURVE SMOOTH",
"109 1899 OFFCURVE",
"79 1839 OFFCURVE",
"79 1725 CURVE SMOOTH",
"79 1618 OFFCURVE",
"111 1560 OFFCURVE"
);
}
);
width = 0;
}
);
unicode = 0308;
userData = {
com.typemytype.robofont.mark = (
0.9670,
0.6000,
1,
1
);
};
},
{
glyphname = uni0307;
lastChange = "2017-07-28 05:08:00 +0000";
layers = (
{
anchors = (
{
name = _top;
position = "{1, 500}";
}
);
layerId = "043639A7-E62C-4A4F-99F5-E7AE759848D8";
paths = (
{
closed = 1;
nodes = (
"0 1568 CURVE SMOOTH",
"99 1568 OFFCURVE",
"158 1632 OFFCURVE",
"158 1736 CURVE SMOOTH",
"158 1847 OFFCURVE",
"100 1899 OFFCURVE",
"1 1899 CURVE SMOOTH",
"-94 1899 OFFCURVE",
"-155 1855 OFFCURVE",
"-155 1736 CURVE SMOOTH",
"-155 1629 OFFCURVE",
"-93 1568 OFFCURVE"
);
}
);
width = 0;
}
);
unicode = 0307;
userData = {
com.typemytype.robofont.mark = (
0.9670,
0.6000,
1,
1
);
};
},
{
glyphname = uni0300;
lastChange = "2017-07-28 05:08:00 +0000";
layers = (
{
anchors = (
{
name = _top;
position = "{0, 500}";
}
);
layerId = "043639A7-E62C-4A4F-99F5-E7AE759848D8";
paths = (
{
closed = 1;
nodes = (
"0 1462 LINE",
"125 1567 LINE",
"-165 1983 LINE",
"-334 1846 LINE"
);
}
);
width = 0;
}
);
unicode = 0300;
userData = {
com.typemytype.robofont.mark = (
0.9670,
0.6000,
1,
1
);
};
},
{
glyphname = uni0301;
lastChange = "2017-07-28 05:08:00 +0000";
layers = (
{
anchors = (
{
name = _top;
position = "{0, 500}";
}
);
layerId = "043639A7-E62C-4A4F-99F5-E7AE759848D8";
paths = (
{
closed = 1;
nodes = (
"0 1462 LINE",
"334 1846 LINE",
"165 1983 LINE",
"-125 1567 LINE"
);
}
);
width = 0;
}
);
unicode = 0301;
userData = {
com.typemytype.robofont.mark = (
0.9670,
0.6000,
1,
1
);
};
},
{
glyphname = uni030B;
lastChange = "2017-07-28 05:08:00 +0000";
layers = (
{
anchors = (
{
name = _top;
position = "{0, 500}";
}
);
layerId = "043639A7-E62C-4A4F-99F5-E7AE759848D8";
paths = (
{
closed = 1;
nodes = (
"-134 1462 LINE",
"180 1856 LINE",
"15 1993 LINE",
"-255 1567 LINE"
);
},
{
closed = 1;
nodes = (
"255 1462 LINE",
"589 1846 LINE",
"425 1983 LINE",
"135 1567 LINE"
);
}
);
width = 0;
}
);
unicode = 030B;
userData = {
com.typemytype.robofont.mark = (
0.9670,
0.6000,
1,
1
);
};
},
{
glyphname = uni0302;
lastChange = "2017-07-28 05:08:00 +0000";
layers = (
{
anchors = (
{
name = _top;
position = "{0, 500}";
}
);
layerId = "043639A7-E62C-4A4F-99F5-E7AE759848D8";
paths = (
{
closed = 1;
nodes = (
"-90 1996 LINE",
"-360 1505 LINE",
"-142 1505 LINE",
"-48 1697 LINE",
"2 1829 LINE",
"53 1697 LINE",
"141 1505 LINE",
"360 1505 LINE",
"84 1996 LINE"
);
}
);
width = 0;
}
);
unicode = 0302;
userData = {
com.typemytype.robofont.mark = (
0.9670,
0.6000,
1,
1
);
};
},
{
glyphname = uni030C;
lastChange = "2017-07-28 05:08:00 +0000";
layers = (
{
anchors = (
{
name = _top;
position = "{0, 500}";
}
);
layerId = "043639A7-E62C-4A4F-99F5-E7AE759848D8";
paths = (
{
closed = 1;
nodes = (
"84 1505 LINE",
"360 1996 LINE",
"141 1996 LINE",
"53 1804 LINE",
"2 1672 LINE",
"-48 1804 LINE",
"-142 1996 LINE",
"-360 1996 LINE",
"-90 1505 LINE"
);
}
);
width = 0;
}
);
unicode = 030C;
userData = {
com.typemytype.robofont.mark = (
0.9670,
0.6000,
1,
1
);
};
},
{
glyphname = uni0306;
lastChange = "2017-07-28 05:08:00 +0000";
layers = (
{
anchors = (
{
name = _top;
position = "{0, 500}";
}
);
layerId = "043639A7-E62C-4A4F-99F5-E7AE759848D8";
paths = (
{
closed = 1;
nodes = (
"0 1504 CURVE SMOOTH",
"-213 1504 OFFCURVE",
"-314 1654 OFFCURVE",
"-314 1810 CURVE SMOOTH",
"-314 1833 OFFCURVE",
"-312 1855 OFFCURVE",
"-308 1877 CURVE",
"-130 1877 LINE",
"-139 1855 OFFCURVE",
"-140 1831 OFFCURVE",
"-140 1806 CURVE SMOOTH",
"-140 1736 OFFCURVE",
"-95 1667 OFFCURVE",
"-1 1667 CURVE SMOOTH",
"105 1667 OFFCURVE",
"157 1739 OFFCURVE",
"157 1806 CURVE SMOOTH",
"157 1831 OFFCURVE",
"160 1856 OFFCURVE",
"149 1877 CURVE",
"318 1877 LINE",
"322 1855 OFFCURVE",
"324 1833 OFFCURVE",
"324 1810 CURVE SMOOTH",
"324 1662 OFFCURVE",
"218 1504 OFFCURVE"
);
}
);
width = 0;
}
);
unicode = 0306;
userData = {
com.typemytype.robofont.mark = (
0.9670,
0.6000,
1,
1
);
};
},
{
glyphname = uni030A;
lastChange = "2017-07-28 05:08:00 +0000";
layers = (
{
anchors = (
{
name = _top;
position = "{5, 500}";
}
);
layerId = "043639A7-E62C-4A4F-99F5-E7AE759848D8";
paths = (
{
closed = 1;
nodes = (
"-1 1664 CURVE SMOOTH",
"105 1664 OFFCURVE",
"157 1730 OFFCURVE",
"157 1797 CURVE SMOOTH",
"157 1879 OFFCURVE",
"105 1939 OFFCURVE",
"-1 1939 CURVE SMOOTH",
"-97 1939 OFFCURVE",
"-140 1877 OFFCURVE",
"-140 1797 CURVE SMOOTH",
"-140 1727 OFFCURVE",
"-95 1664 OFFCURVE"
);
},
{
closed = 1;
nodes = (
"0 1501 CURVE SMOOTH",
"-213 1501 OFFCURVE",
"-314 1645 OFFCURVE",
"-314 1801 CURVE SMOOTH",
"-314 1962 OFFCURVE",
"-217 2102 OFFCURVE",
"0 2102 CURVE SMOOTH",
"218 2102 OFFCURVE",
"324 1965 OFFCURVE",
"324 1801 CURVE SMOOTH",
"324 1653 OFFCURVE",
"218 1501 OFFCURVE"
);
}
);
width = 0;
}
);
unicode = 030A;
userData = {
com.typemytype.robofont.mark = (
0.9670,
0.6000,
1,
1
);
};
},
{
glyphname = uni0303;
lastChange = "2017-07-28 05:08:00 +0000";
layers = (
{
anchors = (
{
name = _top;
position = "{0, 500}";
}
);
layerId = "043639A7-E62C-4A4F-99F5-E7AE759848D8";
paths = (
{
closed = 1;
nodes = (
"166 1547 CURVE SMOOTH",
"274 1547 OFFCURVE",
"374 1625 OFFCURVE",
"374 1778 CURVE SMOOTH",
"374 1803 OFFCURVE",
"371 1826 OFFCURVE",
"363 1873 CURVE",
"204 1873 LINE",
"204 1786 LINE SMOOTH",
"204 1745 OFFCURVE",
"183 1727 OFFCURVE",
"154 1727 CURVE SMOOTH",
"112 1727 OFFCURVE",
"63 1782 OFFCURVE",
"28 1815 CURVE SMOOTH",
"-25 1866 OFFCURVE",
"-74 1892 OFFCURVE",
"-152 1892 CURVE SMOOTH",
"-270 1892 OFFCURVE",
"-373 1844 OFFCURVE",
"-373 1657 CURVE SMOOTH",
"-373 1643 OFFCURVE",
"-370 1590 OFFCURVE",
"-369 1575 CURVE",
"-191 1575 LINE",
"-191 1647 LINE SMOOTH",
"-191 1687 OFFCURVE",
"-176 1711 OFFCURVE",
"-148 1711 CURVE SMOOTH",
"-107 1711 OFFCURVE",
"-90 1681 OFFCURVE",
"-26 1625 CURVE",
"30 1574 OFFCURVE",
"84 1547 OFFCURVE"
);
}
);
width = 0;
}
);
unicode = 0303;
userData = {
com.typemytype.robofont.mark = (
0.9670,
0.6000,
1,
1
);
};
},
{
glyphname = uni0304;
lastChange = "2017-07-28 05:08:00 +0000";
layers = (
{
anchors = (
{
name = _top;
position = "{0, 500}";
}
);
layerId = "043639A7-E62C-4A4F-99F5-E7AE759848D8";
paths = (
{
closed = 1;
nodes = (
"-311 1633 LINE",
"312 1633 LINE",
"312 1826 LINE",
"-311 1826 LINE"
);
}
);
width = 0;
}
);
unicode = 0304;
userData = {
com.typemytype.robofont.mark = (
0.9670,
0.6000,
1,
1
);
};
},
{
glyphname = uni0312;
lastChange = "2017-07-28 05:08:00 +0000";
layers = (
{
anchors = (
{
name = _top;
position = "{11, 500}";
}
);
layerId = "043639A7-E62C-4A4F-99F5-E7AE759848D8";
paths = (
{
closed = 1;
nodes = (
"101 1573 LINE",
"163 2007 LINE",
"-32 2007 LINE",
"-140 1573 LINE"
);
}
);
width = 0;
}
);
unicode = 0312;
userData = {
com.typemytype.robofont.mark = (
0.9670,
0.6000,
1,
1
);
};
},
{
glyphname = uni0315;
lastChange = "2017-07-28 05:08:00 +0000";
layers = (
{
anchors = (
{
name = _car;
position = "{0, 600}";
}
);
layerId = "043639A7-E62C-4A4F-99F5-E7AE759848D8";
paths = (
{
closed = 1;
nodes = (
"0 1819 LINE",
"0 1471 LINE",
"191 1471 LINE",
"236 1819 LINE"
);
}
);
width = 0;
}
);
unicode = 0315;
userData = {
com.typemytype.robofont.mark = (
0.9670,
0.6000,
1,
1
);
};
},
{
glyphname = uni0323;
lastChange = "2017-07-28 05:08:00 +0000";
layers = (
{
anchors = (
{
name = _btm;
position = "{0, -100}";
}
);
layerId = "043639A7-E62C-4A4F-99F5-E7AE759848D8";
paths = (
{
closed = 1;
nodes = (
"-1 -425 CURVE SMOOTH",
"98 -425 OFFCURVE",
"157 -361 OFFCURVE",
"157 -257 CURVE SMOOTH",
"157 -146 OFFCURVE",
"99 -94 OFFCURVE",
"0 -94 CURVE SMOOTH",
"-95 -94 OFFCURVE",
"-156 -138 OFFCURVE",
"-156 -257 CURVE SMOOTH",
"-156 -364 OFFCURVE",
"-94 -425 OFFCURVE"
);
}
);
width = 0;
}
);
unicode = 0323;
userData = {
com.typemytype.robofont.mark = (
0.9670,
0.6000,
1,
1
);
};
},
{
glyphname = uni0326;
lastChange = "2017-07-28 05:08:00 +0000";
layers = (
{
anchors = (
{
name = _btm;
position = "{0, -100}";
}
);
layerId = "043639A7-E62C-4A4F-99F5-E7AE759848D8";
paths = (
{
closed = 1;
nodes = (
"-105 -97 LINE",
"-167 -531 LINE",
"28 -531 LINE",
"136 -97 LINE"
);
}
);
width = 0;
}
);
unicode = 0326;
userData = {
com.typemytype.robofont.mark = (
0.9670,
0.6000,
1,
1
);
};
},
{
glyphname = uni0327;
lastChange = "2017-07-28 05:08:00 +0000";
layers = (
{
anchors = (
{
name = _btm;
position = "{-74, -100}";
}
);
layerId = "043639A7-E62C-4A4F-99F5-E7AE759848D8";
paths = (
{
closed = 1;
nodes = (
"-65 13 LINE",
"-68 -56 LINE SMOOTH",
"-75 -211 OFFCURVE",
"-132 -239 OFFCURVE",
"-222 -239 CURVE SMOOTH",
"-233 -239 OFFCURVE",
"-244 -239 OFFCURVE",
"-255 -238 CURVE",
"-262 -389 LINE",
"-207 -410 OFFCURVE",
"-166 -419 OFFCURVE",
"-111 -419 CURVE SMOOTH",
"-48 -419 OFFCURVE",
"130 -389 OFFCURVE",
"113 -104 CURVE SMOOTH",
"106 13 LINE"
);
}
);
width = 0;
}
);
unicode = 0327;
userData = {
com.typemytype.robofont.mark = (
0.9670,
0.6000,
1,
1
);
};
},
{
glyphname = uni0328;
lastChange = "2017-07-28 05:08:00 +0000";
layers = (
{
layerId = "043639A7-E62C-4A4F-99F5-E7AE759848D8";
paths = (
{
closed = 1;
nodes = (
"-111 0 LINE",
"-133 -20 OFFCURVE",
"-196 -90 OFFCURVE",
"-196 -194 CURVE SMOOTH",
"-196 -382 OFFCURVE",
"-56 -419 OFFCURVE",
"7 -419 CURVE SMOOTH",
"62 -419 OFFCURVE",
"103 -410 OFFCURVE",
"158 -389 CURVE",
"151 -238 LINE",
"140 -239 OFFCURVE",
"129 -239 OFFCURVE",
"118 -239 CURVE SMOOTH",
"28 -239 OFFCURVE",
"-38 -134 OFFCURVE",
"83 0 CURVE",
"-22 13 LINE"
);
}
);
width = 0;
}
);
unicode = 0328;
userData = {
com.typemytype.robofont.mark = (
0.9670,
0.6000,
1,
1
);
};
},
{
glyphname = uni0308.cap;
lastChange = "2017-07-28 05:08:00 +0000";
layers = (
{
anchors = (
{
name = _top;
position = "{1, 500}";
}
);
layerId = "043639A7-E62C-4A4F-99F5-E7AE759848D8";
paths = (
{
closed = 1;
nodes = (
"-222 1764 CURVE SMOOTH",
"-113 1764 OFFCURVE",
"-77 1821 OFFCURVE",
"-77 1917 CURVE SMOOTH",
"-77 2027 OFFCURVE",
"-113 2079 OFFCURVE",
"-222 2079 CURVE SMOOTH",
"-328 2079 OFFCURVE",
"-359 2024 OFFCURVE",
"-359 1917 CURVE SMOOTH",
"-359 1817 OFFCURVE",
"-326 1764 OFFCURVE"
);
},
{
closed = 1;
nodes = (
"215 1764 CURVE SMOOTH",
"324 1764 OFFCURVE",
"361 1821 OFFCURVE",
"361 1917 CURVE SMOOTH",
"361 2027 OFFCURVE",
"324 2079 OFFCURVE",
"215 2079 CURVE SMOOTH",
"109 2079 OFFCURVE",
"79 2024 OFFCURVE",
"79 1917 CURVE SMOOTH",
"79 1817 OFFCURVE",
"111 1764 OFFCURVE"
);
}
);
width = 0;
}
);
userData = {
com.typemytype.robofont.mark = (
0.9670,
0.6000,
1,
1
);
};
},
{
glyphname = uni0307.cap;
lastChange = "2017-07-28 05:08:00 +0000";
layers = (
{
anchors = (
{
name = _top;
position = "{1, 500}";
}
);
layerId = "043639A7-E62C-4A4F-99F5-E7AE759848D8";
paths = (
{
closed = 1;
nodes = (
"0 1770 CURVE SMOOTH",
"99 1770 OFFCURVE",
"158 1834 OFFCURVE",
"158 1938 CURVE SMOOTH",
"158 2049 OFFCURVE",
"100 2101 OFFCURVE",
"1 2101 CURVE SMOOTH",
"-94 2101 OFFCURVE",
"-155 2057 OFFCURVE",
"-155 1938 CURVE SMOOTH",
"-155 1831 OFFCURVE",
"-93 1770 OFFCURVE"
);
}
);
width = 0;
}
);
userData = {
com.typemytype.robofont.mark = (
0.9670,
0.6000,
1,
1
);
};
},
{
glyphname = uni0300.cap;
lastChange = "2017-07-28 05:08:00 +0000";
layers = (
{
anchors = (
{
name = _top;
position = "{0, 500}";
}
);
layerId = "043639A7-E62C-4A4F-99F5-E7AE759848D8";
paths = (
{
closed = 1;
nodes = (
"4 1733 LINE",
"109 1850 LINE",
"-192 2096 LINE",
"-361 1929 LINE"
);
}
);
width = 0;
}
);
userData = {
com.typemytype.robofont.mark = (
0.9670,
0.6000,
1,
1
);
};
},
{
glyphname = uni0301.cap;
lastChange = "2017-07-28 05:08:00 +0000";
layers = (
{
anchors = (
{
name = _top;
position = "{0, 500}";
}
);
layerId = "043639A7-E62C-4A4F-99F5-E7AE759848D8";
paths = (
{
closed = 1;
nodes = (
"360 1929 LINE",
"191 2096 LINE",
"-110 1850 LINE",
"-5 1733 LINE"
);
}
);
width = 0;
}
);
userData = {
com.typemytype.robofont.mark = (
0.9670,
0.6000,
1,
1
);
};
},
{
glyphname = uni030B.cap;
lastChange = "2017-07-28 05:08:00 +0000";
layers = (
{
anchors = (
{
name = _top;
position = "{0, 500}";
}
);
layerId = "043639A7-E62C-4A4F-99F5-E7AE759848D8";
paths = (
{
closed = 1;
nodes = (
"-240 1733 LINE",
"55 1919 LINE",
"-74 2086 LINE",
"-345 1850 LINE"
);
},
{
closed = 1;
nodes = (
"210 1733 LINE",
"505 1919 LINE",
"376 2086 LINE",
"105 1850 LINE"
);
}
);
width = 0;
}
);
userData = {
com.typemytype.robofont.mark = (
0.9670,
0.6000,
1,
1
);
};
},
{
glyphname = uni0302.cap;
lastChange = "2017-07-28 05:08:00 +0000";
layers = (
{
anchors = (
{
name = _top;
position = "{0, 500}";
}
);
layerId = "043639A7-E62C-4A4F-99F5-E7AE759848D8";
paths = (
{
closed = 1;
nodes = (
"111 1776 LINE",
"360 1776 LINE",
"114 2086 LINE",
"-120 2086 LINE",
"-370 1776 LINE",
"-122 1776 LINE",
"-38 1906 LINE",
"2 1962 LINE",
"42 1906 LINE"
);
}
);
width = 0;
}
);
userData = {
com.typemytype.robofont.mark = (
0.9670,
0.6000,
1,
1
);
};
},
{
glyphname = uni030C.cap;
lastChange = "2017-07-28 05:08:00 +0000";
layers = (
{
anchors = (
{
name = _top;
position = "{0, 500}";
}
);
layerId = "043639A7-E62C-4A4F-99F5-E7AE759848D8";
paths = (
{
closed = 1;
nodes = (
"42 1956 LINE",
"2 1900 LINE",
"-38 1956 LINE",
"-122 2086 LINE",
"-370 2086 LINE",
"-120 1776 LINE",
"114 1776 LINE",
"360 2086 LINE",
"111 2086 LINE"
);
}
);
width = 0;
}
);
userData = {
com.typemytype.robofont.mark = (
0.9670,
0.6000,
1,
1
);
};
},
{
glyphname = uni0306.cap;
lastChange = "2017-07-28 05:08:00 +0000";
layers = (
{
anchors = (
{
name = _top;
position = "{0, 500}";
}
);
layerId = "043639A7-E62C-4A4F-99F5-E7AE759848D8";
paths = (
{
closed = 1;
nodes = (
"0 1756 CURVE SMOOTH",
"-213 1756 OFFCURVE",
"-314 1866 OFFCURVE",
"-314 2022 CURVE SMOOTH",
"-314 2045 OFFCURVE",
"-312 2067 OFFCURVE",
"-308 2089 CURVE",
"-130 2089 LINE",
"-139 2067 OFFCURVE",
"-140 2043 OFFCURVE",
"-140 2018 CURVE SMOOTH",
"-140 1948 OFFCURVE",
"-95 1919 OFFCURVE",
"-1 1919 CURVE SMOOTH",
"105 1919 OFFCURVE",
"157 1951 OFFCURVE",
"157 2018 CURVE SMOOTH",
"157 2043 OFFCURVE",
"160 2068 OFFCURVE",
"149 2089 CURVE",
"318 2089 LINE",
"322 2067 OFFCURVE",
"324 2045 OFFCURVE",
"324 2022 CURVE SMOOTH",
"324 1874 OFFCURVE",
"218 1756 OFFCURVE"
);
}
);
width = 0;
}
);
userData = {
com.typemytype.robofont.mark = (
0.9670,
0.6000,
1,
1
);
};
},
{
glyphname = uni030A.cap;
lastChange = "2017-07-28 05:08:00 +0000";
layers = (
{
anchors = (
{
name = _top;
position = "{5, 500}";
}
);
layerId = "043639A7-E62C-4A4F-99F5-E7AE759848D8";
paths = (
{
closed = 1;
nodes = (
"-1 1659 CURVE SMOOTH",
"105 1659 OFFCURVE",
"157 1725 OFFCURVE",
"157 1792 CURVE SMOOTH",
"157 1874 OFFCURVE",
"105 1934 OFFCURVE",
"-1 1934 CURVE SMOOTH",
"-97 1934 OFFCURVE",
"-140 1872 OFFCURVE",
"-140 1792 CURVE SMOOTH",
"-140 1722 OFFCURVE",
"-95 1659 OFFCURVE"
);
},
{
closed = 1;
nodes = (
"0 1496 CURVE SMOOTH",
"-213 1496 OFFCURVE",
"-314 1640 OFFCURVE",
"-314 1796 CURVE SMOOTH",
"-314 1957 OFFCURVE",
"-217 2097 OFFCURVE",
"0 2097 CURVE SMOOTH",
"218 2097 OFFCURVE",
"324 1960 OFFCURVE",
"324 1796 CURVE SMOOTH",
"324 1648 OFFCURVE",
"218 1496 OFFCURVE"
);
}
);
width = 0;
}
);
userData = {
com.typemytype.robofont.mark = (
0.9670,
0.6000,
1,
1
);
};
},
{
glyphname = uni0303.cap;
lastChange = "2017-07-28 05:08:00 +0000";
layers = (
{
anchors = (
{
name = _top;
position = "{0, 500}";
}
);
layerId = "043639A7-E62C-4A4F-99F5-E7AE759848D8";
paths = (
{
closed = 1;
nodes = (
"166 1739 CURVE SMOOTH",
"274 1739 OFFCURVE",
"374 1812 OFFCURVE",
"374 1951 CURVE SMOOTH",
"374 1976 OFFCURVE",
"371 2009 OFFCURVE",
"363 2057 CURVE",
"204 2057 LINE",
"204 1979 LINE SMOOTH",
"204 1939 OFFCURVE",
"183 1921 OFFCURVE",
"154 1921 CURVE SMOOTH",
"112 1921 OFFCURVE",
"63 1976 OFFCURVE",
"28 2009 CURVE",
"-25 2053 OFFCURVE",
"-74 2076 OFFCURVE",
"-152 2076 CURVE SMOOTH",
"-270 2076 OFFCURVE",
"-373 2019 OFFCURVE",
"-373 1839 CURVE SMOOTH",
"-373 1826 OFFCURVE",
"-370 1773 OFFCURVE",
"-369 1758 CURVE",
"-191 1758 LINE",
"-191 1830 LINE SMOOTH",
"-191 1870 OFFCURVE",
"-176 1894 OFFCURVE",
"-148 1894 CURVE SMOOTH",
"-107 1894 OFFCURVE",
"-90 1864 OFFCURVE",
"-26 1808 CURVE",
"30 1763 OFFCURVE",
"84 1739 OFFCURVE"
);
}
);
width = 0;
}
);
userData = {
com.typemytype.robofont.mark = (
0.9670,
0.6000,
1,
1
);
};
},
{
glyphname = uni0304.cap;
lastChange = "2017-07-28 05:08:00 +0000";
layers = (
{
anchors = (
{
name = _top;
position = "{0, 500}";
}
);
layerId = "043639A7-E62C-4A4F-99F5-E7AE759848D8";
paths = (
{
closed = 1;
nodes = (
"-311 1805 LINE",
"312 1805 LINE",
"312 1998 LINE",
"-311 1998 LINE"
);
}
);
width = 0;
}
);
userData = {
com.typemytype.robofont.mark = (
0.9670,
0.6000,
1,
1
);
};
},
{
glyphname = uni0312.cap;
lastChange = "2017-07-28 05:08:00 +0000";
layers = (
{
anchors = (
{
name = _top;
position = "{11, 500}";
}
);
layerId = "043639A7-E62C-4A4F-99F5-E7AE759848D8";
paths = (
{
closed = 1;
nodes = (
"101 1808 LINE",
"163 2242 LINE",
"-32 2242 LINE",
"-140 1808 LINE"
);
}
);
width = 0;
}
);
userData = {
com.typemytype.robofont.mark = (
0.9670,
0.6000,
1,
1
);
};
},
{
glyphname = acute;
lastChange = "2017-07-28 05:08:00 +0000";
layers = (
{
layerId = "043639A7-E62C-4A4F-99F5-E7AE759848D8";
paths = (
{
closed = 1;
nodes = (
"155 1462 LINE",
"489 1846 LINE",
"320 1983 LINE",
"30 1567 LINE"
);
}
);
width = 519;
}
);
unicode = 00B4;
},
{
glyphname = breve;
lastChange = "2017-07-28 05:08:00 +0000";
layers = (
{
layerId = "043639A7-E62C-4A4F-99F5-E7AE759848D8";
paths = (
{
closed = 1;
nodes = (
"344 1451 CURVE SMOOTH",
"131 1451 OFFCURVE",
"30 1601 OFFCURVE",
"30 1757 CURVE SMOOTH",
"30 1780 OFFCURVE",
"32 1802 OFFCURVE",
"36 1824 CURVE",
"214 1824 LINE",
"205 1802 OFFCURVE",
"204 1778 OFFCURVE",
"204 1753 CURVE SMOOTH",
"204 1683 OFFCURVE",
"249 1614 OFFCURVE",
"343 1614 CURVE SMOOTH",
"449 1614 OFFCURVE",
"501 1686 OFFCURVE",
"501 1753 CURVE SMOOTH",
"501 1778 OFFCURVE",
"504 1803 OFFCURVE",
"493 1824 CURVE",
"662 1824 LINE",
"666 1802 OFFCURVE",
"668 1780 OFFCURVE",
"668 1757 CURVE SMOOTH",
"668 1609 OFFCURVE",
"562 1451 OFFCURVE"
);
}
);
width = 698;
}
);
unicode = 02D8;
},
{
glyphname = caron;
lastChange = "2017-07-28 05:08:00 +0000";
layers = (
{
anchors = (
{
name = _top;
position = "{390, 500}";
}
);
layerId = "043639A7-E62C-4A4F-99F5-E7AE759848D8";
paths = (
{
closed = 1;
nodes = (
"474 1505 LINE",
"750 1996 LINE",
"531 1996 LINE",
"443 1804 LINE",
"392 1672 LINE",
"342 1804 LINE",
"248 1996 LINE",
"30 1996 LINE",
"300 1505 LINE"
);
}
);
width = 780;
}
);
unicode = 02C7;
userData = {
com.typemytype.robofont.mark = (
0.9670,
0.6000,
1,
1
);
};
},
{
glyphname = cedilla;
lastChange = "2017-07-28 05:08:00 +0000";
layers = (
{
layerId = "043639A7-E62C-4A4F-99F5-E7AE759848D8";
paths = (
{
closed = 1;
nodes = (
"227 13 LINE",
"224 -56 LINE SMOOTH",
"217 -211 OFFCURVE",
"160 -239 OFFCURVE",
"70 -239 CURVE SMOOTH",
"59 -239 OFFCURVE",
"48 -239 OFFCURVE",
"37 -238 CURVE",
"30 -389 LINE",
"85 -410 OFFCURVE",
"126 -419 OFFCURVE",
"181 -419 CURVE SMOOTH",
"244 -419 OFFCURVE",
"422 -389 OFFCURVE",
"405 -104 CURVE SMOOTH",
"398 13 LINE"
);
}
);
width = 437;
}
);
unicode = 00B8;
},
{
glyphname = circumflex;
lastChange = "2017-07-28 05:08:00 +0000";
layers = (
{
anchors = (
{
name = _top;
position = "{390, 500}";
}
);
layerId = "043639A7-E62C-4A4F-99F5-E7AE759848D8";
paths = (
{
closed = 1;
nodes = (
"300 1996 LINE",
"30 1505 LINE",
"248 1505 LINE",
"342 1697 LINE",
"392 1829 LINE",
"443 1697 LINE",
"531 1505 LINE",
"750 1505 LINE",
"474 1996 LINE"
);
}
);
width = 780;
}
);
unicode = 02C6;
userData = {
com.typemytype.robofont.mark = (
0.9670,
0.6000,
1,
1
);
};
},
{
glyphname = dieresis;
lastChange = "2017-07-28 05:08:00 +0000";
layers = (
{
layerId = "043639A7-E62C-4A4F-99F5-E7AE759848D8";
paths = (
{
closed = 1;
nodes = (
"167 1560 CURVE SMOOTH",
"276 1560 OFFCURVE",
"312 1622 OFFCURVE",
"312 1725 CURVE SMOOTH",
"312 1842 OFFCURVE",
"276 1899 OFFCURVE",
"167 1899 CURVE SMOOTH",
"61 1899 OFFCURVE",
"30 1839 OFFCURVE",
"30 1725 CURVE SMOOTH",
"30 1618 OFFCURVE",
"63 1560 OFFCURVE"
);
},
{
closed = 1;
nodes = (
"604 1560 CURVE SMOOTH",
"713 1560 OFFCURVE",
"750 1622 OFFCURVE",
"750 1725 CURVE SMOOTH",
"750 1842 OFFCURVE",
"713 1899 OFFCURVE",
"604 1899 CURVE SMOOTH",
"498 1899 OFFCURVE",
"468 1839 OFFCURVE",
"468 1725 CURVE SMOOTH",
"468 1618 OFFCURVE",
"500 1560 OFFCURVE"
);
}
);
width = 780;
}
);
unicode = 00A8;
},
{
glyphname = dotaccent;
lastChange = "2017-07-28 05:08:00 +0000";
layers = (
{
layerId = "043639A7-E62C-4A4F-99F5-E7AE759848D8";
paths = (
{
closed = 1;
nodes = (
"185 1568 CURVE SMOOTH",
"284 1568 OFFCURVE",
"343 1632 OFFCURVE",
"343 1736 CURVE SMOOTH",
"343 1847 OFFCURVE",
"285 1899 OFFCURVE",
"186 1899 CURVE SMOOTH",
"91 1899 OFFCURVE",
"30 1855 OFFCURVE",
"30 1736 CURVE SMOOTH",
"30 1629 OFFCURVE",
"92 1568 OFFCURVE"
);
}
);
width = 373;
}
);
unicode = 02D9;
},
{
glyphname = grave;
lastChange = "2017-07-28 05:08:00 +0000";
layers = (
{
layerId = "043639A7-E62C-4A4F-99F5-E7AE759848D8";
paths = (
{
closed = 1;
nodes = (
"364 1462 LINE",
"489 1567 LINE",
"199 1983 LINE",
"30 1846 LINE"
);
}
);
width = 519;
}
);
unicode = 0060;
},
{
glyphname = hungarumlaut;
lastChange = "2017-07-28 05:08:00 +0000";
layers = (
{
anchors = (
{
name = _top;
position = "{285, 500}";
}
);
layerId = "043639A7-E62C-4A4F-99F5-E7AE759848D8";
paths = (
{
closed = 1;
nodes = (
"151 1462 LINE",
"465 1856 LINE",
"300 1993 LINE",
"30 1567 LINE"
);
},
{
closed = 1;
nodes = (
"540 1462 LINE",
"874 1846 LINE",
"710 1983 LINE",
"420 1567 LINE"
);
}
);
width = 904;
}
);
unicode = 02DD;
userData = {
com.typemytype.robofont.mark = (
0.9670,
0.6000,
1,
1
);
};
},
{
glyphname = macron;
lastChange = "2017-07-28 05:08:00 +0000";
layers = (
{
layerId = "043639A7-E62C-4A4F-99F5-E7AE759848D8";
paths = (
{
closed = 1;
nodes = (
"30 1633 LINE",
"653 1633 LINE",
"653 1826 LINE",
"30 1826 LINE"
);
}
);
width = 683;
}
);
unicode = 00AF;
},
{
glyphname = ogonek;
lastChange = "2017-07-28 05:08:00 +0000";
layers = (
{
anchors = (
{
name = _btm;
position = "{218, -100}";
}
);
layerId = "043639A7-E62C-4A4F-99F5-E7AE759848D8";
paths = (
{
closed = 1;
nodes = (
"39 13 LINE",
"32 -104 LINE SMOOTH",
"15 -389 OFFCURVE",
"193 -419 OFFCURVE",
"256 -419 CURVE SMOOTH",
"311 -419 OFFCURVE",
"352 -410 OFFCURVE",
"407 -389 CURVE",
"400 -238 LINE",
"389 -239 OFFCURVE",
"378 -239 OFFCURVE",
"367 -239 CURVE SMOOTH",
"277 -239 OFFCURVE",
"220 -211 OFFCURVE",
"213 -56 CURVE SMOOTH",
"210 13 LINE"
);
}
);
width = 437;
}
);
unicode = 02DB;
userData = {
com.typemytype.robofont.mark = (
0.9670,
0.6000,
1,
1
);
};
},
{
glyphname = ring;
lastChange = "2017-07-28 05:08:00 +0000";
layers = (
{
anchors = (
{
name = _top;
position = "{349, 500}";
}
);
layerId = "043639A7-E62C-4A4F-99F5-E7AE759848D8";
paths = (
{
closed = 1;
nodes = (
"343 1664 CURVE SMOOTH",
"449 1664 OFFCURVE",
"501 1730 OFFCURVE",
"501 1797 CURVE SMOOTH",
"501 1879 OFFCURVE",
"449 1939 OFFCURVE",
"343 1939 CURVE SMOOTH",
"247 1939 OFFCURVE",
"204 1877 OFFCURVE",
"204 1797 CURVE SMOOTH",
"204 1727 OFFCURVE",
"249 1664 OFFCURVE"
);
},
{
closed = 1;
nodes = (
"344 1501 CURVE SMOOTH",
"131 1501 OFFCURVE",
"30 1645 OFFCURVE",
"30 1801 CURVE SMOOTH",
"30 1962 OFFCURVE",
"127 2102 OFFCURVE",
"344 2102 CURVE SMOOTH",
"562 2102 OFFCURVE",
"668 1965 OFFCURVE",
"668 1801 CURVE SMOOTH",
"668 1653 OFFCURVE",
"562 1501 OFFCURVE"
);
}
);
width = 698;
}
);
unicode = 02DA;
userData = {
com.typemytype.robofont.mark = (
0.9670,
0.6000,
1,
1
);
};
},
{
glyphname = tilde;
lastChange = "2017-07-28 05:08:00 +0000";
layers = (
{
layerId = "043639A7-E62C-4A4F-99F5-E7AE759848D8";
paths = (
{
closed = 1;
nodes = (
"569 1536 CURVE SMOOTH",
"677 1536 OFFCURVE",
"777 1614 OFFCURVE",
"777 1767 CURVE SMOOTH",
"777 1792 OFFCURVE",
"774 1826 OFFCURVE",
"766 1873 CURVE",
"607 1873 LINE",
"607 1786 LINE SMOOTH",
"607 1745 OFFCURVE",
"586 1727 OFFCURVE",
"557 1727 CURVE SMOOTH",
"515 1727 OFFCURVE",
"466 1782 OFFCURVE",
"431 1815 CURVE SMOOTH",
"378 1866 OFFCURVE",
"329 1892 OFFCURVE",
"251 1892 CURVE SMOOTH",
"133 1892 OFFCURVE",
"30 1833 OFFCURVE",
"30 1646 CURVE SMOOTH",
"30 1632 OFFCURVE",
"33 1579 OFFCURVE",
"34 1564 CURVE",
"212 1564 LINE",
"212 1636 LINE SMOOTH",
"212 1676 OFFCURVE",
"227 1700 OFFCURVE",
"255 1700 CURVE SMOOTH",
"296 1700 OFFCURVE",
"313 1670 OFFCURVE",
"377 1614 CURVE SMOOTH",
"433 1563 OFFCURVE",
"487 1536 OFFCURVE"
);
}
);
width = 807;
}
);
unicode = 02DC;
},
{
glyphname = ring.cap;
lastChange = "2017-07-28 05:08:00 +0000";
layers = (
{
layerId = "043639A7-E62C-4A4F-99F5-E7AE759848D8";
paths = (
{
closed = 1;
nodes = (
"-1 1643 CURVE SMOOTH",
"-95 1643 OFFCURVE",
"-140 1707 OFFCURVE",
"-140 1772 CURVE SMOOTH",
"-140 1846 OFFCURVE",
"-97 1903 OFFCURVE",
"-1 1903 CURVE SMOOTH",
"105 1903 OFFCURVE",
"157 1847 OFFCURVE",
"157 1772 CURVE SMOOTH",
"157 1710 OFFCURVE",
"105 1643 OFFCURVE"
);
},
{
closed = 1;
nodes = (
"0 1480 CURVE SMOOTH",
"218 1480 OFFCURVE",
"324 1633 OFFCURVE",
"324 1776 CURVE SMOOTH",
"324 1935 OFFCURVE",
"218 2065 OFFCURVE",
"0 2065 CURVE SMOOTH",
"-217 2065 OFFCURVE",
"-314 1931 OFFCURVE",
"-314 1776 CURVE SMOOTH",
"-314 1625 OFFCURVE",
"-213 1480 OFFCURVE"
);
}
);
width = 0;
}
);
},
